<?xml version="1.0" standalone="no"?>
<!DOCTYPE svg PUBLIC "-//W3C//DTD SVG 20010904//EN"
 "http://www.w3.org/TR/2001/REC-SVG-20010904/DTD/svg10.dtd">
<svg version="1.0" xmlns="http://www.w3.org/2000/svg"
 width="1200.000000pt" height="1200.000000pt" viewBox="0 0 1200.000000 1200.000000"
 preserveAspectRatio="xMidYMid meet">
<metadata>
Created by potrace 1.15, written by Peter Selinger 2001-2017
</metadata>
<g transform="translate(0.000000,1200.000000) scale(0.100000,-0.100000)"
fill="#000000" stroke="none">
<path d="M5830 9664 c-80 -47 -146 -87 -147 -88 -2 -2 229 -341 240 -352 6 -7
218 447 212 456 -10 17 -116 70 -137 70 -13 -1 -88 -39 -168 -86z"/>
<path d="M6085 9413 c-61 -129 -111 -240 -113 -247 -2 -7 117 -188 264 -402
147 -214 272 -397 279 -407 11 -16 42 35 243 405 127 232 230 423 229 424 -2
1 -779 455 -787 460 -3 1 -55 -103 -115 -233z"/>
<path d="M4900 9121 l-715 -418 0 -96 0 -96 449 -547 449 -546 51 108 c29 60
211 450 406 867 195 416 357 757 360 757 3 0 12 -12 21 -26 l16 -26 12 30 c11
26 10 34 -6 58 l-18 28 -9 -27 c-6 -15 -13 -27 -17 -27 -4 0 -65 85 -136 190
-70 104 -132 189 -138 189 -5 0 -332 -188 -725 -418z"/>
<path d="M7026 9128 c-7 -13 -111 -203 -231 -423 -119 -220 -221 -404 -226
-410 -6 -6 -15 0 -26 14 l-16 24 -14 -27 c-12 -23 -11 -29 3 -52 l17 -26 15
27 c12 23 16 25 26 14 7 -8 210 -302 451 -654 240 -352 443 -646 449 -653 9
-9 48 53 176 285 l165 298 0 579 0 578 -383 224 c-211 123 -385 224 -388 224
-2 0 -10 -10 -18 -22z"/>
<path d="M5530 8230 c-221 -473 -406 -860 -409 -860 -3 0 -12 10 -20 22 l-13
22 -15 -27 c-7 -15 -15 -27 -18 -27 -2 0 -195 234 -429 520 -235 285 -431 522
-436 525 -7 4 -9 -312 -8 -907 l3 -913 200 -117 c110 -64 200 -116 201 -115 0
1 103 223 229 492 126 270 232 494 237 500 5 5 15 0 25 -14 l16 -24 14 27 c8
15 17 24 22 22 4 -3 122 -144 262 -315 192 -234 257 -307 265 -298 16 17 834
1524 834 1536 0 9 -521 775 -544 799 -10 10 -95 -163 -416 -848z"/>
<path d="M6114 7453 c-229 -422 -419 -770 -422 -773 -2 -3 -12 5 -21 17 l-18
22 -19 -24 -19 -24 -255 314 c-140 172 -257 314 -260 314 -3 1 -108 -218 -233
-486 -184 -392 -225 -489 -215 -498 7 -7 132 -81 278 -165 146 -85 275 -160
286 -167 21 -13 27 -3 203 319 99 183 185 340 190 348 8 12 13 11 31 -5 22
-19 30 -16 44 20 2 7 7 7 14 0 6 -5 171 -206 366 -445 196 -239 360 -436 364
-438 4 -1 144 78 311 175 l303 178 198 364 c109 200 203 368 208 373 6 6 15 2
24 -11 l15 -22 17 27 18 26 116 -171 116 -171 30 18 31 18 3 419 c1 252 -1
415 -7 410 -5 -6 -71 -124 -146 -262 -76 -139 -141 -253 -146 -253 -5 0 -14 9
-21 20 -12 18 -13 18 -29 -6 l-17 -26 -45 64 c-24 34 -228 331 -452 658 -224
327 -411 599 -415 603 -4 5 -196 -337 -426 -760z"/>
<path d="M7316 6514 c-91 -169 -165 -308 -164 -310 7 -7 547 312 544 321 -7
20 -198 295 -205 295 -4 0 -83 -138 -175 -306z"/>
<path d="M5477 6284 c-98 -179 -179 -330 -180 -335 -3 -15 674 -409 702 -409
28 0 374 197 369 211 -5 14 -700 859 -707 859 -4 0 -86 -147 -184 -326z"/>
<path d="M4714 4586 c-3 -7 -4 -35 -2 -62 l3 -49 73 -3 c77 -3 74 -5 74 53 0
80 5 75 -72 75 -51 0 -72 -4 -76 -14z"/>
<path d="M8800 4195 l0 -405 70 0 70 0 0 405 0 405 -70 0 -70 0 0 -405z"/>
<path d="M3060 4170 l0 -380 191 0 190 0 -3 53 -3 52 -112 3 -113 3 0 109 0
110 95 0 96 0 -3 58 -3 57 -92 3 -93 3 0 99 0 100 110 0 110 0 0 55 0 55 -185
0 -185 0 0 -380z"/>
<path d="M3655 4541 c-11 -5 -29 -19 -40 -31 -19 -21 -20 -38 -23 -337 l-3
-314 35 -35 34 -34 131 0 c141 0 179 10 202 51 16 31 16 608 -1 648 -20 48
-61 61 -197 60 -65 0 -127 -4 -138 -8z m200 -371 l0 -265 -57 -3 c-55 -3 -56
-2 -61 25 -7 36 -7 495 0 506 2 4 30 7 61 5 l57 -3 0 -265z"/>
<path d="M4225 4541 c-11 -5 -29 -19 -40 -31 -18 -20 -20 -36 -20 -176 0 -151
0 -154 25 -179 23 -22 38 -26 120 -33 l95 -7 3 -107 3 -108 -50 0 -50 0 -3 58
-3 57 -72 3 -73 3 0 -66 c0 -36 6 -81 14 -99 24 -59 45 -66 188 -66 127 0 128
0 160 29 l33 29 3 145 c3 119 1 151 -13 177 -23 45 -74 64 -157 58 -36 -3 -70
-2 -75 1 -5 3 -6 51 -3 106 l5 100 47 3 c44 3 48 1 54 -23 3 -14 4 -42 1 -61
l-6 -34 75 0 74 0 0 65 c0 136 -39 165 -213 164 -56 0 -111 -4 -122 -8z"/>
<path d="M5914 4540 c-12 -4 -31 -21 -43 -36 -20 -26 -21 -35 -21 -331 0 -337
2 -349 62 -374 22 -9 72 -14 148 -14 95 0 121 3 144 18 39 26 56 74 56 162 l0
75 -75 0 -74 0 -3 -72 -3 -73 -48 -3 c-42 -3 -48 0 -56 21 -10 26 -14 487 -5
512 5 11 21 15 60 15 49 0 54 -2 60 -26 4 -14 4 -47 2 -75 l-5 -49 73 0 74 0
0 79 c0 102 -11 133 -59 159 -34 19 -54 22 -152 21 -63 0 -124 -4 -135 -9z"/>
<path d="M7516 4435 l7 -55 -37 0 -36 0 0 -55 c0 -54 0 -55 29 -55 l30 0 3
-211 3 -211 33 -29 c30 -27 39 -29 107 -29 l75 0 0 55 c0 54 -1 55 -28 55 -49
0 -52 10 -52 197 l0 173 39 0 c35 0 39 3 42 28 2 15 3 39 1 55 -3 24 -7 27
-43 27 l-39 0 0 55 0 55 -70 0 -70 0 6 -55z"/>
<path d="M8063 4379 c-18 -5 -39 -19 -48 -31 l-15 -22 0 27 c0 27 0 27 -70 27
l-70 0 0 -295 0 -295 70 0 70 0 0 206 c0 251 4 264 88 264 l43 0 -3 62 c-3 69
-9 74 -65 57z"/>
<path d="M4720 4085 l0 -295 70 0 70 0 0 295 0 295 -70 0 -70 0 0 -295z"/>
<path d="M5080 4367 c-52 -26 -60 -63 -60 -285 0 -287 3 -292 197 -292 205 0
205 1 201 311 l-3 221 -33 29 c-32 29 -34 29 -155 29 -77 0 -131 -5 -147 -13z
m200 -282 l0 -186 -57 3 -58 3 -3 170 c-1 93 0 175 2 182 4 8 25 13 61 13 l55
0 0 -185z"/>
<path d="M6460 4367 c-52 -26 -60 -63 -60 -280 0 -289 5 -297 192 -297 64 0
128 4 142 10 36 13 54 47 62 113 l7 57 -71 0 -71 0 -3 -32 c-3 -33 -4 -33 -60
-36 l-58 -3 0 71 0 70 130 0 130 0 0 123 c0 135 -14 181 -60 204 -16 8 -68 13
-140 13 -72 0 -124 -5 -140 -13z m200 -162 l0 -65 -60 0 -60 0 0 65 0 65 60 0
60 0 0 -65z"/>
<path d="M6950 4085 l0 -295 70 0 70 0 0 229 c0 252 1 255 62 249 l33 -3 3
-237 2 -238 70 0 c60 0 70 3 71 18 0 9 1 126 1 260 0 265 -4 282 -58 302 -40
16 -137 12 -162 -6 -20 -14 -22 -14 -22 0 0 13 -13 16 -70 16 l-70 0 0 -295z"/>
<path d="M8304 4369 c-49 -24 -54 -52 -54 -284 0 -235 5 -260 55 -283 32 -15
139 -16 166 -2 13 7 19 7 19 0 0 -6 30 -10 75 -10 l75 0 0 295 0 295 -75 0
c-45 0 -75 -4 -75 -10 0 -7 -6 -7 -19 0 -25 13 -139 12 -167 -1z m181 -284 l0
-180 -45 0 -45 0 -3 170 c-1 93 0 175 3 183 3 9 19 12 47 10 l43 -3 0 -180z"/>
</g>
</svg>
