<?xml version="1.0" standalone="no"?>
<!DOCTYPE svg PUBLIC "-//W3C//DTD SVG 20010904//EN"
 "http://www.w3.org/TR/2001/REC-SVG-20010904/DTD/svg10.dtd">
<svg version="1.0" xmlns="http://www.w3.org/2000/svg"
 width="3334.000000pt" height="3335.000000pt" viewBox="0 0 3334.000000 3335.000000"
 preserveAspectRatio="xMidYMid meet">

<g transform="translate(0.000000,3335.000000) scale(0.100000,-0.100000)"
fill="#000000" stroke="none">
<path d="M10396 22981 c-3448 -3448 -6267 -6273 -6265 -6279 8 -21 424 -373
724 -612 2989 -2377 6675 -3805 10495 -4065 791 -53 1671 -59 2420 -15 3295
195 6433 1212 9180 2977 747 480 1554 1086 2184 1638 l88 78 -6273 6273
c-3451 3451 -6276 6274 -6279 6274 -3 0 -2826 -2821 -6274 -6269z m6754 -4021
c3064 -119 5960 -943 8637 -2457 l122 -69 -42 -26 c-228 -140 -483 -292 -627
-375 -1653 -947 -3424 -1604 -5308 -1968 -101 -19 -190 -35 -199 -35 -9 0
-141 74 -292 164 -2702 1608 -5726 2609 -8861 2931 -626 64 -1210 98 -1908
111 -200 4 -357 11 -349 15 8 5 137 60 288 122 2295 954 4703 1491 7119 1586
291 12 1129 12 1420 1z"/>
<path d="M22945 10403 c-27 -19 -154 -101 -280 -182 -1408 -906 -2971 -1637
-4570 -2137 -1423 -446 -2929 -729 -4377 -825 -104 -7 -188 -15 -188 -18 0 -3
707 -713 1570 -1576 l1570 -1570 3167 3167 c1742 1742 3165 3169 3163 3171 -3
3 -27 -11 -55 -30z"/>
</g>
</svg>
