<svg viewBox="0 0 2000 2000" xmlns="http://www.w3.org/2000/svg">
  <path d="M1260.45844 1168.86781c122.76875-74.58662 167.39456-232.980247 99.09875-361.425872L1158.11731 428.5885c-70.79687-133.1495-236.12806-183.696312-369.27756-112.899437l-7.75125 4.121375c-133.149437 70.796875-183.69625 236.128062-112.899437 369.2775l59.72375 112.324187a277.352747 277.352747 0 0 1 13.80075-7.851687l7.751187-4.121375c133.1495-70.796875 298.48069-20.25 369.2775 112.899437l141.71619 266.52938v-.00007zM1000 2000C447.71525 2000 0 1552.28475 0 1000S447.71525 0 1000 0s1000 447.71525 1000 1000-447.71525 1000-1000 1000zm260.45844-831.13219a277.352335 277.352335 0 0 1-13.80069 7.85169l-7.75119 4.12138c-133.1495 70.79687-298.480685 20.25-369.27756-112.8995L727.912875 801.412125C605.144063 875.998688 560.518312 1034.39238 628.814063 1162.838l201.356687 378.69688c70.796875 133.1495 236.12806 183.69631 369.27756 112.89943l7.75125-4.12137c133.14944-70.79688 183.69625-236.12806 112.89938-369.2775l-59.6405-112.16763z" fill="#133B90" fill-rule="evenodd"/>
</svg>
