<svg viewBox="0 0 2233 2233" xmlns="http://www.w3.org/2000/svg">
  <defs>
    <linearGradient x1="0%" y1="50%" y2="50%" id="a">
      <stop stop-color="#330867" offset="0%"/>
      <stop stop-color="#1C409F" offset="100%"/>
    </linearGradient>
  </defs>
  <g fill="none" fill-rule="evenodd">
    <circle fill="url(#a)" cx="1116.5" cy="1116.5" r="1116.5"/>
    <g fill="#FFF" fill-rule="nonzero">
      <path d="M958.558732 388.27027h40.135136c159.324324 4.951317 316.286381 69.294852 432.692312 179.237655 55.66527 52.224599 102.2791 114.210364 137.19854 182.302756 4.88825 9.1953 5.70686 20.630484 1.28638 30.179451-6.59563 14.877527-24.04366 24.167141-39.90125 20.017465-10.68867-2.428502-17.86902-11.317294-25.63409-18.367027-67.64033-63.023184-143.770792-116.756756-225.608109-159.338077-165.358629-86.270794-353.989086-127.154521-539.929835-114.964852-15.155924 2.216304-31.177235-6.554599-36.416319-21.29066-7.016632-16.362922.444387-37.559272 17.073806-44.420382 75.47557-32.678688 157.079-50.26765 239.103429-53.356329z"/>
      <path d="M1575.04002 476.993145c12.9106-5.705803 28.97869-1.909793 38.07692 8.935947 57.86383 66.96066 102.23233 145.780902 129.62059 230.189059 34.03066 104.236998 41.58523 216.938392 22.80405 324.9714-22.99116 133.63839-87.84823 259.543292-183.06393 355.363059-12.46621 12.40186-34.03066 11.57664-46.40333-.49514-11.6476-10.138408-14.38409-28.198924-6.96985-41.638211 77.67412-163.982883 110.76923-348.761297 96.47869-529.790856-8.04574-104.166268-31.97245-207.012182-70.37682-304.034407-6.80613-16.952364 3.08732-37.299917 19.83368-43.50085zM938.257276 563.169628c9.098232-1.980526 19.08524-2.593546 27.575365 2.004105 16.722973 8.322927 23.879937 31.334759 14.805094 47.768414-3.625262 7.120465-10.174119 12.024626-17.097194 15.584858-141.969855 77.995022-264.714138 190.767149-356.047298 325.1836-68.341996 100.275946-119.095634 212.694409-148.869543 330.606471-2.736486 13.722221-14.47765 24.992359-28.370582 26.52491-17.869022 3.0651-37.001039-10.067678-38.989085-28.57617-9.472453-102.067851 5.192308-206.328427 42.029626-301.865257 41.608628-108.174475 111.751559-204.960921 201.120062-278.028205 87.263514-71.605468 193.027547-119.798281 303.843555-139.202726z"/>
      <path d="M606.79158 1063.84203c18.383576-5.32856 39.550416 7.332665 42.380457 26.689954 38.638255 212.788716 145.735447 411.902366 300.405406 561.715056 50.028587 48.59364 104.992203 91.9766 163.721414 129.3944 8.162681 5.06921 14.337319 13.58076 15.740643 23.24761 2.806654 16.50439-7.461019 34.44702-23.529105 39.3276-12.349273 4.05537-24.81549-1.43824-36.81393-4.12609-143.536903-37.60643-273.41476-125.55124-361.894489-245.53814-74.048858-99.23853-120.077964-219.531942-130.43919-343.314852-4.560811-53.332752-2.853431-107.231368 5.309251-160.139719 1.988046-13.1092 12.232329-24.402919 25.119543-27.255819z"/>
      <path d="M1801.98129 1307.0224c20.04418-6.130203 42.42723 10.421341 43.52651 31.264024 1.28638 14.217352-8.60707 25.440335-15.34304 36.851941-78.30561 123.429245-198.10291 219.390475-335.25468 268.007685-96.40852 34.65921-200.816004 46.68384-302.463615 34.18766-75.873181-9.21888-150.109146-31.85347-218.380976-66.44195-10.361227-5.0692-18.032746-15.60844-18.757797-27.30297-1.426714-14.5946 6.759357-29.9201 20.324843-35.67306 7.64813-3.53665 16.278587-2.80574 24.371103-1.62686 193.565489 25.01594 393.679832-7.99284 570.054572-91.83513 77.81445-36.94625 151.0447-83.724402 217.25832-139.061259 4.30353-3.701697 9.1684-6.837532 14.66476-8.370081z"/>
    </g>
  </g>
</svg>
