<svg viewBox="0 0 2000 2000" xmlns="http://www.w3.org/2000/svg">
  <path d="M518.55825 723.015688c-47.26 82.205437-74.29475 177.560937-74.29475 279.243372 0 309.4125 250.325875 560.24094 559.11825 560.24094 308.79237 0 559.11825-250.82844 559.11825-560.24094 0-309.41256-250.32575-560.240997-559.11825-560.240997-102.567875 0-198.685187 27.673625-281.320938 75.97575C696.695438 470.110937 646.4245 437.5 588.552063 437.5 505.128375 437.5 437.5 505.264125 437.5 588.855437c0 58.281688 32.875375 108.869438 81.05825 134.160251zM1000 2000C447.71525 2000 0 1552.28475 0 1000S447.71525 0 1000 0s1000 447.71525 1000 1000-447.71525 1000-1000 1000zm3.38175-722.13856c-151.905937 0-275.050062-123.39138-275.050062-275.60238 0-152.210998 123.144125-275.602435 275.050062-275.602435 151.90594 0 275.05013 123.391437 275.05013 275.602435 0 152.211-123.14413 275.60238-275.05013 275.60238z" fill="#47A3F2" fill-rule="evenodd"/>
</svg>
