<svg viewBox="0 0 1942 1941" xmlns="http://www.w3.org/2000/svg">
  <defs>
    <linearGradient x1="66.69697%" y1="108.066762%" x2="29.727273%" y2="6.436921%" id="a">
      <stop stop-color="#635BD7" offset="0%"/>
      <stop stop-color="#28D0FA" offset="100%"/>
    </linearGradient>
    <linearGradient x1="74.429224%" y1="15.316185%" x2="15.525114%" y2="109.368377%" id="b">
      <stop stop-color="#3257B3" offset="0%"/>
      <stop stop-color="#504BC1" offset="100%"/>
    </linearGradient>
  </defs>
  <g fill-rule="nonzero" fill="none">
    <path d="M1677.64706 1941.17647H265.882353c-70.299133.6277-137.93493-26.85958-187.86635-76.34913S-.002802 1747.94899 0 1677.64706V736.470588c.01874-88.218678 44.17839-170.576425 117.647059-219.411764L823.529412 46.470588c88.921028-59.797658 205.196618-59.797658 294.117648 0l705.88235 471.764706c73.2954 48.719791 117.43174 130.813373 117.64706 218.82353v941.176466c-.32436 145.31351-118.21555 262.94154-263.52941 262.94118z" fill="url(#a)" transform="translate(0 -1)"/>
    <path d="M1677.64706 1941.17647c-261.95336-16.16996-466.06999-233.43046-465.88235-495.88235-.32326-18.10608 8.5297-35.14803 23.52941-45.29412 118.37053-72.55402 174.35621-214.74686 137.22554-348.52646-37.13067-133.779612-158.3936-226.776915-297.22554-227.944128H781.176471c-35.46159-.313832-69.578722 13.553763-94.765058 38.519166-25.186335 24.965403-39.353978 58.959032-39.352589 94.42201v984.705882H1677.64706z" fill="url(#b)" transform="translate(0 -1)"/>
    <path d="M1677.64706 1940.17647c-261.95336-16.16996-466.06999-233.43046-465.88235-495.88235-.32326-18.10608 8.5297-35.14803 23.52941-45.29412 118.37053-72.55402 174.35621-214.74686 137.22554-348.52646-37.13067-133.779612-158.3936-226.776915-297.22554-227.944128H781.176471c-35.46159-.313832-69.578722 13.553763-94.765058 38.519166-25.186335 24.965403-39.353978 58.959032-39.352589 94.42201v984.705882H1677.64706z" fill="#373D60" opacity=".37"/>
  </g>
</svg>
