<svg viewBox="0 0 1990 1655" xmlns="http://www.w3.org/2000/svg">
  <g fill="#EE9828" fill-rule="nonzero">
    <ellipse cx="54.2" cy="466.44" rx="54.2" ry="101.72"/>
    <ellipse cx="54.2" cy="1168" rx="54.2" ry="101.72"/>
    <ellipse cx="360.96" cy="792" rx="63.6" ry="119.68"/>
    <path d="M1878.68 203.72L1017.68 0c-40.499344 1.176674-72.413147 34.897256-71.36 75.4v1487.12c-.291436 19.78304-7.623316 38.81472-20.68 53.68-14.12 12.8-31.84 20.92-50.72 23.32 21.79044 11.6374 46.528806 16.59064 71.12 14.24 60.12-9.92 168-37.04 168-37.04h-1.32l757.6-179c80.52-18.24 119.44-62.28 119.44-134.2V322.04c.56-69.48-30.6-100.64-111.08-118.32zm-620 1238.56c-41.32 0-74.84-63.08-74.84-140.64 0-77.56 33.52-140.64 74.88-140.64 41.32 0 74.88 63.08 74.88 140.64 0 77.6-33.6 140.64-74.88 140.64h-.04zm0-968.84c-41.32 0-74.84-63.08-74.84-140.64 0-77.6 33.52-140.64 74.88-140.64 41.32 0 74.88 63.08 74.88 140.64 0 77.56-33.6 140.64-74.88 140.64h-.04zM1825 1269.96c-30.08 0-53.68-45.6-53.68-101.68 0-56.12 24.16-101.72 53.68-101.72s53.68 45.6 53.68 101.72c0 56.08-23.36 101.68-53.68 101.68zm0-701.52c-30.08 0-53.68-45.6-53.68-101.72 0-56.08 24.16-101.72 53.68-101.72s53.68 45.6 53.68 101.72c0 56.08-23.36 101.44-53.68 101.44v.28z"/>
    <ellipse cx="725.44" cy="332.8" rx="74.6" ry="140.64"/>
    <ellipse cx="725.44" cy="1301.64" rx="74.6" ry="140.64"/>
  </g>
</svg>
