<svg viewBox="0 0 2000 1987" xmlns="http://www.w3.org/2000/svg">
  <g fill-rule="nonzero" fill="none">
    <path d="M929.041191 1930.77189c-3.115265-1.7307-7.961233-2.42298-10.730357-1.38456-2.769124 1.03842-7.615092.34614-11.076497-1.38456-5.538248-2.76913-66.112842-16.96089-82.035306-19.03773-3.807546-.34614-11.422638-2.76912-17.307027-4.84597-5.538248-2.42298-20.422291-8.30737-32.88335-13.15334-12.46106-4.84597-28.383524-11.76878-35.652475-15.57632-7.615092-3.80755-14.191762-5.88439-15.230184-4.84597-1.038421 1.03842-6.230529-1.03842-11.422637-4.84597-5.192108-3.80754-13.499481-8.30737-18.691589-10.38421l-8.999654-3.46141v-243.68293c0-150.22499 1.384562-244.72136 3.115265-246.10592 4.845967-2.76913 10.384216 8.99965 11.768778 26.65282 1.038421 8.30737 4.845967 21.11457 8.999654 28.72966 3.807546 7.61509 7.268951 16.26861 7.615091 19.03773 0 2.76913 3.115265 10.03808 6.922811 15.57633 3.461405 5.88439 8.307373 14.19176 10.730357 19.03773 9.345794 19.38387 62.305296 79.61232 69.920387 79.61232 2.076843 0 6.57667 3.11526 10.730357 7.26895 9.691935 10.03807 43.613707 30.80651 50.190377 30.80651 2.769124 0 10.384216 3.11526 16.614746 6.92281 6.230529 3.80754 13.845621 6.92281 17.307026 6.92281 3.461406 0 7.961233 1.7307 9.691935 3.4614 8.999654 8.99966 104.188301 15.23019 134.648671 8.99966 7.61509-1.38456 16.96088-3.11527 20.76843-3.46141 3.80754 0 8.65351-1.38456 10.38421-2.42298 2.07685-1.38456 8.99966-3.46141 15.57633-4.84597 6.57667-1.03842 18.34545-5.19211 25.96054-8.65351 7.61509-3.46141 17.65317-7.96123 22.49913-10.03808 18.69159-8.30737 39.46002-21.46071 43.95985-28.03738 2.76913-3.80755 6.92281-6.92281 9.69194-6.92281 4.49982 0 60.57459-57.45933 60.57459-62.65144 0-1.38456 5.53825-10.73035 12.11492-20.76843 6.57667-10.38422 12.11492-20.42229 12.11492-22.84528 0-2.42298 3.11526-10.38421 6.92281-17.30702 3.80754-7.26895 6.92281-16.26861 6.92281-20.07615 0-4.15369 1.7307-8.99966 3.80754-11.0765 2.07685-2.07684 4.49983-8.99965 5.19211-15.23018.69228-6.57667 3.11527-24.22984 5.19211-39.46002 7.26895-49.84424-4.84597-116.9955-30.80651-169.26273-12.11492-24.57597-29.42194-49.84423-37.72932-55.03634-2.42298-1.38456-4.49982-4.49983-4.49982-6.92281 0-5.19211 214.95327-220.49152 220.14538-220.49152 2.42298 0 6.23053 3.461405 9.34579 7.961232 2.76912 4.153687 9.34579 12.114919 14.19176 17.307027 37.03704 39.806161 94.49637 142.263761 112.84182 201.453791 2.42298 7.61509 5.1921 15.23018 6.23053 17.30703 1.03842 1.7307 2.42298 7.26895 3.11526 12.46105.34614 5.19211 2.76912 13.49949 4.84597 19.03773 2.07684 5.53825 4.49982 14.88405 4.84597 20.4223.69228 5.88438 3.80754 27.69124 6.57667 48.45967 11.42263 78.22776 11.07649 88.95812-3.80755 179.99308-12.46106 77.88162-43.26757 159.22464-84.45829 223.60678-9.34579 14.5379-16.96089 28.03739-16.96089 30.11423 0 2.07684-2.07684 5.19211-4.49982 6.57667-2.42299 1.38456-11.0765 11.42264-19.73001 21.80685-8.65352 10.38422-19.38387 22.84528-24.22984 27.69124-4.84597 4.84597-14.19176 14.88405-21.11457 22.49914-47.42126 52.26722-119.07235 101.41918-200.41537 137.41779-25.6144 11.42264-94.84251 33.92177-103.84216 33.92177-4.15369 0-20.07615 3.11527-35.65248 6.57667-31.84493 7.61509-159.570783 12.46106-170.301139 6.57667z" fill="#7DC242"/>
    <path d="M833.852544 1983.03911c-36.690896-4.15368-94.496365-16.61474-118.380062-24.92211-8.307373-3.11527-26.652821-8.99966-40.844583-13.15334-14.191762-4.15369-28.383524-8.99966-31.152648-10.38422-16.614746-9.3458-32.19107-13.49948-36.690897-9.69194-3.461405 2.76913-5.538248 1.73071-8.999653-3.80754-3.807546-6.57667-11.076497-10.73036-30.460367-18.69159-2.769125-1.03842-12.8072-6.57667-22.499135-12.11492-9.345794-5.53825-20.076151-10.38421-23.191416-10.38421-3.115264-.34615-7.615091-3.11527-9.345794-6.23053-2.076843-3.46141-3.807546-4.84597-3.807546-3.46141 0 1.38456-5.538248-1.38456-12.461059-6.57667-7.268951-5.88439-11.768778-7.61509-11.076497-4.49983.692281 2.76913-1.384562 4.84597-4.153687 4.84597-2.769124 0-5.192108-2.42298-5.192108-5.19211 0-4.49982-15.922464-18.34545-33.575631-29.42194-36.344756-22.84528-103.84216-76.49706-137.417792-109.38041-46.382831-45.69055-130.14884-145.03288-140.186916-165.80132-1.038421-2.76912-11.422637-20.07615-22.845275-38.07546-17.653167-28.38352-30.460367-52.61336-69.574247-133.2641-3.461405-7.61509-6.57667-15.23018-6.57667-16.61475 0-1.7307-2.076844-7.96123-4.499827-13.84562-7.268951-16.61474-16.614746-44.30599-19.73001-57.11319-1.384563-6.23052-4.153687-13.15334-5.88439-15.57632-1.730702-2.42298-3.461405-8.65351-4.153686-14.5379-.34614-5.53825-3.807546-19.73001-7.615092-30.80651-3.461405-11.42264-6.57667-24.57598-6.57667-29.42194 0-4.84597-1.730702-14.53791-3.807546-21.11458-14.537902-47.07511-17.653167-271.374175-5.192108-353.063341 5.538249-34.960194 21.114573-95.880927 38.4216-150.571132 3.115264-9.345794 6.230529-21.806853 7.26895-27.691242 1.038422-5.538249 4.153687-12.8072 6.57667-15.576324 4.153687-4.845968 10.384217-23.537556 9.345795-28.383524-.34614-1.038421 1.730703-4.153686 4.499827-6.230529 2.769124-2.422984 5.192108-6.23053 5.192108-8.307373s4.153687-11.422638 8.999654-21.114573c5.192108-9.345794 13.15334-24.922118 17.653167-34.614053 11.768778-23.537556 39.460021-70.958809 43.267567-73.035653 1.384562-1.038421 2.769124-4.845967 2.769124-8.307372 0-3.461406 2.769124-8.653514 6.23053-11.076497 3.115264-2.422984 7.615091-7.268952 9.345794-10.384216 14.537902-23.883697 37.729318-55.382486 41.883004-57.113188 2.769125-1.038422 4.845968-3.461406 4.845968-5.192108 0-1.730703 3.807546-7.615092 8.307373-12.46106 4.499827-5.192108 19.037729-21.806853 32.53721-37.037037 13.15334-15.230183 27.691243-31.498788 32.191069-36.344756 14.884043-15.576324 66.805123-61.613014 83.766009-74.420214 17.653168-13.499481 29.075805-13.499481 16.614746-.346141l-7.268951 7.961233v520.595361c.34614 286.604359-.692281 523.018349-1.730703 525.787469-1.038421 2.76913-1.384562 94.84251-1.038421 204.22292l1.038421 199.0308 9.691935 4.49983c5.538249 2.76912 10.730357 6.92281 11.768778 9.69193 1.038422 2.76913 4.153687 4.84597 6.57667 4.84597 2.769125 0 5.884389 2.42299 6.922811 5.19211 1.384562 2.76912 4.153686 5.19211 6.57667 5.19211 2.422984 0 12.114919 6.92281 21.114573 15.57632 9.345794 8.65351 19.037729 15.57633 21.460713 15.57633 4.845967 0 23.883696 11.76877 30.114226 18.69158 2.076843 2.07685 9.345794 6.57667 16.614746 9.69194 6.92281 3.4614 12.807199 7.61509 12.807199 9.69193 0 1.73071 3.115265 3.46141 6.922811 3.46141 3.461405 0 7.961232 2.07684 9.345794 4.49983 3.461406 5.53824 27.345103 19.73001 33.229492 19.73001 2.422983 0 12.807199 5.53825 23.191415 12.11492 10.384216 6.57667 21.806854 12.11491 25.6144 12.11491 3.807546 0 12.807199 4.15369 20.076151 8.99966 7.268951 5.19211 16.614745 9.69193 21.114572 10.03807 4.499827.69228 15.576324 4.84597 25.268259 9.69194 54.690204 27.69124 67.497404 33.57563 71.997231 33.57563 3.115265 0 15.922465 4.84597 28.729664 10.73036 12.461059 5.88439 26.998962 11.07649 31.844929 12.11492 4.845968.69228 14.537903 2.42298 21.114573 3.4614 6.57667 1.38456 13.845621 3.80755 16.268605 5.53825 2.422984 1.7307 5.884389 2.42298 7.961232 1.03842 1.730703-1.03842 5.538249-1.03842 7.961232.69228 2.076844 1.38456 7.268952 3.11527 11.076497 3.11527 3.807546.34614 13.153341 1.7307 20.768432 3.11526 27.345103 4.84597 35.306335 5.53825 85.842853 7.26895 36.344754 1.38456 52.613364.69228 56.074764-2.07684 2.76913-2.42298 8.99966-3.11527 15.23019-1.7307 5.88438 1.38456 12.46105 1.03842 14.88404-.69228 4.49983-2.76913 13.15334-4.15369 31.15265-4.49983 5.1921-.34614 10.38421-2.07684 11.76877-3.80755 1.03843-1.7307 4.84597-2.42298 8.30738-1.38456 3.4614 1.03842 7.26895.34614 8.30737-1.38456 1.38456-2.07684 4.49983-2.76913 6.92281-1.7307 2.76912 1.03842 5.88439.34614 7.26895-1.73071 1.03842-2.07684 7.26895-3.80754 13.84562-3.80754s12.46106-1.38456 13.49948-3.11527c1.03843-1.38456 7.96124-3.80754 14.88405-4.84597 7.26895-1.38456 18.69159-5.1921 25.26826-8.65351 6.57667-3.80754 16.96088-7.61509 23.19141-8.99965 5.88439-1.38456 12.8072-4.84597 15.23018-7.61509 2.07685-2.76913 6.57668-4.84597 9.69194-5.19211 3.11526 0 11.76878-3.80755 19.38387-8.30737 7.61509-4.49983 19.03773-10.73036 25.6144-13.49949 6.23053-3.11526 16.96089-10.03807 23.19141-15.92246 6.57668-5.53825 14.19177-10.38422 16.61475-10.38422 2.42298 0 13.84562-8.65351 25.26826-19.03773 11.76878-10.38421 21.80685-19.03772 22.49913-19.03772 3.11527 0 75.45864-73.03566 75.45864-76.15092 0-2.07685 2.42298-4.49983 5.19211-5.53825 2.76912-1.38456 5.19211-3.80755 5.19211-6.23053 0-2.07684 6.23053-10.73036 14.19176-19.38387 7.61509-8.65351 15.57632-18.69159 17.30702-22.49913 3.46141-7.96124 7.96124-14.88405 21.46072-33.92178 5.19211-7.61509 9.34579-16.61474 9.34579-19.73001 0-3.4614 3.11527-10.03807 6.92281-14.88404 3.80755-4.84597 6.92281-10.38422 6.92281-12.11492 0-2.07684 3.80755-11.0765 8.30738-20.42229 4.84596-9.34579 10.38421-23.8837 12.11492-32.88335 2.07684-8.65351 5.53824-20.07615 7.96123-25.6144 2.07684-5.53825 4.49982-11.42264 4.49982-13.49948.34614-1.7307 2.42299-7.96123 4.84597-13.84562 6.57667-16.26861 17.30703-92.07338 15.23019-109.38041-1.03843-10.03808-.34615-16.96089 2.07684-18.34545 5.19211-3.11526 5.19211-52.9595 0-56.07477-2.07684-1.38456-3.11527-7.96123-2.07684-16.61474 1.38456-13.49948-3.11527-60.22845-6.92282-71.30495-1.03842-2.76913-2.07684-10.73036-2.76912-17.30703-.69228-6.57667-3.11526-16.61474-5.19211-22.49913-2.42298-5.53825-4.84597-14.19176-5.53825-18.69159-.69228-4.49983-2.76912-10.03808-4.49982-11.76878-2.07685-2.07684-3.80755-6.92281-3.80755-11.0765 0-3.80754-3.11526-12.8072-6.92281-20.07615-3.80755-6.92281-6.92281-14.88404-6.92281-17.30702 0-6.23053-30.11423-67.49741-41.883-84.804434-5.53825-8.307373-10.03808-15.922465-10.03808-16.960887 0-1.038421-5.53825-8.653513-12.11492-16.960886-6.57667-7.961232-12.11492-16.268605-12.11492-18.345448s-3.11526-5.192108-6.92281-7.268951c-3.80754-2.076843-6.92281-5.538249-6.92281-7.961232 0-2.422984-4.49983-7.961233-10.38422-12.114919-5.53824-4.499827-10.38421-9.691935-10.38421-11.768778 0-5.538249-28.03738-33.921772-33.22949-33.921772-2.42299 0-9.69194-6.23053-16.26861-13.845622-6.57667-7.615091-13.49948-13.845621-15.57632-13.845621-2.42298 0-5.88439-3.115265-8.30737-6.922811-2.42299-3.807546-6.57667-6.92281-8.99966-6.92281-2.42298 0-5.19211-2.422984-6.23053-5.192108-2.42298-6.23053-47.07511-36.344756-53.99792-36.344756-2.76912 0-7.96123-2.769125-11.0765-6.57667-7.26895-7.961233-64.036-36.690897-66.80512-33.575632-1.38456 1.038421-5.19211-.346141-8.65351-3.807546-3.46141-3.115265-8.99966-5.884389-12.46106-6.23053-3.11527-.34614-10.38422-2.769124-16.26861-5.884389-9.34579-4.845967-25.96054-9.691935-39.80616-11.422637-2.76912-.346141-8.99965-2.422984-13.84562-4.153687-12.46106-5.192108-64.38214-15.576324-73.72793-14.884043-4.15369.346141-8.30738.346141-9.3458 0-3.80754-1.384562-133.264104-2.076843-136.379369-.34614-1.730702.692281-11.422637 1.730703-21.806853 2.422984-10.038076.34614-20.422292 2.422983-23.191416 4.499827-2.422984 2.076843-5.192108 2.769124-6.23053 1.730702-2.076843-2.076843-66.458982 14.884043-92.765662 24.575978-8.653514 3.115265-17.999308 7.961232-21.114573 10.730357-3.115265 2.769124-6.23053 4.153686-7.268951 3.115264-2.076843-2.422983-41.536864 15.576324-46.036691 20.768432-4.499827 5.538249-18.345448 8.999654-20.768432 5.192108-1.038422-1.384562-1.730703-165.109034-1.730703-363.447559 0-265.143649 1.038422-362.062998 3.807546-365.524403 2.076843-2.769124 7.615092-4.845968 12.114919-4.845968 4.153686 0 12.114918-1.730702 17.653167-4.153686 5.192108-2.076843 10.730356-4.153687 12.114919-4.153687 1.038421-.34614 3.461405-1.384562 4.845967-2.769124 1.384562-1.730702 6.922811-2.769124 12.114919-2.769124s13.499481-1.384562 18.691589-3.461405c10.038075-3.807546 19.73001-5.538249 43.959847-8.307373 8.999654-1.384562 26.998962-3.461405 39.806162-5.538249C866.389754 1.730703 930.425753 0 995.154033 0c99.688477 0 126.687437 1.038422 170.993427 6.92281 29.0758 4.153687 54.6902 8.307374 56.76704 9.691936 2.07685 1.038421 7.6151 2.769124 12.46106 3.461405 15.23019 1.730703 97.61163 26.998962 111.80339 34.267913 5.53825 2.769124 11.76878 4.153686 13.84563 3.461405 7.96123-3.115265 11.07649-2.076843 10.03807 3.115265-.69228 2.769124.34614 4.499827 1.7307 4.153686 1.38457-.34614 6.23053 1.038422 10.73036 3.461405 4.15369 2.422984 7.61509 3.461406 7.61509 2.422984 0-1.384562 5.19211 1.038422 11.76878 4.845968 6.23053 4.153686 13.49948 7.26895 15.92246 7.26895 2.76913 0 7.26896 2.076844 10.03808 4.845968 3.11527 2.769125 14.19176 8.307373 24.57598 12.8072 10.38421 4.153687 21.46071 9.691935 24.22984 12.114919 2.76912 2.076843 13.49948 8.307373 23.53755 13.499481 10.03808 5.192108 18.69159 10.730356 19.73001 12.461059 1.03842 1.384562 8.99966 6.230529 17.30703 10.384216 8.65351 4.499827 18.34545 10.730356 21.46071 14.191762 3.11527 3.461405 6.92281 6.230529 8.65352 6.230529 1.7307 0 8.65351 4.153687 14.88404 8.999654 6.57667 4.845968 13.15334 7.961232 14.88404 6.922811 3.80755-2.076843 12.11492 6.230529 8.99965 8.999654-1.03842 1.038421 11.76878 12.461059 28.72967 25.614399 26.99896 21.114573 111.80339 102.457598 111.80339 107.303565 0 4.153687 35.30634 41.190724 39.11388 41.190724 2.42299 0 3.80755 2.769124 3.11527 5.884389-.34614 2.769124 1.38456 6.230529 4.49982 7.615091 2.76913 1.038422 5.19211 4.153687 5.19211 6.576671 0 2.769124 2.07684 6.92281 4.84597 8.999653 2.76912 2.422984 8.99965 11.768779 13.84562 20.768432 4.49983 9.345795 15.57632 26.652822 24.22984 39.113881 8.65351 12.461059 17.30702 26.30668 19.38387 30.806507 2.07684 4.499827 6.57667 13.15334 10.38421 18.691589 3.80755 5.884389 8.65352 14.191762 10.73036 19.037729 15.23018 32.53721 29.42195 58.49775 36.6909 66.458983 4.84596 4.845967 7.61509 10.730356 6.57667 12.807199-1.38457 2.076844-.34614 8.653514 2.42298 14.884043 13.49948 30.460367 30.11423 79.958463 30.11423 89.650398 0 3.461406 1.38456 6.922811 2.76912 7.961233 2.42298 1.384562 7.61509 20.422291 12.46106 45.69055.69228 3.807546 3.11526 13.15334 4.84597 20.768432 5.88439 22.845275 14.5379 77.535479 17.65316 112.149533 6.23053 64.382139 2.76913 210.453439-4.84596 229.491169-1.73071 4.15369-1.03842 5.88439 2.07684 5.19211 2.76912-.69228 4.84597 1.03842 4.84597 3.46141 0 2.07684-1.38456 4.15368-3.46141 4.15368-4.49982 0-8.30737 13.84563-10.73035 36.34476-1.03843 9.69193-4.15369 25.26826-6.57667 34.61405-2.76913 9.69194-6.57667 25.96054-8.99966 36.34476-2.07684 10.38421-5.53825 20.76843-7.26895 23.19141-1.7307 2.07685-2.76912 5.88439-2.07684 8.65352.34614 2.42298-2.07685 11.42264-5.19211 20.07615-3.46141 8.99965-6.92281 18.34545-7.26895 20.76843-.69228 2.76913-3.80755 11.42264-6.92281 18.69159-3.46141 7.61509-6.57667 17.30703-6.92281 21.46071-.34614 4.49983-2.76913 10.38422-5.19211 13.15334-2.42298 2.76913-3.80755 8.65352-3.11527 13.15334.69229 5.53825-.34614 7.6151-3.80754 6.92281-4.15369-1.03842-4.15369 0-.34614 4.15369 2.42298 3.11527 3.4614 5.88439 2.07684 5.88439-1.03842.34614-3.4614.69228-5.19211 1.03842-4.15368.34614-42.22914 75.1125-40.1523 78.22776.69228 1.38456-2.42298 6.23053-6.92281 10.38422-4.84597 4.49982-8.65351 10.03807-8.65351 12.8072 0 2.42298-5.19211 11.42263-11.0765 19.73001-19.38387 26.30668-23.8837 32.88335-22.84527 34.61405.69228.69228-2.42299 5.53825-6.92282 10.03808-4.49982 4.84596-8.30737 10.73035-8.99965 13.49948-.34614 2.76912-5.53825 9.69193-11.42264 15.57632-5.88439 5.88439-10.38421 13.49948-10.38421 16.96089.34614 4.15368-1.38457 6.23053-4.84597 5.53825-3.11527-.34614-8.30737 3.11526-11.42264 7.96123-7.96123 12.11492-92.07338 103.49602-96.91935 105.22672-2.07684.69228-18.34545 14.5379-36.34475 30.46037-17.65317 15.57632-33.57564 28.72966-35.65248 28.72966-1.7307 0-2.76912 2.76913-2.07684 6.23053.69228 3.80755-1.03842 5.88439-4.84597 5.53825-3.4614-.34614-5.53825.69228-4.49983 2.07684 1.03843 1.73071.34614 3.80755-1.38456 4.84597-1.7307 1.38456-4.49982.34614-5.53825-1.38456-1.7307-2.76913-4.15368-2.42299-7.96123 1.03842-10.38421 8.65351-42.22914 30.11423-44.99827 30.11423-1.7307 0-7.26895 4.49982-12.8072 10.38421-5.19211 5.53825-11.07649 9.3458-12.8072 8.30737-1.7307-1.03842-5.53825 0-8.65351 2.42299-6.57667 5.53825-11.42264 8.30737-54.69021 30.11422-52.26722 25.96054-116.9955 52.61337-141.91761 58.15161-5.53825 1.03843-19.03773 4.84597-29.42195 8.30738-30.46037 9.69193-47.42125 13.49948-95.18865 20.76843-39.80616 6.23053-61.26687 6.92281-183.454478 6.57667-76.150917-.34614-148.494289-1.7307-160.955348-3.46141z" fill="#0075B0"/>
    <path d="M939.425407 1616.82243c-66.805123-14.5379-113.187955-39.46002-161.99377-86.88127-14.537902-14.19177-26.652821-27.69125-26.652821-29.76809 0-2.42298-2.076843-4.84597-4.499827-5.88439-2.769124-1.03842-8.999654-10.03807-14.191762-20.42229-5.192108-10.03808-12.114918-22.84528-14.884043-28.72966-11.768778-22.49914-14.884042-30.11423-14.884042-36.34476 0-3.46141-1.384563-7.26895-3.115265-8.30737-1.384562-1.03842-3.807546-9.69194-5.192108-19.03773-1.384562-9.69194-3.461406-17.99931-4.845968-19.03773-2.769124-1.7307-2.076843-97.61163.692281-114.91866 1.038422-5.53825 4.153687-14.88404 7.268952-20.76843 2.769124-5.53825 5.192108-12.8072 5.192108-16.26861 0-3.11526 1.384562-8.65351 3.115264-12.11491 1.730703-3.11527 6.922811-13.49949 11.076497-23.19142 4.499827-9.34579 16.614746-28.38352 26.652821-42.22915 9.691935-13.84562 17.999308-26.30668 17.999308-27.3451 0-3.80754 30.114227-32.53721 33.921772-32.53721 1.730703 0 4.153687-2.07684 5.192108-4.84596 1.038422-2.76913 7.615092-7.6151 14.191762-10.73036 6.922811-3.46141 15.922465-9.69194 20.422292-14.19176 4.153686-4.49983 9.345794-8.30738 11.422637-8.30738 4.153687 0 40.152302-14.88404 50.536518-20.76843 3.461405-2.07684 9.345795-3.4614 12.8072-3.4614 3.807546 0 7.961232-1.73071 8.999654-3.46141 1.384562-2.07684 3.807546-2.76912 5.538248-1.38456 1.730703 1.03842 5.538249 0 8.307373-2.07684 6.922811-5.884393 118.726204-4.845972 133.264104 1.03842 2.76913 1.03842 17.65317 6.23053 32.88335 11.42264 15.23019 5.1921 34.61406 13.15334 43.26757 17.9993 8.65351 4.84597 21.46071 11.76878 28.72966 15.57633 6.92281 3.4614 12.8072 7.96123 12.8072 9.69193 0 1.7307 1.73071 3.11527 3.80755 3.11527 5.88439 0 59.19003 56.76704 71.30495 76.15091 19.38387 30.46037 45.34441 92.07339 42.92142 101.76532-.34614 1.7307.34614 5.53825 1.73071 8.65351 4.15368 10.03808 5.1921 22.153 5.53825 62.65144.34614 42.92143-1.03843 56.76705-4.84597 60.92073-1.7307 1.38457-2.76913 7.26896-2.76913 13.15334 0 5.88439-2.42298 15.23019-5.1921 20.4223-2.76913 5.53824-6.57667 15.92246-8.65352 22.84527-1.7307 7.26895-7.96123 20.07615-13.84562 28.38352-5.53825 8.30738-10.38421 16.61475-10.38421 18.34545 0 4.49983-31.49879 41.19073-53.65179 62.99758-36.69089 35.99862-96.91935 66.80512-150.22499 77.53548-42.92142 8.30737-81.689165 8.30737-119.764623.34614z" fill="#0075B0"/>
  </g>
</svg>
