<svg xmlns="http://www.w3.org/2000/svg" viewBox="0 0 15.87 15.87"><defs><style>.cls-1{fill:#f9fcfb;}.cls-2{fill:#3db77b;}.cls-3{fill:#49b66d;}</style></defs><title>bu</title><g id="Layer_2" data-name="Layer 2"><g id="Layer_1-2" data-name="Layer 1"><path class="cls-1" d="M15.86,7.93c0,2.44,0,4.87,0,7.31,0,.47,0,.64-.59.63q-7.37,0-14.73,0c-.48,0-.54-.14-.54-.56C0,10.4,0,5.48,0,.57,0,0,.23,0,.66,0,5.53,0,10.4,0,15.27,0c.53,0,.61.14.6.63C15.84,3.06,15.86,5.5,15.86,7.93Zm-7.27,7.3L14.33,12c.45-.26.32-.69.32-1.07,0-1.92,0-3.83,0-5.75,0-1.61-.18-1.83-1.91-2.28,0,1,0,2,0,3q0,2.1,0,4.19c0,.92-.84,1.16-1.39,1.21-.72.06-.35-.73-.35-1.1,0-2.27-.13-4.56,0-6.82A2.39,2.39,0,0,0,9.4.67c-.69-.32-.82-.17-.81.5,0,1.76,0,3.51,0,5.27C8.59,9.31,8.59,12.17,8.59,15.23ZM.75,7.78c0,1.29,0,2.33,0,3.37,0,.33,0,.64.33.83l5.76,3.3c0-1.33,0-2.44,0-3.55A.72.72,0,0,0,6.44,11Zm0,0L4.37,5.66C6.93,4.21,6.93,4.21,6.83,1.28a1.15,1.15,0,0,1,0-.12C6.87.44,6.62.34,6,.71,4.47,1.62,2.91,2.5,1.36,3.39c-.36.2-.64.39-.62.9C.78,5.35.75,6.42.75,7.74ZM6.81,9.15V6.33A13,13,0,0,0,4.42,7.78Z"/><path class="cls-2" d="M8.59,15.23c0-3.06,0-5.93,0-8.79,0-1.76,0-3.51,0-5.27,0-.67.12-.83.81-.5A2.39,2.39,0,0,1,11,3.32c-.16,2.26-.07,4.55,0,6.82,0,.38-.37,1.17.35,1.1.55,0,1.39-.28,1.39-1.21q0-2.1,0-4.19c0-1,0-2,0-3,1.73.45,1.91.67,1.91,2.28,0,1.92,0,3.83,0,5.75,0,.38.13.81-.32,1.07Z"/><path class="cls-2" d="M.75,7.78,6.44,11a.72.72,0,0,1,.38.69c0,1.11,0,2.22,0,3.55L1.07,12c-.34-.19-.33-.51-.33-.83C.75,10.11.75,9.07.75,7.78Z"/><path class="cls-3" d="M.75,7.74c0-1.32,0-2.39,0-3.46,0-.5.26-.69.62-.9C2.91,2.5,4.47,1.62,6,.71c.61-.36.87-.27.82.46a1.15,1.15,0,0,0,0,.12c.11,2.93.11,2.93-2.45,4.38Z"/><path class="cls-2" d="M6.81,9.15,4.42,7.78A13,13,0,0,1,6.81,6.33Z"/></g></g></svg>