<svg viewBox="0 0 2000 2000" xmlns="http://www.w3.org/2000/svg">
  <g fill="none" fill-rule="evenodd">
    <path fill="#029EE4" d="M0 0h2000v2000H0z"/>
    <circle fill="#FFF" cx="1557.69231" cy="1413.46154" r="86.538461"/>
    <path d="M483.653846 1002.88462c0-272.115389 171.153846-506.730774 495.192308-506.730774 123.076926 0 220.192306 36.538462 323.076926 125.961539 38.46154 35.576923 42.30769 97.115384 3.84615 136.538461-38.46154 33.653846-96.15385 29.807692-129.80769-3.846154-57.69231-60.576923-117.30769-77.884615-197.115386-77.884615-217.307692 0-322.115385 153.846154-322.115385 325.961543 0 175 102.884616 335.57692 322.115385 335.57692 80.769226 0 154.807696-32.69231 220.192306-90.38462 43.26923-33.65384 104.80769-17.30769 129.80769 17.3077 22.11539 30.76923 33.65385 83.65384-15.38461 132.6923-99.03846 91.34616-217.30769 109.61539-334.615386 109.61539-341.346154 0-495.192308-232.69231-495.192308-504.80769z" fill="#FFF"/>
  </g>
</svg>
