<svg xmlns="http://www.w3.org/2000/svg" xmlns:xlink="http://www.w3.org/1999/xlink" viewBox="0 0 172.46 154.62"><defs><style>.cls-1{fill:#1e90ff;}.cls-2{fill:url(#linear-gradient);}.cls-3{fill:url(#linear-gradient-2);}.cls-4{fill:url(#linear-gradient-3);}.cls-5{fill:indigo;}.cls-6{fill:#8b008b;}</style><linearGradient id="linear-gradient" x1="29.94" y1="150.77" x2="44.55" y2="125.77" gradientTransform="matrix(1, 0, 0, -1, 0, 244)" gradientUnits="userSpaceOnUse"><stop offset="0.21" stop-color="#1e90ff"/><stop offset="1" stop-color="indigo"/></linearGradient><linearGradient id="linear-gradient-2" x1="170.05" y1="241" x2="170.07" y2="216.54" gradientTransform="matrix(-0.8, 0.47, -0.56, -0.96, 367.09, 244.64)" gradientUnits="userSpaceOnUse"><stop offset="0" stop-color="#8b008b"/><stop offset="1" stop-color="indigo"/></linearGradient><linearGradient id="linear-gradient-3" x1="267.96" y1="286.64" x2="265.62" y2="262.43" gradientTransform="matrix(0.8, 0.47, 0.56, -0.96, -231.3, 244.64)" xlink:href="#linear-gradient-2"/></defs><title>cvt</title><g id="Layer_2" data-name="Layer 2"><g id="Layer_1-2" data-name="Layer 1"><g id="Layer_2-2" data-name="Layer 2"><g id="Layer_1-2-2" data-name="Layer 1-2"><path class="cls-1" d="M41.33,51.22c5.81-9.87,15.11-15.74,23.28-15.58l3.3-5.6c5.7-9.68,3.72-21.52-4.4-26.3S44.09,3,38.38,12.65l-3.29,5.6c4.09,7.07,3.46,18-2.35,27.92S17.63,61.9,9.46,61.75l-3.3,5.6C.46,77,2.44,88.86,10.56,93.65s19.42.77,25.13-8.91L39,79.14C34.89,72.07,35.52,61.09,41.33,51.22Z"/><path class="cls-2" d="M32.76,107.93C27,98.06,17.65,92.19,9.48,92.34l-3.3-5.6c-5.7-9.68-3.72-21.51,4.4-26.29s19.42-.78,25.13,8.9L39,74.95c-4.09,7.07-3.47,18,2.35,27.92s15.11,15.74,23.28,15.59l3.3,5.6c5.7,9.68,3.72,21.51-4.4,26.29s-19.42.78-25.13-8.9l-3.29-5.6C39.18,128.78,38.55,117.8,32.76,107.93Z"/><path class="cls-3" d="M98.9,107.93c-5.81-9.87-15.11-15.74-23.28-15.59l-3.3-5.6c-5.7-9.68-3.72-21.51,4.4-26.29s19.42-.78,25.12,8.9l3.3,5.6c-4.09,7.07-3.47,18,2.35,27.92s15.11,15.74,23.28,15.59l3.3,5.6c5.7,9.68,3.72,21.51-4.4,26.29s-19.42.78-25.13-8.9l-3.29-5.6C105.34,128.78,104.76,117.8,98.9,107.93Z"/><path class="cls-4" d="M140.24,108.9C146,99,155.35,93.16,163.52,93.32l3.3-5.6c5.7-9.68,3.72-21.51-4.4-26.3s-19.42-.77-25.13,8.91L134,75.93c4.09,7.07,3.47,18-2.35,27.92s-15.11,15.74-23.28,15.58l-3.3,5.6c-5.7,9.68-3.72,21.51,4.4,26.3s19.42.77,25.13-8.91l3.29-5.6C133.76,129.75,134.43,118.77,140.24,108.9Z"/><path class="cls-1" d="M53.76,0A19.65,19.65,0,1,0,73.41,19.65h0A19.67,19.67,0,0,0,53.76,0Z"/><path class="cls-5" d="M53.76,115.32A19.65,19.65,0,1,0,73.43,135,19.65,19.65,0,0,0,53.76,115.32Z"/><path class="cls-1" d="M119.62,0a19.65,19.65,0,1,0,19.65,19.65h0A19.66,19.66,0,0,0,119.62,0Z"/><path class="cls-5" d="M119.62,115.32A19.65,19.65,0,1,0,139.27,135,19.65,19.65,0,0,0,119.62,115.32Z"/><path class="cls-6" d="M86.23,57.66a19.65,19.65,0,1,0,19.65,19.65h0A19.67,19.67,0,0,0,86.23,57.66Z"/><path class="cls-6" d="M152.82,57.66a19.65,19.65,0,1,0,19.64,19.66h0A19.67,19.67,0,0,0,152.82,57.66Z"/><path class="cls-1" d="M19.65,57.66A19.65,19.65,0,1,0,39.3,77.31h0A19.67,19.67,0,0,0,19.65,57.66Z"/></g></g></g></g></svg>