<svg viewBox="0 0 1952 1952" xmlns="http://www.w3.org/2000/svg">
  <g transform="translate(-6)" fill="none" fill-rule="evenodd">
    <circle cx="975.757576" cy="975.757576" r="939.393939"/>
    <path d="M981.818182 1951.51515c-539.39394 0-975.757576-436.36363-975.757576-975.757574C6.060606 436.363636 442.424242 0 981.818182 0c539.393938 0 975.757578 436.363636 975.757578 975.757576 0 539.393944-436.36364 975.757574-975.757578 975.757574zm0-1878.787877c-496.969697 0-903.030303 406.060606-903.030303 903.030303 0 496.969694 406.060606 903.030304 903.030303 903.030304 496.969698 0 903.030298-406.06061 903.030298-903.030304 0-496.969697-406.0606-903.030303-903.030298-903.030303z" fill="#231F20" fill-rule="nonzero" opacity=".14"/>
    <path d="M981.818182 1951.51515c-539.39394 0-975.757576-436.36363-975.757576-975.757574C6.060606 436.363636 442.424242 0 975.757576 0 1248.48485 0 1503.0303 109.090909 1690.90909 309.090909l-54.54545 54.545455C1460.60606 181.818182 1224.24242 78.787879 969.69697 78.787879c-484.848485-6.060606-890.909091 400-890.909091 896.969697 0 496.969694 406.060606 903.030304 903.030303 903.030304 248.484848 0 490.909088-103.0303 654.545458-284.84849l54.54545 54.54546c-181.81818 193.93939-442.42424 303.0303-709.090908 303.0303zm339.393938-927.27273H939.393939V436.363636h72.727271v515.151516h309.09091v72.727268z" fill="#0050FF" fill-rule="nonzero"/>
  </g>
</svg>
