<svg viewBox="0 0 2000 413" xmlns="http://www.w3.org/2000/svg">
  <path d="M904.24 206.35c-.78 104.34-107.81 170.1-200.56 127.42-37.86-17.45-66.23 40.22-27.14 58.2 174.35 80.37 353.79-98 272.94-271.43-4.441276-9.430426-13.164335-16.134741-23.42-18-25.07-4.51-46.15 21.35-35.12 45 8.547908 18.440316 13.081285 38.48602 13.3 58.81zM615.73 60c-62.61 62.27-76 155.12-40.54 231.14 4.423858 9.444433 13.15528 16.155176 23.42 18 25 4.52 46.18-21.27 35.12-45C578.56 145.61 701.87 23.17 821 78c23.68 10.86 49.85-9.83 45.28-34.92-1.888532-10.2532-8.653533-18.943596-18.13-23.29-76.45-35.26-169.8-22-232.39 40.27l-.03-.06zM2000 251c0 89.56-72.34 162-161.77 162s-162.4-72.45-162.4-162V0h64.73v251c0 86.21 104 129.57 166.52 68.94 18.18292-18.324308 28.3351-43.125553 28.22-68.94V0h64.7v251zM1204.93 0l108.83 249.78L1422.62 0h70.6l-179.45 412.41L1134.37 0h70.56zM163 0c113.54 0 205.9 92.47 205.9 206.22S276.5 412.41 163 412.41H0V0h163zm0 347.59c124.56 0 189.1-151.64 99.45-241.54-50.56-50.63-101-41.25-197.7-41.25v282.79H163z" fill="#3A3D3D" fill-rule="nonzero"/>
</svg>
