<svg viewBox="0 0 1998 1997" xmlns="http://www.w3.org/2000/svg">
  <defs>
    <linearGradient x1=".035298%" y1="4543.36895%" x2="100.032806%" y2="4543.36895%" id="a">
      <stop stop-color="#EB5E57" offset="0%"/>
      <stop stop-color="#EA5290" offset="100%"/>
    </linearGradient>
  </defs>
  <path d="M1012.63682 855.389718h-3.9801c-5.0083 0-7.99337-.995025-11.475957 0h-3.515755c-41.156953 1.754933-79.936404 19.766921-107.827529 50.082919v.995025c-14.414291 14.88618-25.326077 32.800544-31.940298 52.437811-6.268901 16.948806-9.632876 34.83394-9.950249 52.902157.389532 71.85349 49.200828 134.40063 118.80597 152.2388l7.495854 1.49254a132.105835 132.105835 0 0 0 31.940294 3.51576 150.414563 150.414563 0 0 0 29.85075-3.01825 166.102725 166.102725 0 0 0 38.44113-13.466l4.97512-2.98507c1.52571 0 2.52073-.99503 4.01327-1.99005l3.31675-2.02322 2.98507-2.48756h1.52571l3.9801-3.31675c54.67847-37.52063 79.63458-105.52659 62.20458-169.508832-17.43001-63.982245-73.43044-109.934065-139.58435-114.537605l-1.26036-.331675zm570.48092 492.703152c-89.78441 156.71642-231.54228 270.04975-405.67164 316.91542a65.93688 65.93688 0 0 1-13.49917 2.02322c-26.15599-.06643-48.25268-19.42078-51.76433-45.34006-3.51164-25.91927 12.63859-50.45547 37.83398-57.47918l2.95191-.89552c26.05067-8.90195 40.85136-36.36417 33.96352-63.01824-5.0083-22.4544-25.97015-37.94362-49.75125-37.94362a35.655074 35.655074 0 0 0-9.95025.99503l-3.51575.99502a61.194056 61.194056 0 0 1-12.96849 1.52571c-23.8263.52636-44.89459-15.38123-50.91211-38.44113-3.37551-13.42244-1.60051-27.62245 4.97513-39.801 7.41471-12.00726 18.96313-20.88975 32.47098-24.97512 66.6113-17.49697 126.7178-53.93876 173.03482-104.90879 44.89676-49.2563 75.90423-109.55431 89.85075-174.72637v-6.99834c4.01294-27.02223-14.07217-52.37656-40.92869-57.37977l-9.95025-.99502c-22.49648.25738-42.25907 14.99559-48.92206 36.48424l-1.49253 5.0083v2.98507l-.99503 1.49254c.21903 2.25935-.12274 4.53784-.99502 6.6335.00294 1.08237-.35932 2.1341-1.0282 2.98507v1.39304c-.03378.64203-.41536 1.21442-.99502 1.49253v3.01825l-.99503.99502c-31.73062 112.98483-134.7171 191.09195-252.07297 191.17745a281.360208 281.360208 0 0 1-68.391372-8.49088l-8.490879-1.99005h-4.975124c-23.295741-.06789-43.748873 15.47921-49.917081 37.94361-6.546656 26.17292 7.95449 53.01731 33.432836 61.89055a22.321163 22.321163 0 0 0 4.013267.99502c25.622648 6.66465 42.274746 31.36355 38.844698 57.61564-3.430049 26.2521-25.869025 45.84343-52.343869 45.70111a40.066135 40.066135 0 0 1-13.466004-1.49253c-100.094309-26.54324-188.459587-85.74915-251.077943-168.22554-60.868624-80.63441-94.550088-178.51971-96.185738-279.53566v-4.47761c-1.007398-28.189651-24.434738-50.363097-52.637153-49.819872-28.202415.543224-50.758501 23.602387-50.679597 51.809922 1.260365 257.08126 175.389718 483.11775 423.9801 548.95522 13.296976 3.98275 24.554218 12.92442 31.442786 24.97513 7.061116 12.01738 8.87205 26.4089 5.008292 39.80099-5.830603 22.83221-26.352366 38.84055-49.917082 38.93864-4.758664.39719-9.545284-.29472-13.996683-2.02321-173.660996-45.7876-321.668316-159.38017-410.812603-315.29022-89.850747-156.74958-114.792704-339.43615-67.893864-513.167494 5.551261-22.943758 26.145795-39.062413 49.751243-38.938641a40.895548 40.895548 0 0 1 13.996684 1.525705c27.845923 7.476956 44.525317 35.93091 37.446102 63.880597l-.995024 3.482587c-5.18927 26.76802 11.230396 52.984415 37.578772 60a43.482582 43.482582 0 0 0 13.499171 2.023218c22.264517.281714 42.108516-13.992512 48.922057-35.190714l.995024-3.980099c6.345166-22.344224 26.689785-37.808838 49.917082-37.943615a51.011606 51.011606 0 0 1 14.95854 1.492537c27.846684 8.042169 44.089504 36.939622 36.484246 64.908789-18.088991 66.428857-16.359662 136.69726 4.975124 202.15589 19.632803 63.75611 56.610374 120.79574 106.799337 164.74295v.99502l2.985074 2.02322.995025.99503c8.981353 7.05398 20.055812 10.91663 31.475954 10.97844 15.221057-.05364 29.697719-6.59227 39.800995-17.97679 15.999934-18.92181 16.416428-46.50759.995025-65.90381l-1.525705-1.49254-1.492537-1.49253c-57.293656-46.69179-92.148976-115.45124-95.941046-189.26388-3.79207-73.812646 23.833412-145.781996 76.040548-198.099308l7.993367-7.993367c12.882286-20.657221 9.993037-47.440968-6.998342-64.875621-9.803633-9.744134-23.127956-15.114531-36.94859-14.892206-12.281356.088383-24.135694 4.517605-33.466004 12.504146h-1.492537c0 .995025-1.492537 1.492537-1.99005 1.99005-14.926309 14.94573-37.391607 19.416671-56.902807 11.324536-19.511199-8.092136-32.217911-27.150426-32.185087-48.273127-.253565-13.980072 5.08319-27.483136 14.825871-37.512438 148.667399-148.017019 377.511411-179.391669 560.530681-76.849087l1.99005 1.492537h.99502l1.49254.995025c7.18131 4.489026 15.5127 6.793697 23.9801 6.633499 18.61891-.243848 35.71202-10.343178 44.90879-26.533997 6.70177-11.890312 8.36936-25.967197 4.63123-39.094254-3.73812-13.127056-12.5714-24.21366-24.53173-30.78966-84.84245-49.751243-183.18408-74.892205-282.520727-74.892205-153.764511 0-297.014926 58.905472-404.344942 166.733001-10.177114 9.803672-23.814014 15.191678-37.943616 14.991709-13.823632.187005-27.136356-5.219419-36.915423-14.991709-9.793166-9.981896-15.190704-23.463801-14.991708-37.446102-.187006-13.823633 5.219419-27.136356 14.991708-36.915423 264.520354-263.773476 692.669488-263.550876 956.915428.497512 9.78103 9.987313 15.16636 23.468556 14.95854 37.446103.29219 13.836727-5.11672 27.185114-14.95854 36.915423-20.58578 19.967761-53.31141 19.967761-73.89719 0l-2.98507-2.487562c-9.65757-8.481421-22.10607-13.09941-34.95854-12.968491-13.48834.000661-26.41846 5.385226-35.9204 14.95854-19.9005 18.971808-19.9005 49.917082-1.49254 70.878939l1.49254 1.99005c19.96776 20.585776 19.96776 53.311405 0 73.897181-9.97581 9.834654-23.47193 15.268933-37.47927 15.09121-13.82885.197198-27.1517-5.196526-36.94859-14.95854-98.07112-98.213472-243.66021-131.711847-374.792703-86.23549h-1.492537l-2.023217.995025-1.99005.995025c-25.277798 10.453694-38.051521 38.776772-29.154229 64.64345 7.714546 20.344248 27.164452 33.833911 48.922057 33.930348h8.490879l.995024-.995025h1.492538c29.299775-11.329387 60.46035-17.077782 91.873963-16.94859 57.230915.063678 112.841835 19.008698 158.208955 53.89718 44.69774 34.362443 77.23825 82.115642 92.86899 136.285241l.99502 1.99005v2.487562l1.99005 5.008292c7.34559 19.9027 26.21578 33.204204 47.42952 33.432835 4.5811.354499 9.18327-.325625 13.46601-1.990049 26.26106-7.112565 42.62937-33.232524 37.57877-59.966833l-.99503-3.018242c-7.41832-28.070157 8.99446-56.91417 36.91543-64.875622l13.49917-1.492537c23.44942 0 44.90879 14.95854 49.91708 38.441128 27.46269 100.829187 19.9005 204.643448-19.9005 301.492538-38.62564 93.04084-106.04481 171.2587-192.37147 223.18408l-2.52073 1.49254h-.79602c0 .99502-.99503.99502-.99503 1.49253h-.99502c-19.22505 12.57091-27.83605 36.32906-21.12998 58.29855 6.70608 21.96949 27.11707 36.86883 50.0852 36.56049 8.82168.17376 17.49832-2.26078 24.94196-6.99834 222.22222-129.78441 330.97844-394.32836 264.57711-641.923715-3.85388-13.389145-2.05596-27.77247 4.97513-39.800995 7.11051-12.073644 18.53745-20.999463 31.97346-24.975125 4.97513 0 8.98839-1.492537 13.466-1.492537 23.7542.272851 44.27072 16.686066 49.75125 39.800995 47.07493 173.185027 22.80099 358.010987-67.39635 513.167497h.03316zM295.190713 295.190713c-389.220564 389.485904-389.220564 1021.956887 0 1411.807627 390.348259 389.35324 1022.321727 389.35324 1412.669987 0 389.4859-389.35323 389.4859-1021.824211.26534-1411.807627-390.48093-389.220564-1022.454398-389.220564-1412.935327 0z" transform="translate(-3 -3)" fill="url(#a)" fill-rule="nonzero"/>
</svg>
