<svg viewBox="0 0 2000 2000" xmlns="http://www.w3.org/2000/svg" xmlns:xlink="http://www.w3.org/1999/xlink">
  <defs>
    <path d="M1554 778.172463v12.477907C1554 1084.10667 1316.10667 1322 1022.65037 1322H395.459688L.333682 637.621682 1104.72315.002127 1554 778.172463z" id="a"/>
    <path id="b" d="M1106.64584 319.518274V957.97163l-552.916828 319.22668L.812185 957.97163V319.518274L553.729012.291594z"/>
  </defs>
  <g fill="none" fill-rule="evenodd">
    <rect width="2000" height="2000" rx="600" fill="#711489" fill-rule="nonzero"/>
    <use fill="#7D2F8F" xlink:href="#a" transform="translate(446 678)"/>
    <path fill="#711489" fill-rule="nonzero" d="M1566.731914 679.95132v650.724353l-563.543816 325.36218-563.54382-325.36218V679.95132l563.54382-325.362177z"/>
    <g transform="translate(449.459087 366.568544)">
      <mask id="c" fill="#fff">
        <use xlink:href="#b"/>
      </mask>
      <path d="M65.954108 921.422954h977.675202L554.791711 65.210451 65.954108 921.422954zm1043.570672 38.257174H.058644L554.791711-11.950089l554.733069 971.630217z" fill="#9250A1" fill-rule="nonzero" mask="url(#c)"/>
    </g>
    <path d="M1003.188098 411.035717L488.528445 708.174606v594.277781l514.659653 297.138886 514.659656-297.138886V708.174606l-514.659656-297.138889zm552.916826 275.051101v638.453356l-552.916826 319.226679-552.916826-319.226679V686.086818l552.916826-319.22668 552.916826 319.22668z" fill="#823897" fill-rule="nonzero"/>
  </g>
</svg>
