<svg viewBox="0 0 2000 1476" xmlns="http://www.w3.org/2000/svg">
  <g fill="none" fill-rule="evenodd">
    <path d="M581.351875 453.900695C692.507581 187.352975 955.580148 0 1262.41135 0 1669.77031 0 2000 330.229688 2000 737.588652c0 407.358968-330.22969 737.588648-737.58865 737.588648-306.831202 0-569.903769-187.35297-681.059475-453.90069L0 1021.2766l283.687943-241.134756h242.341746c-.801026-14.082305-1.206994-28.270339-1.206994-42.553192 0-14.282852.405968-28.470886 1.206994-42.553191H283.687943L0 453.900709h581.351869z" fill="#10C1F9"/>
    <path d="M1276.70922 297.87234c137.98651 0 241.74433 39.347125 311.2766 118.042554 69.53226 78.695429 104.29787 189.190777 104.29787 331.489361 0 28.028509-.539 49.049576-1.61702 63.06383h-638.72341c14.01426 61.447116 42.85085 109.687768 86.51064 144.723404 43.65979 35.035637 97.29046 52.553191 160.89362 52.553191 44.1988 0 86.51043-8.354526 126.93617-25.063829 40.42573-16.709303 75.73034-40.694879 105.91489-71.957447l113.19149 118.042556c-43.12078 47.43286-95.67345 84.08497-157.65957 109.95744-61.98613 25.87247-130.70885 38.80851-206.17022 38.80851-88.3976 0-166.28335-18.32605-233.65957-54.97872-67.376224-36.65266-119.389888-88.12733-156.042554-154.42553-36.652666-66.298204-54.978723-142.566945-54.978723-228.808511s18.595558-162.779808 55.787234-229.617021c37.191675-66.837214 89.205339-118.850878 156.042553-156.042554 66.83721-37.191675 142.83645-55.787234 228-55.787234zm223.14894 371.914894c-2.15604-63.603155-23.17711-114.269315-63.06383-152-39.88673-37.730685-92.70889-56.595745-158.46809-56.595745-61.44711 0-112.92178 18.595559-154.42553 55.787234-41.50375 37.191676-67.10634 88.127337-76.80851 152.808511h452.76596z" fill="#FFF"/>
  </g>
</svg>
