<svg width="524" height="118" viewBox="0 0 524 118" version="1.1" xmlns="http://www.w3.org/2000/svg" xmlns:xlink="http://www.w3.org/1999/xlink">
<title>Logo</title>
<desc>Created using Figma</desc>
<g id="Canvas" transform="translate(4172 2301)">
<g id="Logo">
<g id="Vector">
<use xlink:href="#path0_fill" transform="translate(-4172 -2301)"/>
<use xlink:href="#path1_fill" transform="translate(-4172 -2301)"/>
<use xlink:href="#path2_fill" transform="translate(-4172 -2301)"/>
<use xlink:href="#path3_fill" transform="translate(-4172 -2301)"/>
<use xlink:href="#path4_fill" transform="translate(-4172 -2301)"/>
</g>
</g>
</g>
<defs>
<path id="path0_fill" d="M 0 1.8999L 67.5 1.8999L 57.7 19.7999L 20 19.7999L 20 49.4999L 61.8 49.4999L 61.8 67.3999L 20 67.3999L 20 98.0999L 85.4 98.0999L 69.7 116L 0 116L 0 1.8999Z"/>
<path id="path1_fill" d="M 93.3 1.8999L 111.9 1.8999L 173 80.8999L 173 1.8999L 192.7 1.8999L 192.7 116L 176 116L 113 34.8999L 113 116.1L 93.3 116.1L 93.3 1.8999Z"/>
<path id="path2_fill" d="M 205 1.8999L 247.5 1.8999C 283.4 1.8999 308.2 26.4999 308.2 58.5999L 308.2 58.9999C 308.2 91.0999 283.4 116.1 247.5 116.1L 205 116.1L 205 1.8999ZM 225 20.1999L 225 97.7999L 247.5 97.7999C 271.5 97.7999 287.1 81.6999 287.1 59.2999L 287.1 58.9999C 287.1 36.6999 271.4 20.1999 247.5 20.1999L 225 20.1999Z"/>
<path id="path3_fill" d="M 316.2 59.3L 316.2 59C 316.2 26.9 341 0 376 0C 411 0 435.5 26.6 435.5 58.7L 435.5 59C 435.5 91.1 410.7 118 375.7 118C 340.7 118 316.2 91.5 316.2 59.3ZM 414.5 59.3L 414.5 59C 414.5 36.8 398.4 18.4 375.7 18.4C 353 18.4 337.2 36.5 337.2 58.7L 337.2 59C 337.2 81.2 353.3 99.4 376 99.4C 398.7 99.4 414.5 81.5 414.5 59.3Z"/>
<path id="path4_fill" d="M 492.4 72.8999C 508.2 68.2999 519.5 57.0999 519.5 38.2999L 519.5 37.9999C 519.5 28.0999 516.1 19.5999 510 13.3999C 502.6 6.1999 491.4 1.8999 477 1.8999L 426.1 1.8999L 438.5 20.1999L 475.4 20.1999C 490.2 20.1999 499 26.8999 499 39.0999L 499 39.3999C 499 50.9999 489.6 61.1999 461.5 60.0999L 461.4 59.8999L 471.3 76.2999L 499.4 116.1L 523.2 116.1L 492.4 72.8999Z"/>
</defs>
</svg>
