<svg viewBox="0 0 2000 2000" xmlns="http://www.w3.org/2000/svg">
  <g fill="none" fill-rule="evenodd">
    <circle fill="#3C7B9E" cx="1000" cy="1000" r="1000"/>
    <path d="M1000.87855 1325.75538c-86.344495 114.00877-86.344495 226.12722 0 336.35534 86.38045-110.22812 86.37326-222.34657 0-336.35534zm0-930.729031c-198.214734 249.88923-198.214734 504.083796 0 762.669951 198.26508-258.586155 198.25069-512.787909 0-762.669951zM551.901574 1508.82923c73.074556-165.97469 226.164311-247.88391 397.119931-245.82108-216.900528-224.93409-405.297664-315.590544-565.177023-271.818421 21.246283 124.021011 107.569198 229.404741 258.918397 316.230231-174.141844-54.94875-305.158192-187.86075-392.984314-398.750386 261.28469-44.354314 467.015456 20.017301 617.19949 192.956716-136.95006-292.633531-92.357319-581.299543 133.886105-866.019558 226.26501 284.720015 270.88652 573.378839 133.93646 866.019558 150.19842-172.946603 355.9148-237.318218 617.19229-192.956716-87.82612 210.889636-218.8137 343.808826-392.96993 398.750386 151.3564-86.82549 237.65054-192.20922 258.9184-316.230231-159.88655-43.764935-348.29088 46.891511-565.18421 271.818421 170.96281-2.06283 324.03818 79.85357 397.12712 245.82108-129.18948 28.87235-235.42809 9.1138-318.67267-59.32597 90.92604 45.97152 169.43803 52.81405 235.45686 20.56356-28.92055-87.37893-156.73629-147.73271-320.21184-181.11165 93.25637 161.42497 78.07326 320.52119-45.58529 477.20958-123.62258-156.68839-138.798496-315.78461-45.556514-477.20958-163.461164 33.38612-291.291289 93.73272-320.197454 181.11165 66.018833 32.23612 144.502056 25.40796 235.456862-20.56356-83.251769 68.43977-189.483185 88.19832-318.67267 59.32597z" fill="#FFF" fill-rule="nonzero"/>
  </g>
</svg>
