<svg viewBox="0 0 1959 1792" xmlns="http://www.w3.org/2000/svg">
  <g fill-rule="nonzero" fill="none">
    <path d="M3.71831 310.211268c0-84.507043 30.985915-157.746479 90.140845-216.901409 61.971831-59.15493 132.394366-90.140845 216.901408-90.140845H1333.29577l-183.09859 321.126761H327.661972v408.450704h591.549296L727.661972 1059.50704h-400v408.45071h163.380282l-174.647888 323.94366H.901409V310.211268h2.8169z" fill="#09C5D5"/>
    <path d="M1955.83099 1484.85915c0 84.50705-30.98592 157.74648-90.14085 216.90141-61.97183 59.15493-132.39437 90.14085-216.90141 90.14085H626.253521l183.098592-323.94366h822.535207v-408.45071h-591.54929l191.54929-326.760561h400V324.295775h-163.38028L1643.15493.352113h315.49296V1484.85915h-2.8169z" fill="#161616"/>
  </g>
</svg>
