<svg viewBox="0 0 1999 1872" xmlns="http://www.w3.org/2000/svg">
  <path d="M1941.85022 888.867841h-631.71806c-30.83701 0-56.38767 25.550661-56.38767 56.387666v197.356823c0 30.83701 25.55066 56.38767 56.38767 56.38767h352.42291c-93.39207 218.5022-303.0837 368.28194-562.9956 358.59031-212.3348-7.92952-399.118941-125.11013-504.845814-296.9163h125.99119c30.837004 0 56.387665-25.55066 56.387665-56.38767v-47.57709c0-30.837-25.550661-56.38766-56.387665-56.38766H525.110132c-12.334802-44.93392-20.264317-91.62996-22.026432-140.08811-1.762114-51.101321 2.643172-99.559471 12.334802-147.136564h206.167401c30.837004 0 56.387665-25.55066 56.387665-56.387665v-47.577092c0-30.837005-25.550661-56.387666-56.387665-56.387666H570.92511c103.083701-200.881057 311.894273-338.325991 553.30396-338.325991 197.35683 0 373.56829 92.511013 487.22467 236.123348 19.38326 24.669604 57.26873 27.312776 78.4141 3.524229l152.42291-162.995594c13.21586-14.096917 14.09692-36.123348 1.76211-51.101322C1669.60352 129.396476 1405.28634-3.643172 1109.2511.762115 701.321586 7.810573 353.303965 280.938326 233.480176 653.62555H56.387666C25.55066 653.625551 0 679.176211 0 710.013216v46.696035c0 30.837005 25.55066 56.387665 56.387665 56.387665h141.85022c-4.405286 33.480177-7.048458 66.960353-7.929515 100.440529-1.762114 63.436123 3.524229 125.991185 14.096916 186.784145H56.387666C25.55066 1100.32159 0 1125.87225 0 1156.70925v47.57709c0 30.83701 25.55066 56.38767 56.387665 56.38767h191.189428c132.15859 356.82819 474.889867 610.57269 876.651977 610.57269 692.51102 0 874.00882-593.8326 874.00882-728.63437V945.255507c0-30.837005-25.55067-56.387666-56.38767-56.387666z" fill="#F3CA45" fill-rule="nonzero"/>
</svg>
