<svg viewBox="0 0 1932 1565" xmlns="http://www.w3.org/2000/svg">
  <g fill="#462F76" fill-rule="nonzero">
    <path d="M1299.82609 253.521739c-18.65492 2.595237-36.73623 8.328334-53.47826 16.956522L1218.52174 287l-39.13044 21.304348-20 10.869565 31.30435 37.391304 49.13044 58.26087c4.78261-4.347826 12.17391-10 21.73913-17.391304l33.04348-22.173913 16.52173-12.608696a122.174153 122.174153 0 0 0 15.2174-14.782609c6.02758-7.238659 10.73681-15.479821 13.91304-24.347826v-7.826087a112.608563 112.608563 0 0 0-7.3913-33.913043c-7.39131-20.434783-18.26087-29.565218-32.17392-27.826087M1001.13043 81.347826c-7.3913 8.695652-13.04347 14.782609-16.08695 17.826087l-3.91305 3.913044C993.30435 118.73913 1006.78261 137 1024.6087 157.434783l40.43478 50.434782 23.04348-26.086956a164.347753 164.347753 0 0 0 23.04347-36.086957v-6.086956a43.477731 43.477731 0 0 0 0-10.434783c-.01083-12.825628-2.52141-25.526186-7.3913-37.391304-8.5285-22.25754-30.56457-36.36062-54.34783-34.782609-4.86758-1.087016-9.91502-1.087016-14.7826 0a130.435037 130.435037 0 0 0-26.95653 16.086956l-6.52174 6.086957M1005.47826 417.434783c-5.21739 3.913043-16.08696 10.869565-32.17391 21.304347a323.043773 323.043773 0 0 1-33.913046 19.565218c41.304346 32.173913 84.347826 63.478261 130.434786 93.478261L1088.08696 537a65.217138 65.217138 0 0 1 10.86956-8.26087l-50.43478-60-40.86957-50.434782"/>
    <path d="M1493.73913 1562.21739c130.43478 10.43478 213.47826-21.30435 235.21739-39.13043 13.83831-11.90695 24.83233-26.76374 32.17391-43.47826 3.47827-7.82609 8.26087-22.6087 15.2174-43.47827a250.43429 250.43429 0 0 1 16.95652-43.47826l64.34782-139.13043a227.826036 227.826036 0 0 1 30.43479-51.73913 235.217355 235.217355 0 0 0 28.69565-50.86957 285.217524 285.217524 0 0 0 11.73913-48.69565A413.479188 413.479188 0 0 0 1932 1050.47826c0-26.95652-1.30435-53.913043-3.91304-80.869564a429.565466 429.565466 0 0 0-17.39131-81.304348c-6.08695-18.26087-11.30435-32.173913-15.21739-40.869565a223.043873 223.043873 0 0 0-14.78261-28.695653l-6.52174-7.826087-36.08695-40.869565-18.26087-24.347826-19.13044-23.913043c-23.04348-29.130435-39.13043-48.26087-47.82608-57.391305a270.869686 270.869686 0 0 0-22.17392-26.956521c-12.59327-13.236204-29.29742-21.818152-47.3913-24.347826A369.565218 369.565218 0 0 1 1596.34783 597c-12.0017-5.90657-22.88774-13.850436-32.17392-23.478261a73.04291 73.04291 0 0 1-7.82608-9.130435v11.739131c0 4.347826 3.04347 28.695652 6.52174 55.652174L1582 616.130435a320.434977 320.434977 0 0 1-20.43478 29.130435V657c11.91571 5.62763 22.56542 13.614908 31.30435 23.478261 9.44278 10.073876 17.08965 21.691238 22.60869 34.347826 4.21711 8.255574 6.73072 17.275001 7.39131 26.521739v17.826087c-2.21814 34.218972-10.4606 67.777559-24.34783 99.130435l-9.13044 22.173913v43.478261a313.043785 313.043785 0 0 0 6.08696 66.521739c1.88801 11.905509 6.50067 23.213979 13.47826 33.043479 5.65218 6.95652 22.17391 8.69565 49.56522 6.08696 27.3913-2.6087 43.47826-8.26087 49.13043-16.52174 6.35883-10.8131 10.4975-22.785689 12.17392-35.217395a494.34838 494.34838 0 0 0 6.95652-75.652174c0-43.478261 0-77.391304 2.60869-104.782608v-92.608696c-2.60869-22.608696-3.91304-32.608696-3.91304-30.434783 0-5.652174 2.6087-2.608695 7.39131 8.695653 4.43288 9.409463 6.94561 19.608184 7.3913 30v35.217391a126.087211 126.087211 0 0 0 8.26087-12.608696c1.61482-8.921297 4.8572-17.469375 9.56522-25.217391-2.24593 19.315468-8.78218 37.88438-19.13044 54.347826v19.130435l36.52174-33.043479a83.043316 83.043316 0 0 1-13.04348 23.478261c-9.56521 13.478261-17.82608 21.304348-25.21739 22.173913v170.869566c-.0955 15.153276-3.82288 30.062777-10.86956 43.478257l13.47826 11.30435a359.563736 359.563736 0 0 0 31.73913 24.34783 350.868768 350.868768 0 0 0 40 26.08695c-25.49508-4.3207-49.70581-14.27235-70.86957-29.13043l-19.56522-18.69565a120.434453 120.434453 0 0 1-17.3913 15.65217 63.912479 63.912479 0 0 1-16.08696 10.43478l3.91305 3.91305c14.93197 18.34376 26.95636 38.8732 35.65217 60.86956a222.173845 222.173845 0 0 1 12.6087 40.86957 205.217348 205.217348 0 0 1 5.65217 43.47826v9.56522a49.130816 49.130816 0 0 0 0 11.30434c0-3.04347-4.34783-17.3913-10.43478-43.47826-3.47826-14.78261-7.82609-29.13043-12.6087-43.47826a267.390903 267.390903 0 0 0-30-56.08695l-16.08695-23.47827h-16.95653c-34.7826 0-56.52173-22.60869-65.65217-67.826083v-6.086956l-20.86956-14.347826-14.34783-10.434783c-6.52174 10-16.08696 23.478261-27.82609 39.565218l-14.34782 18.69565c2.26503 3.97505 3.46326 8.46842 3.47826 13.04348v28.26087a353.04399 353.04399 0 0 1-11.30435 90.43478c-9.96059 34.90399-29.19277 66.45678-55.65217 91.30435 0 0 5.65217-13.04348 17.3913-36.08696a539.12959 539.12959 0 0 0 26.95652-55.65217 185.217516 185.217516 0 0 0 6.95652-43.47826c0-19.56522 2.6087-36.08696 2.6087-48.69565v-26.52174l-9.13044 13.91304a307.390954 307.390954 0 0 0-20.86956 47.39131 283.478922 283.478922 0 0 1-20.43478 47.3913c7.34897-40.42345 23.53111-78.72613 47.3913-112.17391 16.52174-28.260873 36.95652-61.739134 61.73913-100.000003A799.564607 799.564607 0 0 0 1608.95652 817a285.216448 285.216448 0 0 0 15.21739-53.043478c2.17399-12.660979 2.17399-25.599891 0-38.26087a89.565016 89.565016 0 0 0-8.69565-23.478261c-15.09177-25.37267-41.71735-41.678852-71.17713-43.590696-29.45979-1.911844-57.96959 10.81623-76.21417 34.025479A150.000266 150.000266 0 0 0 1448.52174 717l-10.86957 15.217391s-7.3913 11.739131-17.82608 30.434783a376.08685 376.08685 0 0 0-23.04348 43.478261c-14.34783 35.217391-24.34783 60.869565-30.43478 74.782608-10.86957 25.217392-23.47826 50-36.95653 74.347827a75.652169 75.652169 0 0 1-21.30434 8.695652l-33.47826 9.130435H1272a126.95645 126.95645 0 0 1 33.91304-20c7.59575-4.727707 16.27962-7.422702 25.21739-7.826087 3.91305-15.217392 14.34783-43.478261 31.30435-86.956522-.44371-2.619144.55221-5.274953 2.6087-6.956522L1352 843.521739a123.912975 123.912975 0 0 0-19.56522-10.869565 160.434843 160.434843 0 0 0-24.34782-8.26087 256.956497 256.956497 0 0 0-51.73913-3.913043h-23.47826l-23.47827-5.652174a93.478215 93.478215 0 0 1-19.56521-6.086957c7.20052-.418008 14.41742.465693 21.30434 2.608696l22.17392 4.347826h54.34782c19.89242.330456 39.58752 4.004915 58.26087 10.869565 9.97334 2.525596 19.30515 7.117438 27.39131 13.478261l18.26087-43.478261a101.738796 101.738796 0 0 1-16.08696-17.391304l-22.17391-27.391304a214.348412 214.348412 0 0 0-33.04348-23.043479l-43.91304-26.521739c15.51422.812864 30.52739 5.76721 43.47826 14.347826a267.825825 267.825825 0 0 1 40.86956 25.652174 242.608196 242.608196 0 0 1 25.21739 26.521739l10.43479 12.608696a225.651827 225.651827 0 0 1 15.21739-28.695652c0-3.043478 5.65217-8.695652 10-16.521739a247.825873 247.825873 0 0 1-16.08696-30c-13.91304-31.739131-23.04348-52.608696-27.82609-62.608696-12.60869-26.956522-20.43478-43.478261-23.91304-53.913043a326.087484 326.087484 0 0 1-12.6087-49.130435v-10l-4.34782-2.608696h-6.08696l-3.47826-3.478261a365.651832 365.651832 0 0 1-60.86956-57.826087l-75.2174-86.956521c-13.47826-15.217392-30.43478-36.086957-51.73913-62.173913-21.30434-26.086957-40.86956-50.434783-50.86956-62.173913-10-11.739131-29.56522-40.869566-57.39131-74.347827L962 90.478261a567.8261 567.8261 0 0 0-63.913043-69.130435C888.363258 9.730293 874.468703 2.39272 859.391304.913043A103.04348 103.04348 0 0 0 832.434783 7c-8.650806 4.383423-16.11016 10.798468-21.739131 18.695652a66.521736 66.521736 0 0 0-8.260869 13.043478l-2.608696 6.52174c-2.559426 7.996964-3.591867 16.403982-3.043478 24.782608 0 23.478261 26.956521 74.347826 81.304348 151.739131 27.391304 39.565217 57.391304 80 89.565217 122.173913a923.043387 923.043387 0 0 0 109.565216 136.956521l54.34783 61.739131c21.07515 21.396191 38.54754 46.063094 51.73913 73.043478 2.60869 0 8.69565-4.347826 18.69565-13.043478a112.608596 112.608596 0 0 1 21.73913-16.086957c0 3.478261-5.65217 10.434783-17.3913 21.304348-7.78485 8.590058-18.1695 14.393242-29.56522 16.521739a73.478155 73.478155 0 0 1-16.95652-3.478261 60.000249 60.000249 0 0 1-10.43479-6.086956 173.912822 173.912822 0 0 0-23.47826-16.086957l-30.43478-17.826087A895.217975 895.217975 0 0 1 1011.13043 527c-31.73913-23.913043-70.86956-54.782609-116.956517-92.608696l-52.608696-41.304347A698.695659 698.695659 0 0 1 782 344.826087c-14.782609-14.782609-31.304348-33.913044-43.478261-47.391304-16.554075-21.869953-40.243677-37.252812-66.956522-43.478261-22.715007-2.355434-45.310659 5.441657-61.73913 21.304348l-5.217391 6.956521c-4.14415 7.261738-6.106591 15.564373-5.652174 23.913044 5.487166 34.431358 23.8198 65.503618 51.304348 86.956522l46.521739 43.47826a586.08732 586.08732 0 0 1 43.478261 43.478261 1665.217252 1665.217252 0 0 0 130.434782 123.478261C902 632.217391 931.130435 657.434783 957.652174 678.304348l43.478256 33.043478a618.695301 618.695301 0 0 1 66.52174 60c21.73913 23.913044 50.43479 58.695652 86.95653 106.086957a529.565705 529.565705 0 0 1 58.69565 105.217391 695.652008 695.652008 0 0 0 45.65217 89.565216l3.47826 3.04348c1.27543-13.81173 5.58053-27.17236 12.6087-39.13044 14.78261-20.43478 28.26087-40.86956 40-59.565213-.86587 5.804056-3.10144 11.318481-6.52174 16.086957l-14.34783 21.739126c-12.69942 18.81915-19.92428 40.79475-20.86956 63.47827 2.53555 37.09127 17.90861 72.14183 43.47826 99.13043 34.56649 40.98636 77.18721 74.43178 125.21739 98.26087-32.81646-7.36908-63.47549-22.25211-89.56522-43.47826l-8.69565 8.26087c-13.04348 11.73913-22.6087 20.43478-28.26087 26.52174-23.9103 23.23397-39.23726 53.8879-43.47826 86.95652-6.83324 37.35377-.04567 75.91953 19.13043 108.69565 37.82609 56.52174 162.17392 100 202.6087 100m13.04348-350l20.43478-29.13043a280.86857 280.86857 0 0 0 12.17391-31.73913 217.390926 217.390926 0 0 1 8.69566-29.13044v15.21739c-2.03161 21.34933-8.39295 42.06065-18.69566 60.86957-14.34782 29.56522-28.69565 45.65217-43.47826 48.26087 3.03566-11.8238 8.68109-22.81754 16.52174-32.17392m115.21739 126.08696a94.78259 94.78259 0 0 1-29.13043 4.34783c-34.98603-1.38493-69.19171-10.75431-100-27.39131-30.86957-15.21739-35.21739-24.78261-31.30435-23.04348l16.08696 8.69566a151.304608 151.304608 0 0 0 20.86956 9.13043c14.34783 4.78261 28.69566 9.13044 43.47826 12.6087 24.94425 6.55203 50.85537 8.61314 76.52174 6.08695h15.21739c-3.66349 3.51285-8.14735 6.0537-13.04347 7.39131"/>
    <path d="M858.956522 216.565217L812 263.521739l-48.26087 47.391304 2.608696 3.043479a140.869536 140.869536 0 0 0 24.347826 23.913043c20 15.652174 40.434783 31.739131 60.869565 48.695652l33.478261 27.391305 33.913044-43.478261a274.3478 274.3478 0 0 1 28.695652-30.869565C939.391304 327.869565 924.608696 307 904.173913 277l-43.478261-60.869565M1383.73913 645.26087a170.43452 170.43452 0 0 0 12.6087 23.043478l18.26087 28.260869a130.434148 130.434148 0 0 1 9.13043 17.391305 151.304202 151.304202 0 0 1 14.78261-22.173913c18.05074-22.062538 43.02299-37.382932 70.86956-43.478261 15.40675-3.919957 31.54978-3.919957 46.95653 0 0-9.130435 0-28.26087-5.2174-57.826087-5.21739-29.565218-5.65217-54.347826-7.3913-66.956522-4.37684-35.830914-22.25961-68.641907-50-91.73913-19.22864-18.970781-45.16224-29.594183-72.17391-29.565218-20.58972.323779-40.71319 6.180608-58.26087 16.956522L1352 427.434783c-7.3913 10-7.82609 13.913043-7.82609 14.347826v2.608695a113.913484 113.913484 0 0 0 0 24.347826c.00823 28.475227 4.40776 56.77888 13.04348 83.913044a807.826156 807.826156 0 0 0 32.6087 86.956522M1563.30435 944.391304l12.60869 7.826087a130.433858 130.433858 0 0 1 15.21739 11.739131v-19.565218a217.390604 217.390604 0 0 1-16.08695-18.695652l-10.43478 18.695652M5.47826 1368.30435a43.478228 43.478228 0 0 0 3.04348 10v6.52174s5.21739 14.34782 8.260869 23.91304c-.285986 2.73068.67204 5.44509 2.608695 7.3913 8.589532 17.55589 20.21811 33.45319 34.347826 46.95653l6.52174 5.65217c55.911302 30.01422 118.283368 45.98027 181.73913 46.52174h35.652174c41.2243-7.08992 79.216145-26.84568 108.695652-56.52174 6.943598-9.09623 12.106564-19.42216 15.217391-30.43478a232.608848 232.608848 0 0 0 5.217392-40 176.956022 176.956022 0 0 1-18.695652 17.3913c-.435898-1.4165-.435898-2.93132 0-4.34782.390833-7.7544 3.464773-15.13186 8.695652-20.86957 7.291898-9.41581 17.834432-15.77233 29.565217-17.82609 66.569852-13.32011 130.957691-35.85585 191.304348-66.95652a247.825929 247.825929 0 0 0 46.956522-37.82608c63.478261-65.2174 111.73913-113.47827 143.478261-145.2174 0 0 67.826086-86.95652 76.086956-99.56521l16.521739-28.695656A104.7826 104.7826 0 0 0 911.130435 957a61.739127 61.739127 0 0 1 3.043478-13.913043 79.130401 79.130401 0 0 0 0-14.347827c-26.046196 7.37566-50.821362 18.663753-73.478261 33.478261-19.866388 12.690963-37.252177 28.898055-51.304348 47.826089.694396-7.32741 3.237595-14.358613 7.391305-20.434784 6.557935-13.042981 15.561866-24.70381 26.521739-34.347826 13.099608-10.169036 27.790493-18.102114 43.478261-23.478261 11.73913-4.347826 30-10.869566 55.652174-18.695652 29.313353-8.035324 56.290187-22.939654 78.695647-43.478261 14.63936-11.890714 25.01597-28.218626 29.56522-46.521739v-18.695653A74.782804 74.782804 0 0 0 1024.6087 787l-9.13044-19.565217c-7.76047-13.412639-18.64974-24.749405-31.73913-33.043479a43.47828 43.47828 0 0 0-14.782608 0 102.608686 102.608686 0 0 0-32.608696 5.217392l-7.826087-3.478261a161.739107 161.739107 0 0 1-32.608696-7.391305L872 720.478261c-12.30418 5.576986-23.052896 14.086386-31.304348 24.782609a186.95652 186.95652 0 0 1-23.913043 25.217391 110.869574 110.869574 0 0 1 19.565217-29.565218 902.608825 902.608825 0 0 1 92.173913-72.608695l-15.217391-11.739131c-20.434783-15.652174-43.478261-35.217391-70.869565-59.130434l-37.826087-35.217392-17.391305 12.608696c-11.304348 8.26087-22.173913 15.217391-33.478261 22.608696-23.63308 16.601688-50.662289 27.740099-79.130434 32.608695a211.739128 211.739128 0 0 1-33.043479-6.521739 114.347818 114.347818 0 0 1-33.913043-13.043478l21.73913 6.086956a209.130314 209.130314 0 0 0 28.695653 5.652174c18.493966-.267197 36.665278-4.884497 53.043478-13.478261l14.782608-8.260869a79.565238 79.565238 0 0 1 11.304348-15.652174l19.130435-23.478261a212.608845 212.608845 0 0 1 19.565217-20 593.043589 593.043589 0 0 1-43.47826-47.391304 586.087128 586.087128 0 0 0-43.478261-43.478261l-25.217392-22.608696c-10 12.608696-28.260869 33.478261-53.913043 63.913044a322.173931 322.173931 0 0 1-43.478261 43.478261c-67.391304 58.695652-113.913043 99.130434-139.565217 120.869565-40.295472 35.225386-74.392377 76.9647-100.869566 123.478261-8.260869 13.478261-27.826086 39.130434-43.47826 64.347826a565.217442 565.217442 0 0 1-49.565218 60.434782c-10 10.434783-29.565217 30.434783-58.695652 58.695653A796.087182 796.087182 0 0 0 63.304348 1090.91304c-26.089766 38.22145-43.456304 81.71201-50.869565 127.39131-2.608696 15.21739-4.78261 36.95652-7.826087 64.34782l-3.913044 40v24.78261l4.782609 20.86957zm763.478262-274.34783c10.869565-4.78261 16.086956-5.21739 16.086956 0s-3.478261 6.08696-9.565217 8.69565a78.260843 78.260843 0 0 1-22.173913 3.91305l15.652174-12.6087zm-65.652174-60a273.476957 273.476957 0 0 0 26.956522-7.3913c0 3.47826-3.913044 7.3913-11.304348 10.86956a136.086902 136.086902 0 0 1-38.695652 5.65218c-.774238.01084-1.513283-.32282-2.0172-.91073-.503917-.5879-.720624-1.36928-.591496-2.13275a137.825956 137.825956 0 0 0 25.652174-6.08696zm-60.434783-173.913042c0 3.043479-5.217391 7.391305-15.217391 13.913044-11.699576 7.006481-25.058986 10.759124-38.695652 10.869565a66.956517 66.956517 0 0 1-18.695652-2.608696c-7.391305-2.173913-10.869566-4.782608-10.869566-6.956521 21.975622 2.124344 44.145052-.851418 64.782609-8.695653a150.434834 150.434834 0 0 1 18.695652-6.956521v.434782zM1590.69565 912.217391v-21.304348c-4.34782 9.565218-8.69565 18.695653-13.47826 27.391305l5.65218 4.782609 6.95652 6.521739v-17.391305"/>
  </g>
</svg>
