<?xml version="1.0" encoding="utf-8"?>
<!-- Generator: Adobe Illustrator 24.2.1, SVG Export Plug-In . SVG Version: 6.00 Build 0)  -->
<svg version="1.1" id="Layer_1" xmlns="http://www.w3.org/2000/svg" xmlns:xlink="http://www.w3.org/1999/xlink" x="0px" y="0px"
	 viewBox="0 0 144 144" style="enable-background:new 0 0 144 144;" xml:space="preserve">
<style type="text/css">
	.st0{fill:#030538;}
	.st1{fill:#1D94FF;}
	.st2{fill:#FFFFFF;}
	.st3{fill:#1D94FF;fill-opacity:0;}
</style>
<circle class="st0" cx="72.1" cy="72.2" r="70.1"/>
<circle class="st1" cx="72" cy="72" r="11.6"/>
<circle class="st2" cx="72" cy="37.3" r="11.6"/>
<circle class="st2" cx="41.1" cy="89.5" r="11.6"/>
<circle class="st2" cx="102.9" cy="89.5" r="11.6"/>
<circle class="st3" cx="72" cy="106.8" r="11.6"/>
<path class="st2" d="M72,112.2c-22.1,0-40.2-18-40.2-40.2s18-40.2,40.2-40.2s40.2,18,40.2,40.2S94.1,112.2,72,112.2z M72,40.7
	c-17.3,0-31.3,14-31.3,31.3s14,31.3,31.3,31.3s31.3-14,31.3-31.3S89.3,40.7,72,40.7z"/>
</svg>
