<svg id="Logo_v6_6_pt_Icon_Logo_for_Wallets_v4" data-name="Logo v6 (6 pt)  Icon Logo for Wallets v4" xmlns="http://www.w3.org/2000/svg" xmlns:xlink="http://www.w3.org/1999/xlink" viewBox="0 0 254.05 281.06">
  <defs>
    <style>
      .cls-1 {
        fill: url(#radial-gradient);
      }

      .cls-2 {
        fill: url(#linear-gradient);
      }

      .cls-3 {
        fill: url(#linear-gradient-2);
      }

      .cls-4 {
        fill: url(#radial-gradient-2);
      }

      .cls-5 {
        fill: none;
        stroke-width: 6px;
        stroke: url(#radial-gradient-3);
      }

      .cls-6 {
        stroke-width: 0.25px;
        fill: url(#radial-gradient-4);
        stroke: url(#Radial_latón);
      }
    </style>
    <radialGradient id="radial-gradient" cx="133.51" cy="148.73" r="131.23" gradientUnits="userSpaceOnUse">
      <stop offset="0" stop-color="#0076c0"/>
      <stop offset="0.15" stop-color="#0068b1"/>
      <stop offset="0.43" stop-color="#00478d"/>
      <stop offset="0.72" stop-color="#1e1a6a"/>
      <stop offset="0.75" stop-color="#211566"/>
    </radialGradient>
    <linearGradient id="linear-gradient" x1="319.1" y1="21.45" x2="441.34" y2="21.45" gradientTransform="translate(450.83 170.18) rotate(180)" gradientUnits="userSpaceOnUse">
      <stop offset="0" stop-color="#0076c0"/>
      <stop offset="0.18" stop-color="#0567b2"/>
      <stop offset="0.51" stop-color="#12418f"/>
      <stop offset="0.84" stop-color="#211566"/>
    </linearGradient>
    <linearGradient id="linear-gradient-2" x1="290.49" y1="21.45" x2="412.74" y2="21.45" gradientTransform="matrix(1, 0, 0, -1, -155.6, 170.18)" xlink:href="#linear-gradient"/>
    <radialGradient id="radial-gradient-2" cx="299.32" cy="180.99" r="111.56" gradientTransform="matrix(-1, 0, 0, 1.03, 432.83, -2.48)" gradientUnits="userSpaceOnUse">
      <stop offset="0.15" stop-color="#f4e8d9"/>
      <stop offset="0.27" stop-color="#edd089"/>
      <stop offset="0.38" stop-color="#d3a351"/>
      <stop offset="0.46" stop-color="#c08329"/>
    </radialGradient>
    <radialGradient id="radial-gradient-3" cx="130.52" cy="148.92" r="136.29" gradientTransform="translate(-0.46 -6.47) scale(0.98 0.99)" gradientUnits="userSpaceOnUse">
      <stop offset="0" stop-color="#f4e8d9"/>
      <stop offset="0.47" stop-color="#edd18d"/>
      <stop offset="0.89" stop-color="#edd089"/>
      <stop offset="0.89" stop-color="#ecce87"/>
      <stop offset="0.92" stop-color="#d7a959"/>
      <stop offset="0.96" stop-color="#c78e38"/>
      <stop offset="0.98" stop-color="#bd7d23"/>
      <stop offset="1" stop-color="#ba771c"/>
    </radialGradient>
    <radialGradient id="radial-gradient-4" cx="188.7" cy="99.92" r="23.42" gradientTransform="translate(5.4 38.51) scale(0.64 0.63)" gradientUnits="userSpaceOnUse">
      <stop offset="0.18" stop-color="#f4e8d9"/>
      <stop offset="0.75" stop-color="#edd089"/>
      <stop offset="0.8" stop-color="#ebcd85"/>
      <stop offset="0.85" stop-color="#e5c379"/>
      <stop offset="0.9" stop-color="#dcb264"/>
      <stop offset="0.96" stop-color="#ce9b48"/>
      <stop offset="1" stop-color="#c08329"/>
    </radialGradient>
    <radialGradient id="Radial_latón" data-name="Radial latón" cx="188.7" cy="99.92" r="23.54" gradientTransform="translate(5.4 38.51) scale(0.64 0.63)" gradientUnits="userSpaceOnUse">
      <stop offset="0.18" stop-color="#f4e8d9"/>
      <stop offset="0.59" stop-color="#edd089"/>
      <stop offset="1" stop-color="#c08329"/>
    </radialGradient>
  </defs>
  <title># Jobchain152 Logo</title>
  <path class="cls-1" d="M8.47,80.31V217.15a.29.29,0,0,0,.15.25l124.75,68.43a.28.28,0,0,0,.28,0L258.4,217.4a.29.29,0,0,0,.14-.25V80.31a.29.29,0,0,0-.14-.25L133.65,11.63a.28.28,0,0,0-.28,0L8.62,80.06A.29.29,0,0,0,8.47,80.31Z" transform="translate(-6.49 -8.2)"/>
  <path class="cls-2" d="M9.49,217.91l122.24-69.62L9.49,79.55Z" transform="translate(-6.49 -8.2)"/>
  <path class="cls-3" d="M257.13,217.91,134.89,148.29,257.13,79.55Z" transform="translate(-6.49 -8.2)"/>
  <path id="Ambas" class="cls-4" d="M133.51,285.77c-1.93-1.93,8.22-93.54-51.64-153.35C52.36,102.94,11.72,80.18,11.53,80.51S32.74,91.77,126,144.77a15.33,15.33,0,0,0,15.1,0c93.22-53,114.59-64,114.43-64.26s-40.83,22.43-70.34,51.91C125.29,192.23,135.44,283.84,133.51,285.77Z" transform="translate(-6.49 -8.2)"/>
  <polygon class="cls-5" points="3 71.98 3 209.08 127.03 277.63 251.05 209.08 251.05 71.98 127.03 3.43 3 71.98"/>
  <ellipse class="cls-6" cx="127.02" cy="101.15" rx="15.09" ry="14.68"/>
</svg>
