<svg viewBox="0 0 2000 2000" xmlns="http://www.w3.org/2000/svg">
  <defs>
    <linearGradient x1="50%" y1="100%" x2="50%" y2="0%" id="a">
      <stop stop-color="#0091E6" offset="0%"/>
      <stop stop-color="#00D9FA" offset="100%"/>
    </linearGradient>
  </defs>
  <g fill="none" fill-rule="evenodd">
    <path fill="url(#a)" d="M0 0h2000v2000H0z"/>
    <path d="M658.357225 1055.401959l-107.932856-55.205895-127.538797-711.63885 515.760803 424.101887 40.486059 208.893404 74.824188-20.028026 34.088925 60.822035 130.749888-97.498148 681.702077-49.175363-565.084057 492.778221-117.892172-28.121782 22.039701 60.438232-143.067429 390.57561-140.713514-430.96224-71.338213 29.64342-38.950847-66.027737-362.329602 236.341247 110.058812-414.334789 65.137034-30.601226zM534.59256 479.235784l84.272896 470.224496 212.820043 108.85398-173.838568 81.668951-49.888652 187.814163 262.699277-171.354129 45.787399 77.616759 86.261638-35.844613 97.929173 299.926953 57.667639-157.43327-61.104348-167.563019 217.688459 51.927013 363.312766-316.824759-431.672614 31.1392-182.549477 136.124292-47.586777-84.905129-96.602199 25.857297-50.834478-262.287496L534.59256 479.235784z" fill="#FFF" fill-rule="nonzero"/>
  </g>
</svg>
