<svg xmlns="http://www.w3.org/2000/svg" viewBox="0 0 827.71 978.2"><defs><style>.cls-1{fill:#001a3e;}</style></defs><title>lsk</title><g id="Layer_2" data-name="Layer 2"><g id="Layer_1-2" data-name="Layer 1"><path class="cls-1" d="M323.26,976,450.91,832.62c2.15-2.15.72-5.74-2.87-5.74H307.48a5.44,5.44,0,0,1-2.87-1.43l-119-133.39c-.72-1.43-1.43-2.87-.72-4.3L384.22,345.67c.72-1.43.72-2.87,0-3.59l-82.47-142a4,4,0,0,0-6.45,0L.54,706.4a4.57,4.57,0,0,0,0,4.3L237.2,976.76a3.73,3.73,0,0,0,2.87,1.43h80.32c.72-.72,2.15-1.43,2.87-2.15Z"/><path class="cls-1" d="M410.75,2.15l-83.19,142c-.72,1.43-.72,2.87,0,3.59l86.06,147.73L641.67,687a3.38,3.38,0,0,1-.72,4.3L520.47,826.16,392.1,971c-2.15,2.15-.72,5.74,2.87,5.74h192.2a5.44,5.44,0,0,0,2.87-1.43L826.7,709.27c.72-1.43,1.43-2.87.72-4.3L416.49,2.15c-.72-2.87-4.3-2.87-5.74,0Z"/></g></g></svg>