<svg viewBox="0 0 1995 1916" xmlns="http://www.w3.org/2000/svg">
  <g fill="#8500FF" fill-rule="nonzero">
    <path d="M216.463415 509.195122h997.756095c149.31708 0 270.80488 121.487805 270.80488 270.804878s-121.4878 270.80488-270.80488 270.80488H674.341463c-42.512195 0-77.097561 34.58536-77.097561 77.09756 0 42.51219 34.585366 77.09756 77.097561 77.09756h539.853657c234.34147 0 425-190.63415 425-425 0-234.365854-190.65853-425-425-425H216.463415c-42.512195 0-77.097561 34.585366-77.097561 77.097561s34.585366 77.097561 77.097561 77.097561z"/>
    <path d="M1214.21951 0H827.268293c-42.512195 0-77.097561 34.585366-77.097561 77.097561s34.585366 77.097561 77.097561 77.097561h386.951217c345.07317 0 625.80488 280.731707 625.80488 625.829268 0 345.04878-280.73171 625.80488-625.80488 625.80488H231.219512c-42.512195 0-77.097561 34.58536-77.097561 77.09756 0 42.4878 34.560976 77.07317 77.097561 77.07317h982.975608c430.09756 0 780-349.90244 780-779.97561C1994.19512 349.95122 1644.31707 0 1214.21951 0z"/>
    <path d="M767.219512 780c0-42.512195-34.585366-77.097561-77.097561-77.097561H502.219512c-42.512195 0-77.097561 34.585366-77.097561 77.097561 0 42.707317 34.097561 77.097561 62.317073 77.097561h187.878049c54.121951 0 91.902439-31.707317 91.902439-77.097561zM523.170732 1760.82927H77.097561C34.585366 1760.82927 0 1795.41463 0 1837.92683c0 42.51219 34.585366 77.09756 77.097561 77.09756h446.073171c42.512195 0 77.097561-34.58537 77.097561-77.09756 0-42.5122-34.609756-77.09756-77.097561-77.09756z"/>
  </g>
</svg>
