<svg viewBox="0 0 2000 2000" xmlns="http://www.w3.org/2000/svg">
  <g fill="none" fill-rule="evenodd">
    <circle fill="#222" cx="999.367489" cy="999.367489" r="891.840607"/>
    <path d="M999.648105 0C447.559162 0 0 447.559162 0 999.641387c0 552.099023 447.559162 999.658183 999.648105 999.658183 552.088945 0 999.651465-447.55916 999.651465-999.658183C1999.29957 447.559162 1551.73705 0 999.648105 0zM1128.6969 422.674461v111.903518L934.965976 422.674461H1128.6969zm-246.203872 0L1128.6969 564.900305v145.248314L631.479524 422.674461h251.013504zM549.435622 1572.97437H423.65082V422.674461h125.784802V1572.97437zm152.036134 0H575.686954V422.674461L1128.70114 740.47519v145.273784L701.471756 638.916835v934.057535zm169.126667 0v-111.90352l193.718187 111.90352H870.598423zm246.203877 0l-246.203877-142.23009v-145.25256l497.217377 287.48265h-251.0135zm306.79758 0l-553.001457-317.80073v-145.29925l427.229387 246.85336V422.674461h125.77207V1572.97437zm152.03189 0H1449.8597V422.674461h125.77207V1572.97437z" fill="#F2E65B" fill-rule="nonzero"/>
  </g>
</svg>
