<svg xmlns="http://www.w3.org/2000/svg" viewBox="0 0 120.53 104.7"><defs><style>.cls-1{fill:#fdfdfd;}.cls-2{fill:#7ce5e3;}</style></defs><title>nio</title><g id="Layer_2" data-name="Layer 2"><g id="Layer_1-2" data-name="Layer 1"><path class="cls-1" d="M60.27,0,32.81,47.67H85c2.7,0,2-1.45,1.21-2.88C77.72,30.14,69.24,15.49,60.27,0ZM27.4,57.06,0,104.7H45.47c9.19,0,9.29-.05,4.76-8C42.85,83.71,35.34,70.82,27.4,57.06Zm93.13,47.46L93.17,57.07,65.86,104.52Z"/><path class="cls-2" d="M60.27,0c9,15.49,17.45,30.14,25.92,44.79.83,1.43,1.5,2.88-1.21,2.88H32.81Z"/><path class="cls-2" d="M27.4,57.06c7.94,13.77,15.45,26.65,22.82,39.62,4.53,8,4.44,8-4.76,8H0Z"/><path class="cls-2" d="M120.53,104.52H65.86L93.17,57.07Z"/></g></g></svg>