<svg viewBox="0 0 2000 2000" xmlns="http://www.w3.org/2000/svg">
  <g fill-rule="nonzero" fill="none">
    <circle fill="#0165A4" cx="1000" cy="1000" r="1000"/>
    <g fill="#FFF">
      <path d="M965.978836 675.026455l-438.412698-96.296297c-29.987792-8.720144-62.211641-5.167566-89.579573 9.875866-27.367933 15.043432-47.637022 40.34484-56.346353 70.335774L239.100529 979.68254c-8.738278 29.987847-5.201006 62.219106 9.833082 89.598015 15.034088 27.37891 40.332462 47.660886 70.325648 56.380821l438.359789 103.174603c29.994726 8.721578 62.225591 5.17043 89.602012-9.872214 27.37642-15.042643 47.655806-40.344537 56.376824-70.339426l142.539682-327.619047c18.165673-62.44506-17.718889-127.795231-80.15873-145.978836zm-159.68254 162.751322l-77.301587 203.227514c-2.93398 7.321615-10.799065 11.378106-18.465608 9.523809l-206.878307-52.910053c-4.418318-1.095118-8.135252-4.070583-10.170974-8.142026-2.035721-4.071443-2.185933-8.83027-.411037-13.021995l83.650794-197.513227c3.048839-6.917746 10.553382-10.725361 17.936508-9.10053l200.5291 47.248678c4.402673.978191 8.161107 3.825162 10.29507 7.798396 2.133962 3.973235 2.431875 8.678797.816041 12.889434zM1113.386244 714.761904l199.312169 48.148148-109.94709 261.164022 316.13757-206.349207 240.58201 48.095238-275.13228 171.798942 54.65609 15.873016c27.79431 8.096561 50.72922 27.817335 62.89936 54.084543 12.17013 26.267207 12.38625 56.514065.5927 82.952494l-97.51323 218.148148-178.51852-54.708994 50.89947-129.94709c6.29453-14.220783 6.24586-30.447166-.13386-44.629933-6.37972-14.182768-18.48873-24.984142-33.30529-29.708692l-168.888888-50-89.100529 213.015873-199.312169-61.851852"/>
    </g>
  </g>
</svg>
