<svg viewBox="0 0 1914 1914" xmlns="http://www.w3.org/2000/svg">
  <g fill="#1C347A" fill-rule="nonzero">
    <path d="M1913.68928 957.37122c-1.7094 534.47172-434.18705 956.12318-956.692973 956.12318-528.773724 0-960.111771-430.19845-956.692976-962.390971C3.722127 422.329708 435.060174.108449 958.135902.678248c518.517338.5698 954.413778 419.942062 955.553378 956.692972zm-254.13048 0c-1.1396-393.731293-320.22719-701.992699-700.853098-703.132297-385.754107-1.139599-704.271897 312.819799-704.271897 701.992701-.569799 390.312496 316.808395 699.713506 695.155107 703.702096 380.625908 3.9886 708.260488-303.13321 709.969888-702.5625z"/>
    <path d="M1516.3446 79.564012c105.98267-1.139599 211.96533-1.139599 317.948-1.139599v319.087591c-83.7605-128.204835-189.74316-233.6177-317.948-317.947992zM1834.2926 1516.73913v320.79699h-317.948c128.20484-84.9001 234.1875-190.88276 317.948-320.79699zM397.687279 79.875349C267.773045 163.63584 162.36018 269.048706 78.029889 396.683743V80.445148c6.837591-2.279197 297.435218-2.848996 319.65739-.5698zM396.289218 1835.82672H80.050623c-2.279197-7.40739-2.848996-305.98221-.569799-319.08759 83.190694 128.77463 189.173358 234.75729 316.808394 319.08759z"/>
  </g>
</svg>
