<svg viewBox="0 0 1696 2000" xmlns="http://www.w3.org/2000/svg">
  <g fill="none" fill-rule="evenodd">
    <path d="M1695.1841 292.8932C1515.4836 111.9288 1267.2296 0 993.016 0 444.5884 0 0 447.7153 0 1000c0 262.3525 100.3235 501.1085 264.4444 679.485V967.3913l.7068-.0003c16.9413-390.0774 336.3366-701.0867 727.8647-701.0867 201.1894 0 383.3323 82.1217 515.1778 214.8945l186.9904-188.3056zm0 1414.2136l-186.9904-188.3056c-128.2996 129.202-304.2276 210.4406-498.9873 214.7169v266.3517c267.7869-4.3107 509.8206-115.367 685.9777-292.763z" fill="#B3B4B4"/>
    <path d="M518.0952 1878.4335c75.5453 41.5076 157.036 73.4202 242.8572 94.1118v-551.1624c72.8424 43.0589 157.6851 67.7475 248.254 67.7475 271.2331 0 491.111-221.4244 491.111-494.5652S1280.4396 500 1009.2065 500c-262.1792 0-476.3745 206.8884-490.3824 467.3913h-.7288l-.0001 911.0422zm491.1111-633.8683c-137.1068 0-248.254-111.9288-248.254-250s111.1472-250 248.254-250 248.254 111.9288 248.254 250-111.147 250-248.254 250z" fill="#FF71AC"/>
  </g>
</svg>
