<svg viewBox="0 0 1958 1957" xmlns="http://www.w3.org/2000/svg"><g fill="#DEC685" fill-rule="evenodd"><path d="M891.716 1136.567c-6.776-8.836-13.88-18.09-20.895-27.94-7.85-10.985-10.478-21.642-8.09-32.687 5.224-24.209 34.12-45.373 44.806-51.492l-13.194-23.761c-1.97 1.134-48.955 28.179-57.91 69.313-4.12 18.806.09 37.164 12.537 54.597 7.224 10.09 14.508 19.612 21.463 28.657 34.925 45.522 50.746 68.656 29.194 97.552-9.164 12.328-19.85 20.298-31.134 28.746-28.03 20.985-57.015 42.657-47.224 123.523l26.746-3.284c-7.88-65.104 10.746-79.045 36.478-98.298 11.79-8.806 25.104-18.806 36.656-34.27 34.926-46.805 3.642-87.551-29.433-130.656"/><path d="M892.612 1007.284c-12.06 7.701-44.478 31.104-51.552 63.73-3.821 17.434.149 34.538 11.76 50.837 7.165 10.06 14.449 19.522 21.344 28.537 35.403 46.15 52.776 71.672 29.254 103.254-9.582 12.865-20.508 21.045-32.09 29.701-27.641 20.687-53.731 40.21-45.88 114.448l17.343-2.15c-6.716-63.82 13.433-78.925 38.806-97.91 11.582-8.656 24.627-18.388 35.761-33.313 32.776-44 3.97-81.493-29.373-124.955-6.836-8.896-13.97-18.21-21.015-28.06-8.657-12.15-11.552-24.06-8.866-36.478 5.075-23.313 29.97-43.612 43.105-52.149l-8.597-15.522v.03zm-75.463 401.074l-.567-4.716c-10.15-83.582 21.314-107.105 49.045-127.851 11.045-8.239 21.463-16.06 30.239-27.791 18.686-25.075 7.492-44.03-29.165-91.85a1047.755 1047.755 0 0 1-21.582-28.807c-13.223-18.537-17.701-38.209-13.283-58.358 9.134-41.94 54.925-69.403 60.15-72.418l4.178-2.388 17.761 32.06-4.03 2.298c-9.492 5.403-37.701 25.91-42.537 48.388-2.09 9.642.299 19.105 7.314 28.956 6.955 9.79 14.03 19.015 20.776 27.82 32.716 42.598 66.537 86.657 29.492 136.359-11.97 16.03-25.612 26.209-37.612 35.224-25.432 18.985-42.179 31.552-34.627 93.91l.598 4.687-36.12 4.477h-.03zm-248.09-841.85c-139.253-5.463-172.03 47.104-174.925 92.328-1.313 20.448.24 43.134 1.851 67.164 3.582 52.836 7.254 107.522-20.298 135.134-16.21 16.21-42.568 22.567-80.657 19.642l-2.09 27.164c6.717.508 13.135.776 19.314.776 36.418 0 63.462-9.313 82.358-28.238 36.358-36.418 32.06-100.09 28.269-156.329-1.582-23.104-3.045-44.895-1.851-63.582 3.074-48.12 52.537-70.657 146.985-66.836l1.045-27.224z"/><path d="M298.015 903.552c42.478 2.567 72.895-6 93.284-26.388 34.805-34.925 30.597-97.492 26.865-152.716-1.582-23.194-3.045-45.135-1.85-64.18 3.193-50.417 52.716-74.417 147.164-71.402l.686-17.791c-104.448-3.284-161.433 27.253-165.313 88.06-1.284 20.268.239 42.716 1.85 66.537 3.642 53.91 7.403 109.671-21.701 138.806-16.478 16.507-42.478 23.492-79.612 21.343l-1.373 17.731zm14.239 9.851c-6.269 0-12.836-.209-19.702-.776l-4.686-.358 2.806-36.597 4.746.388c36.627 2.865 61.791-3.135 76.895-18.269 26.09-26.09 22.448-79.701 18.956-131.492-1.612-24.12-3.165-46.866-1.851-67.762 3.015-47.253 36.627-102.328 179.82-96.746l4.717.18-1.403 36.686-4.746-.18c-91.343-3.7-139.194 17.284-142.06 62.389-1.194 18.447.299 40.06 1.851 62.955 3.88 57.224 8.239 122.09-29.642 160-19.88 19.94-47.91 29.612-85.701 29.612v-.03z"/><path d="M774.97 1024.806c-6.806-8.866-13.91-18.12-20.925-27.97-8.687-12.15-11.702-23.642-9.164-35.015 4.298-19.403 23.194-34.09 31.94-39.94 18.806 7.492 41.612 12.537 69.403 13.641v.21c1.94 0 3.88 0 5.79-.06 1.911.06 3.822.06 5.792.06v-.21c77.313-3.044 116.418-36.597 136.209-69.552 18.507 7.463 71.522 34.657 69.134 100.388-1.194 32.358-28.298 63.284-54.567 93.194-37.343 42.597-79.701 90.866-44.418 148.21l22.866-14.389c-22.985-37.403.418-68.657 41.701-115.731 29.403-33.523 59.791-68.21 61.314-110.269 2.149-58.686-31.433-95.701-62.985-115.224 26.388-2.746 59.91-11.731 67.97-28.507 2.866-5.97 10.537-21.91-62.329-195.075-5.223-24.836-19.85-95.94-24.208-130.507 54.06-74.388 29.88-150.747-19.015-194.15-50.568-44.835-134.329-61.194-198.896-10.328-18.507-42.328-65.313-72.12-127.492-79.761-110.597-13.582-191.254 45.403-219.403 105.97-36.329 78.328-16.27 133.373 2.865 162.836-59.94.627-101.582 15.283-126.776 44.388-40.358 46.627-26.925 116.925-16.12 173.433 5.016 26.268 11.254 58.985 4.896 66.955-21.015 26.388-44.836 18.806-54.09 14.328-15.91-7.701-25.85-22.985-23.134-35.641L205 740.299c-5.373 25.044 10.537 52.835 37.85 66.03 24.18 11.7 59.672 12.119 86.687-21.851 14.18-17.821 8.18-49.284.538-89.194-9.642-50.657-21.702-113.732 9.97-150.359 23.074-26.656 68.567-38.149 135.313-34.298l9.135-24.269c-.657-.537-63.91-52.597-16.418-154.925 34.418-74.18 123.462-98.985 191.76-90.567 47.255 5.82 101.225 29.731 111.046 79.462l22.806 6.896c40.716-41.821 116.925-57.015 178-2.806 36.955 32.806 62.268 93.85 13.91 158.925-123.94-19.224-216.567-2.686-275.224 49.463-35.612 31.582-51.015 69.612-57.701 98.269a47.582 47.582 0 0 0-9.254-5.821c-9.194-4.18-27.85-8.747-49.761 7.85-21.791 16.448-30.717 40.986-25.135 69.135 6.627 33.522 32.418 67.433 58.03 86.507-12.239 11.851-24.716 27.94-28.895 47.164-4.09 18.806.09 37.194 12.537 54.597 7.194 10.06 14.507 19.583 21.463 28.657 34.925 45.493 50.746 68.657 29.194 97.552-9.194 12.329-19.88 20.299-31.164 28.747-28.03 20.955-57.015 42.686-47.165 123.522l26.717-3.343c-7.91-65.075 10.746-79.015 36.477-98.239 11.762-8.836 25.075-18.806 36.657-34.299 34.926-46.805 3.642-87.522-29.463-130.686a1001.104 1001.104 0 0 1-20.895-27.88c-7.821-10.986-10.448-21.672-8.06-32.717 3.314-15.403 16.239-29.582 27.91-39.433.807.269 3.195-2.597 3.195-2.597 5.462-4.298 10.418-7.582 13.671-9.433v-.03l-6.567-11.88-6.597-11.851a111.702 111.702 0 0 0-6.955 4.358c-20.746-13.074-47.821-44.477-53.672-74.06-3.582-18 1.284-31.701 14.836-41.97 8.269-6.268 15.821-7.94 22.508-4.835 7.97 3.641 14.567 14.06 15.343 24.268l12.686-.985 14.24-.567c-.06-.687-1.792-70.627 53.91-119.82 52.686-46.568 138.358-60.747 254.567-42.479 6.746 46.12 24.358 128.717 25.164 132.627l1.224-.268c29.254 69.85 59.403 151.104 60.597 169.462-8.537 7.373-44.299 14.12-59.702 14 3.881-15.343 4.03-26.119 4.03-26.507h-26.955c0 4.388-1.582 105.761-135.343 108.597C719 905.582 716.672 804.149 716.612 799.76l-13.433.06h-13.492c0 .955.985 68.716 60.537 108.179-12.18 10.358-26.866 26.627-31.582 47.701-4.299 19.224.239 38.448 13.552 57.075 7.224 10.12 14.507 19.642 21.493 28.746 34.895 45.463 50.716 68.597 29.164 97.463-9.164 12.328-19.851 20.299-31.135 28.776-28.03 20.955-57.015 42.627-47.223 123.523l26.746-3.314c-7.88-65.074 10.746-79.015 36.477-98.298 11.762-8.806 25.105-18.776 36.657-34.269 34.926-46.776 3.642-87.493-29.403-130.597"/><path d="M694.701 804.567c1.433 15.791 9.792 67.463 58.15 99.523l5.224 3.462-4.776 4.06c-11.254 9.552-25.553 25.075-30.03 45.134-4.03 17.88.268 35.821 12.776 53.284 7.164 10.06 14.448 19.552 21.403 28.597 35.343 46.12 52.716 71.642 29.194 103.194-9.552 12.836-20.448 20.985-31.94 29.612-27.762 20.776-53.911 40.298-46.06 114.567l17.373-2.15c-6.716-63.85 13.433-78.954 38.836-97.94 11.582-8.656 24.597-18.417 35.731-33.313 32.746-43.94 3.97-81.433-29.343-124.866l3.731-2.955-3.761 2.896c-6.806-8.866-13.94-18.21-21.015-28.06-9.522-13.343-12.776-26.06-9.94-38.806 4.746-21.313 25.313-37.075 33.94-42.866l2.06-1.373 2.328.896c19.522 7.85 42.358 12.328 67.821 13.343l4.358.15h1.164l3.463.03 2.239-.18c62.477-2.478 106.985-25.105 132.358-67.313l2.09-3.433 3.731 1.492c17.522 7.105 74.597 35.642 72.06 104.985-1.254 34.03-28.956 65.582-55.702 96.12-35.373 40.298-75.343 85.85-46.358 138.507l14.866-9.373c-20.568-38.328 4.447-71.582 44.477-117.254 28.896-32.895 58.717-66.925 60.21-107.343 2.268-62.448-37.105-96.388-60.777-111.045l-11.761-7.283 13.761-1.433c27.164-2.806 57.493-11.88 64.18-25.821 6.387-13.284-14.628-77.612-62.419-191.194-4.836-22.657-20.09-96.508-24.537-131.791l-.269-1.821 1.135-1.552c52.358-72.03 28.507-146.21-18.359-187.821-48.06-42.597-129.73-59.761-192.835-10.15l-4.777 3.792-2.447-5.582c-17.91-40.896-64.18-69.672-123.732-77.015-108.268-13.254-187.134 44.238-214.537 103.343-34.507 74.388-17.672 127.104 2.537 158.269l4.657 7.194-8.597.09c-58.567.596-98.895 14.566-123.224 42.716-38.865 44.895-25.671 114-15.074 169.462 6.865 35.821 11.164 61.791 3.97 70.806-23.105 29.045-49.553 20.597-59.851 15.642-16.239-7.85-26.597-22.507-26.269-36.18L208.881 746c-2.12 21.642 12.358 44.627 36.03 56.09 22.537 10.865 55.641 11.223 80.925-20.538 12.836-16.179 7.015-46.716-.388-85.373-9.851-51.701-22.15-115.97 11.045-154.328 23.641-27.314 69.194-39.493 135.671-36.12l6.776-18.06c-11.94-11.462-58.656-64.537-15.134-158.268 35.433-76.358 126.746-101.791 196.597-93.224 48.03 5.88 102.806 30.15 114.507 80.448l17.433 5.254c42.657-41.851 120.21-56.299 182.478-.985 38.209 33.88 64.925 97.492 14.537 165.283l-1.671 2.269-2.836-.418C862.284 469.015 771 485.224 713.507 536.328c-35.313 31.373-50.06 69.403-56.208 95.821l-1.702 7.224-5.82-4.567c-2.986-2.328-5.673-4.03-8.33-5.254-8.208-3.761-24.954-7.82-44.925 7.314-20.268 15.313-28.567 38.209-23.373 64.447 6.687 33.851 33.075 66.388 56.24 83.642l4.477 3.314-4.03 3.88c-14.955 14.418-24.239 29.493-27.582 44.776-3.791 17.433.149 34.538 11.76 50.806 6.807 9.493 13.673 18.508 20.27 27.105l1.134 1.463c35.373 46.149 52.776 71.641 29.254 103.223-9.642 12.896-20.597 21.075-32.15 29.702-27.612 20.657-53.731 40.209-45.88 114.477l17.373-2.149c-6.716-63.88 13.463-78.955 38.866-97.94 11.701-8.806 24.656-18.508 35.671-33.313 32.806-43.97 3.97-81.493-29.373-124.986-6.955-9.074-14.03-18.268-20.985-28.03-8.657-12.119-11.552-24.06-8.866-36.447 3.762-17.403 18.15-32.478 29.493-42.09l2-1.671.269.09.358-.389c3.97-3.254 7.701-5.97 10.985-8.09l-8.627-15.522a49.403 49.403 0 0 0-2.567 1.732l-2.567 1.701-2.597-1.642c-22.747-14.328-49.851-47.134-55.762-77.134-3.88-19.702 1.702-35.403 16.597-46.657 9.791-7.433 19.015-9.254 27.344-5.373 8.328 3.791 15.164 13.254 17.403 23.522l18.209-1.044c.627-16.985 6.418-75.523 55.462-118.806C779 501.97 865.955 487.313 983.746 505.82l3.463.567.507 3.433c5.672 38.895 18.985 103.283 24.12 127.701l.448-.09 1.492 3.613c28.627 68.328 59.702 151.462 60.985 170.985l.15 2.358-1.792 1.522c-10.09 8.687-47.223 15.135-62.447 15.135h-.388l-5.97-.03 1.432-5.85a136.718 136.718 0 0 0 3.582-20.598h-17.403c-1.701 21.373-16.268 105.97-139.76 108.567-122.956-2.597-138.12-87.253-140-108.627l-17.434.06h-.03zm5.672 491.97l-.567-4.716c-10.15-83.582 21.313-107.105 49.075-127.85 11.104-8.33 21.432-16.09 30.179-27.792 18.686-25.075 7.552-44-29.135-91.79-7.015-9.135-14.328-18.717-21.582-28.867-14.12-19.76-18.925-40.238-14.328-60.895 4.478-19.821 17.194-35.523 28.567-46.15-56.925-41.402-57.612-107.97-57.612-108.656v-4.717l36.329-.09.06 4.717c0 4.15 2.328 101.224 130.775 103.97 129.045-2.746 130.538-99.73 130.538-103.88v-4.717h36.418v4.717c0 .09-.06 8.597-2.777 21.552 15.821-1.104 40.06-6.358 48.717-11.313-3.164-19.851-27.91-88.508-58.448-161.791l-2 .477-.985-4.627c-4.388-20.597-18.358-87.612-24.746-129.492-113.135-17.194-196.299-3.134-247.254 41.91-53.97 47.642-52.358 115.403-52.328 116.09l.149 4.686-36.12 2.12-.358-4.687c-.656-8.477-6.179-17.433-12.627-20.358-5.014-2.328-10.776-.895-17.701 4.299-12.09 9.194-16.269 21.014-13.045 37.283 5.164 26.06 28.926 55.523 49.045 69.343 2.657-1.73 4.358-2.716 4.746-2.895l4.09-2.209 17.701 31.88-4.06 2.329c-3.641 2.09-8.567 5.492-13.104 9.075a9.94 9.94 0 0 1-3.97 3.283c-8.508 7.284-22.18 21.015-25.463 36.03-2.09 9.672.329 19.164 7.314 28.985 6.865 9.672 13.91 18.806 20.597 27.463 32.925 42.925 66.746 87.015 29.671 136.716-11.85 15.88-25.373 26.03-37.313 34.985-25.672 19.194-42.448 31.732-34.896 94.12l.597 4.686-36.149 4.478-.597-4.687c-10.12-83.582 21.343-107.104 49.075-127.88 11.045-8.24 21.403-16 30.209-27.791 18.716-25.075 7.522-44.03-29.164-91.821l-1.135-1.493c-6.657-8.657-13.582-17.761-20.418-27.343-13.253-18.508-17.701-38.15-13.313-58.358 3.433-15.732 12.298-31.045 26.418-45.672-23.523-19.015-48.806-51.85-55.552-86.03-5.94-30 3.582-56.209 26.925-73.82 23.88-18.12 44.448-13.016 54.567-8.389a41.791 41.791 0 0 1 4.388 2.329 191.82 191.82 0 0 1 57.433-94.03c59.254-52.627 152.209-69.732 276.239-51.045 44.298-61.731 19.88-119.403-14.896-150.269-58.895-52.239-132.298-37.701-171.462 2.597l-2.03 2.03-28.269-8.537-.537-2.776c-9.344-47.254-61.403-70.09-106.985-75.702-66.478-8.179-153.463 15.821-186.896 87.851-45.642 98.298 14.478 148.746 15.075 149.254l2.627 2.149-11.493 30.746-3.492-.209c-65.165-3.88-109.433 7.224-131.463 32.687-30.18 34.866-18.388 96.716-8.896 146.358 7.851 41.075 14.06 73.493-1.492 93.045-28.776 36.12-66.627 35.671-92.448 23.134-29.254-14.12-46.269-44.12-40.418-71.254l1.015-4.626 35.552 7.79-1.015 4.598c-2.209 10.388 6.806 23.76 20.597 30.418 10.24 4.895 30.15 9.79 48.329-13.015 5.045-6.329-2.06-43.284-5.851-63.135-10.985-57.492-24.657-129.074 17.194-177.433 25.045-28.955 65.015-43.94 122.03-45.82-19.343-33.791-32.657-87.314 1.194-160.27 28.836-62.059 111.343-122.596 224.239-108.686 60.328 7.433 107.91 36.09 128.716 77.165 66.418-48.448 150.388-30.15 200.239 14.09 49.701 44.118 75.224 122.566 20.776 198.895 4.716 35.612 19.463 107.015 23.94 128.358 73.433 174.209 65.672 190.328 61.97 198.06-7.611 15.79-33.79 25.223-59.313 29.462 25.045 18.508 56.925 53.732 54.806 112.388-1.612 43.761-32.537 79.075-62.507 113.194-43.523 49.642-61.791 76.717-41.224 110.15l2.447 4-30.835 19.403-2.508-4.06c-37.134-60.299 6.418-109.97 44.866-153.791 25.701-29.314 52.239-59.612 53.403-90.239 2.09-58.09-40.418-84.567-62.508-94.328-19.104 29.671-57.432 63.88-133.403 68.149v.209l-4.716.209h-16.328v-.418c-23.732-1.343-45.224-5.672-64.06-12.836-8.478 6-24.269 19.105-27.91 35.642-2.24 10 .507 20.239 8.358 31.254 7.015 9.82 14.09 19.014 20.835 27.82l-3.73 2.866 3.76-2.836c32.687 42.597 66.448 86.657 29.433 136.299-11.94 16-25.552 26.209-37.552 35.164-25.463 19.075-42.239 31.642-34.687 94l.597 4.687-36.149 4.477v-.03z"/><path d="M551.09 430.06c-19.612 25.313-19.94 57.522-.836 82.09 12 15.402 28.656 23.82 45.253 23.82 6.866 0 13.762-1.492 20.27-4.477 27.76-12.777 34.447-23.224 52.238-51.314 8.866-13.91 20.985-32.955 40.597-60.12 15.075-20.835 31.224-31.76 48.06-32.477 27.373-.985 50.358 24.836 50.567 25.105l10.179-8.926 10.239-8.865c-1.224-1.433-29.851-34.627-69.135-34.627-.895 0-1.85 0-2.776.09-25.522.984-48.686 15.67-68.865 43.611a1148.358 1148.358 0 0 0-41.493 61.493c-16.716 26.298-20.239 31.79-40.776 41.253-12.358 5.672-25.582-1.641-33.194-11.462-8.896-11.373-13.314-30.09.866-48.358L551.09 430.06z"/><path d="M552.015 436.836c-15.403 22.895-14.806 50.836 1.97 72.388 15.343 19.701 39.821 27.224 59.821 17.97 26.507-12.18 32.478-21.582 50.239-49.552 8.865-13.94 21.045-33.045 40.776-60.358 15.94-22.09 33.313-33.642 51.642-34.418 23.462-.896 43.343 15.94 51.044 23.343l13.374-11.672c-8.299-8.477-31.97-29.552-62.359-29.552-.835 0-1.641 0-2.507.09-24.06.925-46 14.925-65.314 41.671-20.09 27.851-32.358 47.164-41.343 61.224-16.955 26.657-20.955 32.985-42.776 43.045-14.657 6.746-30.15-1.582-38.895-12.836-11.66-14.54-12.411-35.002-1.851-50.358l-13.821-10.985zm43.492 103.85c-18.447 0-36.298-9.373-48.985-25.671-20.477-26.299-20.119-60.776.836-87.85l2.926-3.792 28.567 22.687-2.836 3.731c-12.508 16.12-8.657 32.567-.866 42.597 6.448 8.269 17.523 14.627 27.523 10.03 19.253-8.896 22.209-13.552 38.716-39.493 9.045-14.179 21.373-33.641 41.672-61.731 21.074-29.194 45.492-44.537 72.537-45.582.896-.06 1.91-.06 2.925-.06 41.553 0 71.493 34.806 72.717 36.299l3.045 3.582-27.463 23.91-3.134-3.522c-.21-.239-21.075-23.522-45.493-23.522h-1.343c-15.284.656-30.21 10.925-44.388 30.507a1093.254 1093.254 0 0 0-40.418 59.91c-17.88 28.09-25.254 39.702-54.269 53.105a53.194 53.194 0 0 1-22.269 4.866zm769.105 994.747c66.239-19.582 98.209-100.896 77.791-201.075l-26.388 5.523c14.657 71.94.985 156.06-63.582 170.835-61.85 14.09-121.493-40.388-145.075-132.597-14.149-55.164-10.268-106.656 10.567-141.253 12.627-20.926 30.597-34.21 53.433-39.403a87.702 87.702 0 0 1 45.075 1.134l7.582-26.15a114.03 114.03 0 0 0-58.597-1.551 108.597 108.597 0 0 0-32.358 13.074l-.538-1.045a497.791 497.791 0 0 1-239.79 55.702l-.538 27.224c3.582.06 7.134.12 10.687.12 64.388 0 128.209-11.852 187.492-34.419-20.418 40.299-23.94 95.403-9.104 153.373 17.76 69.433 54.567 120.03 99.134 142.418-55.373 10.388-119.642 18.538-163.91 18.538-65.314 0-129.702-9.344-191.344-27.791l-7.642 26.119a693.433 693.433 0 0 0 198.986 28.925c72.238 0 188.806-19.671 248.208-37.313l-.09-.388z"/><path d="M923.388 1541.015c62.269 18.209 127.194 27.373 193.075 27.373 70.209 0 182.418-18.657 242.686-35.88l4.12-1.583c63.462-18.806 93.492-95.224 75.432-190.955l-17.134 3.582c13.552 73.045-1.79 156.627-68.12 171.791-64.477 14.597-126.417-41.283-150.686-136.09-14.448-56.328-10.388-109.134 11.135-144.835 13.283-22.09 32.268-36.06 56.417-41.582a92.836 92.836 0 0 1 42.866 0l4.955-17.075a109.373 109.373 0 0 0-51.641-.298 105.284 105.284 0 0 0-30.986 12.537l-4.358 2.657-.686-1.344a500.597 500.597 0 0 1-233.105 54.12l-.328 17.761c65.85.746 130.388-10.746 191.671-34.06l11.433-4.358-5.522 10.896c-19.94 39.283-23.105 94.03-8.776 150.09 16.955 66.238 52.209 117.014 96.686 139.372l12.538 6.269-13.791 2.597c-62.09 11.642-123.702 18.627-164.776 18.627a672.24 672.24 0 0 1-188.15-26.657l-4.955 17.015v.03zm193.075 36.836a697.313 697.313 0 0 1-200.299-29.135l-4.477-1.343 10.268-35.164 4.567 1.343c61.135 18.329 125.075 27.612 189.94 27.612 37.135 0 93.732-6.12 150.27-16.12-41.463-26.059-73.881-75.82-90.03-138.925-13.911-54.328-12.24-105.701 4.626-146.209a532.836 532.836 0 0 1-189.253 30.657l-4.687-.09.716-36.716 4.717.12c3.373.09 6.716.09 10.06.09 79.612 0 158.268-19.105 227.462-55.225l4.21-2.239.477.896c9.224-5.075 19.104-8.776 29.373-11.134a119.045 119.045 0 0 1 60.925 1.641l4.508 1.344-10.18 35.224-4.566-1.374a84.06 84.06 0 0 0-42.657-1.074c-21.552 4.955-38.508 17.463-50.448 37.254-20.209 33.552-23.88 83.73-10.06 137.612 22.926 89.611 80.359 142.686 139.403 129.194 61.553-14.03 74.269-95.523 60.06-165.254l-.895-4.597 35.611-7.463.956 4.657c20.507 100.776-10.269 182.388-76.657 205.134l.09.448-4.418 1.313c-59.702 17.762-176.896 37.523-249.612 37.523zM979.119 633.64l-63.104-26.865-10.567.06-105.732 46.239 10.687 25.015 100.478-43.94 57.79 24.596 10.448-25.104z"/><path d="M805.925 655.522l6.956 16.299 97.94-42.806 55.343 23.522 6.806-16.388-57.91-24.656-8.627.06-100.508 43.97zm2 28.777l-14.388-33.672 111.88-48.508 11.553-.06.896.359 67.433 28.716-14.09 33.821-60.299-25.642L807.925 684.3z"/><path d="M897.239 685.522c0 12.388 10.567 22.478 23.582 22.478s23.582-10.09 23.582-22.478c0-12.358-10.567-22.477-23.582-22.477s-23.582 10.12-23.582 22.477"/><path d="M920.82 667.761c-10.417 0-18.865 8-18.865 17.761 0 9.791 8.448 17.762 18.866 17.762s18.866-7.97 18.866-17.762c0-9.76-8.448-17.76-18.866-17.76m0 44.954c-15.612 0-28.328-12.209-28.328-27.164 0-15.015 12.716-27.224 28.328-27.224s28.358 12.21 28.358 27.194c0 14.985-12.746 27.194-28.358 27.194"/><path d="M1410.731 967.373L1180.134 1060l92.926-292.507c.418.03.776.119 1.194.119.776 0 1.492-.15 2.268-.209l137.582 182.388a29.433 29.433 0 0 0-3.73 14.03c0 1.224.238 2.388.357 3.582v-.03zM697.15 1397.761c5.761 6.687 14.299 11.075 23.97 11.075.717 0 1.374-.18 2.09-.21l126.12 213.135a656.597 656.597 0 0 1-132.06-40.716 669.672 669.672 0 0 1-209.642-141.791l189.522-41.493zm-304.806-348.268c1.851 10.537 9.314 19.223 19.403 23.044l48.896 315.075c-41.791-50.955-75.821-107.463-101.433-168.776l-18.12-7.015-10 4.746a696.239 696.239 0 0 1-36.746-196.298l98 29.224zm1265.045 590.835a955.612 955.612 0 0 1-304.925 207.91A944.239 944.239 0 0 1 979 1924.569c-129.463 0-255.104-25.672-373.463-76.33a955.821 955.821 0 0 1-304.925-207.91 967.582 967.582 0 0 1-196.06-286.567l235.403-111.343a705.403 705.403 0 0 0 144.418 212.03 696.746 696.746 0 0 0 222.388 151.701A688.06 688.06 0 0 0 979 1661.731c56.239 0 112-6.716 165.731-19.94l-6.358-26.448a668.985 668.985 0 0 1-254.209 12.329l-137.224-232.03a29.433 29.433 0 0 0 5.463-17.045c0-16.716-14.03-30.269-31.284-30.269-14.626 0-26.806 9.791-30.209 22.926l-198.806 43.522-53.432-344.269c9.343-5.223 15.701-14.925 15.701-26.06 0-16.686-14.03-30.238-31.283-30.238-8.806 0-16.806 3.582-22.508 9.313l-106.866-31.88c0-.478-4.865-1.433-4.865-1.433h-22.12c0 81.791 13.493 161.731 39.88 237.91l-94.507 44.687a830.18 830.18 0 0 1-49.074-282.597c0-20.299.716-40.627 2.15-60.508l-26.867-2c-1.492 20.538-2.238 41.583-2.238 62.508 0 101.254 17.313 200.18 51.522 294.209l-94.12 44.537A963.582 963.582 0 0 1 32.374 990.21c0-129.254 25.075-254.687 74.448-372.776a955.104 955.104 0 0 1 202.806-304.358A943.134 943.134 0 0 1 610.522 107.88 931.82 931.82 0 0 1 979 32.597c127.761 0 251.761 25.343 368.507 75.284a942.836 942.836 0 0 1 300.896 205.194 955.224 955.224 0 0 1 202.836 304.328 961.552 961.552 0 0 1 74.388 372.806c0 113.373-19.582 224.18-57.85 329.701l-97.314-35.641a858.537 858.537 0 0 0 51.462-294.06c0-470.209-378.119-852.687-842.925-852.687-65.672 0-131.104 7.642-194.507 22.806l6.179 26.508c61.373-14.627 124.716-22.09 188.328-22.09 206.776 0 395.701 78.358 539.642 207.045l26.418 217.761a30.03 30.03 0 0 0-17.373 26.955l.03.18-236.896 95.134a31.82 31.82 0 0 0-16.567-4.687c-1.075 0-2.09.21-3.105.299l-103.283-221.194a29.433 29.433 0 0 0 7.403-19.284 29.612 29.612 0 0 0-9.314-21.492l38.985-109.91c13.732 4.835 27.373 10.059 40.776 15.79A683.075 683.075 0 0 1 1463.626 500l19.016-19.284a709.343 709.343 0 0 0-226.418-154.477 700.955 700.955 0 0 0-158.12-46.597l-4.447 26.865c28.955 4.926 57.552 11.94 85.671 20.657l-39.044 109.88c-15.493 1.822-27.583 14.449-27.583 29.911 0 16.418 13.612 29.732 30.448 30.15l104.687 224.268a29.403 29.403 0 0 0-4.866 16c0 6.537 2.21 12.508 5.821 17.463l-94.925 298.716c-14.985 2.18-26.567 14.627-26.567 29.761 0 16.687 14.03 30.24 31.283 30.24 16.478 0 29.85-12.419 31.045-28.06l232.746-93.433-43.433 221.074c-13.486 3.263-23.06 15.231-23.283 29.105 0 16.657 14.03 30.239 31.313 30.239 16.955 0 30.746-13.135 31.164-29.463l303.463-137.702c5.343 4.15 12 6.657 19.373 6.657 17.224 0 31.284-13.552 31.284-30.209 0-16.686-14.03-30.268-31.284-30.268-16.925 0-30.686 13.104-31.194 29.313l-303.582 137.791-.746-.597 44.209-225.045c13.496-3.266 23.074-15.25 23.283-29.134 0-16.657-14.03-30.21-31.283-30.21-1.88 0-3.702.21-5.463.508L1300.344 754c3.283-4.776 5.223-10.448 5.223-16.627 0-.686-.209-1.343-.239-2.03l235.284-94.477c5.164 3.641 11.492 5.88 18.388 5.88 17.224 0 31.284-13.582 31.284-30.239 0-12.119-7.463-22.537-18.12-27.343L1549.3 400.597c157.5 155.737 245.992 368.116 245.671 589.612 0 98-16.746 193.731-49.85 284.776l-110.27-40.418-4.566 12.776 4.567-12.776-25.075-9.224-16.866 7.224a679.194 679.194 0 0 1-101.73 162.597l20.477 17.672a706.865 706.865 0 0 0 100.597-157.582l13.433 4.895 231.641 84.926a967.523 967.523 0 0 1-199.94 295.224v.03zm295.194-650.149c0-132.866-25.761-261.85-76.537-383.373a982.508 982.508 0 0 0-208.597-313.015 969.85 969.85 0 0 0-309.433-210.985A958.328 958.328 0 0 0 979 5.313c-131.343 0-258.896 26.09-379.015 77.493a969.97 969.97 0 0 0-309.403 210.985A981.94 981.94 0 0 0 82.015 606.806 988.358 988.358 0 0 0 5.418 990.209c0 122.806 22.657 242.866 66.269 356.478l2.865 5.88a995.224 995.224 0 0 0 207.045 307.015 981.702 981.702 0 0 0 313.433 213.731A970.358 970.358 0 0 0 979 1951.821c133.134 0 262.299-26.418 384-78.508a981.91 981.91 0 0 0 313.433-213.73 994.478 994.478 0 0 0 211.313-317.076l.806-1.671a985.91 985.91 0 0 0 64.03-350.597v-.06z"/><path d="M1275.836 774.328l-88.18 277.553 218-87.553v-.507c0-4.597.986-9.105 2.926-13.493l-132.746-176zm-103.284 293.791l97.105-305.492 5.343.209 3.761-.329 140.955 186.866-1.462 2.687a24.537 24.537 0 0 0-3.164 11.76c0 .658.119 1.284.209 1.911l.507 3.642-3.284 2.388-239.94 96.358h-.03zM340.91 1206.657l21.881 8.507.776 1.85a673.731 673.731 0 0 0 89.672 153.792l-45.791-294.925a35.433 35.433 0 0 1-19.105-22.687l-88.955-26.507c3.224 62.567 14.806 124.179 34.478 183.313l7.044-3.343zm127.075 197.373L457 1390.627a683.164 683.164 0 0 1-101.373-168.12l-14.328-5.552-12.986 6.12-1.701-4.985a702.687 702.687 0 0 1-37.015-197.612l-.269-6.657 107.165 31.94.507 2.926c1.493 8.746 7.82 16.179 16.418 19.462l2.567.985 52 334.926v-.03zM517.18 1442a664.567 664.567 0 0 0 201.94 134.716c38.687 16.568 79.254 29.433 120.717 38.299l-119.194-201.493a36.239 36.239 0 0 1-25.105-10.567L517.18 1442zm341.612 186.478l-10.358-2.09a663.582 663.582 0 0 1-132.985-41.015 673.731 673.731 0 0 1-211.105-142.776l-6.149-6.12 200.716-43.94 1.851 2.12a26.806 26.806 0 0 0 20.418 9.433l4.687-.329 132.925 224.717zm-748-272.388a963.284 963.284 0 0 0 193.194 280.895 951.433 951.433 0 0 0 303.403 206.925A939.403 939.403 0 0 0 979 1919.85c128.836 0 253.85-25.581 371.642-75.94a951.254 951.254 0 0 0 303.403-206.925l3.343 3.343-3.343-3.343a962.686 962.686 0 0 0 196.925-289.194l-236.269-86.627a711.94 711.94 0 0 1-99.402 154.717l-3.105 3.671-27.642-23.88 2.985-3.582a674.328 674.328 0 0 0 101.015-161.433l.776-1.702 20.299-8.656 132.686 48.597a826.478 826.478 0 0 0 47.94-278.687c0-217.522-83.223-421.702-234.626-576.537l20.895 172.388c11.314 6.179 18.478 17.82 18.478 30.447 0 19.284-16.18 34.956-36 34.956a36.07 36.07 0 0 1-18.896-5.314l-229.85 92.299a34.03 34.03 0 0 1-4.18 15.283l132.21 175.344a30.542 30.542 0 0 1 3.373-.21c19.85 0 36 15.672 36 34.926 0 14.836-9.672 27.91-23.91 32.836l-42.09 214.269 293.612-133.254c2.332-17.852 17.67-31.124 35.671-30.866 19.851 0 36.03 15.702 36.03 34.985 0 19.254-16.179 34.926-36.03 34.926-7.104 0-13.91-2.03-19.88-5.94l-298.418 135.432c-2.03 17.373-17.433 31.045-35.702 31.045-19.85 0-36-15.731-36-34.985 0-14.776 9.702-27.88 23.91-32.806l41.195-209.791-222.09 89.224c-2.746 16.716-17.761 29.403-35.373 29.403-19.85 0-36-15.672-36-34.926 0-16.12 11.672-30.209 27.642-33.91l93.373-293.85a33.85 33.85 0 0 1-1.104-34.479l-102.418-219.462c-17.94-1.94-32.09-16.926-32.09-34.687 0-16.656 12.18-30.806 28.806-34.12l36.418-102.596a658.627 658.627 0 0 0-80.358-19.075l-4.627-.776 6-36.179 4.686.776a705.075 705.075 0 0 1 159.165 46.925 713.88 713.88 0 0 1 227.94 155.493l3.284 3.313-25.672 25.97-3.373-3.373a678.269 678.269 0 0 0-216.388-147.641 698.805 698.805 0 0 0-36.06-14.09l-36.418 102.687c10.644 11.956 11.478 29.727 2 42.627l100.597 215.522c5.97.388 11.88 1.403 17.194 4.179l231.97-93.134c1.015-11.045 7.224-20.717 16.866-26.538l-25.85-212.776c-148.27-132-338.27-204.656-535.165-204.656-63.284 0-126.269 7.373-187.224 21.94l-4.627 1.134-8.358-35.731 4.597-1.105A842.388 842.388 0 0 1 979 132.776c467.373 0 847.642 384.657 847.642 857.433 0 100.06-16.866 198.03-50.15 291.224l88.448 32.418a959.403 959.403 0 0 0 55.97-323.642c0-128.627-24.925-253.433-74.03-370.955a950.716 950.716 0 0 0-201.85-302.866 938.418 938.418 0 0 0-299.373-204.179A927.075 927.075 0 0 0 979 37.343c-127.104 0-250.448 25.194-366.657 74.896a938.418 938.418 0 0 0-299.373 204.15C135.778 495.843 36.627 738.015 37.09 990.208c0 114.03 19.88 225.791 59.044 332.239l85.582-40.478a862.776 862.776 0 0 1-50.358-291.761c0-20.985.746-42.12 2.239-62.836l.328-4.716 36.299 2.656-.328 4.687a848.418 848.418 0 0 0-2.15 60.209c0 94.866 15.821 187.761 47.075 276.12l85.97-40.687a730.597 730.597 0 0 1-38.806-235.433v-4.746h26.866a26.269 26.269 0 0 1 6.746 1.79l103.761 30.956c6.567-5.642 14.926-8.746 23.761-8.746 19.821 0 35.97 15.701 35.97 34.985 0 11.283-5.76 21.88-15.283 28.418l52.209 336.209 191.164-41.851a35.82 35.82 0 0 1 33.97-23.612c19.851 0 36 15.672 36 34.985 0 6.03-1.612 11.91-4.686 17.164l134.627 227.552c85.074 11.762 169.94 7.135 250.149-12.567l4.627-1.134 8.567 35.642-4.597 1.134a699.97 699.97 0 0 1-166.866 20.03c-95.104 0-187.313-18.806-274.06-55.94a700.716 700.716 0 0 1-223.88-152.747 710.18 710.18 0 0 1-143.433-208.955L110.791 1356.09zM979 1929.284c-130.09 0-256.388-25.821-375.343-76.717a960.448 960.448 0 0 1-306.418-208.955 972.418 972.418 0 0 1-197.015-287.88l-1.88-4.24 244-115.402 1.94 4.447a701.045 701.045 0 0 0 143.432 210.567 691.671 691.671 0 0 0 220.896 150.687A683.283 683.283 0 0 0 979 1656.985c54.239 0 108.06-6.269 160-18.686l-4.15-17.254a675.224 675.224 0 0 1-251.343 11.313l-2.238-.328-140-236.627 1.79-2.478a24.776 24.776 0 0 0 4.628-14.328c0-14.09-11.94-25.552-26.568-25.552a26.299 26.299 0 0 0-25.671 19.403l-.687 2.806-206.567 45.224L433.478 1068l2.865-1.612a25.045 25.045 0 0 0 13.284-21.94c0-14.06-11.88-25.523-26.508-25.523a26.866 26.866 0 0 0-19.164 7.94l-2 2-112.985-33.82-1.015-.21-16.477.09a719.94 719.94 0 0 0 39.612 231.642l1.373 4.03-103.045 48.716-1.761-4.895a835.373 835.373 0 0 1-49.344-284.209c0-18.716.597-37.612 1.821-56.15l-17.433-1.283a865.432 865.432 0 0 0-1.91 57.433c0 100.627 17.254 199.075 51.254 292.597l1.492 4.03-102.686 48.567-1.791-4.776a968.776 968.776 0 0 1-61.403-340.418c0-129.91 25.164-255.91 74.806-374.627a959.82 959.82 0 0 1 203.79-305.85 947.224 947.224 0 0 1 302.389-206.18A935.97 935.97 0 0 1 979 27.881c128.388 0 253.015 25.432 370.358 75.671a947.224 947.224 0 0 1 302.388 206.18 960.15 960.15 0 0 1 203.851 305.85 966.209 966.209 0 0 1 74.746 374.627 968.358 968.358 0 0 1-58.149 331.313l-1.582 4.478-106.209-38.925 1.612-4.418a853.761 853.761 0 0 0 51.194-292.448c0-467.582-376.03-848-838.209-848-63.82 0-127.313 7.284-188.806 21.612l4 17.313A816.716 816.716 0 0 1 978.97 160c199.85 0 392.597 73.97 542.836 208.239l1.313 1.194 27.045 222.866-3.045 1.492a25.313 25.313 0 0 0-14.686 22.687v3.194l-2.955 1.403-239.105 96-2-1.224c-4.776-2.896-10.358-4.687-15.672-3.88l-3.432.477-2.418-3.045-104.567-223.97 2-2.299a24.657 24.657 0 0 0 6.268-16.209 24.866 24.866 0 0 0-7.85-18.09l-2.24-2.089 41.613-117.253 4.477 1.582c14.896 5.253 28.358 10.447 41.015 15.91a687.104 687.104 0 0 1 216.03 146.269l12.388-12.538a704.388 704.388 0 0 0-221.612-150.149 697.761 697.761 0 0 0-152.358-45.492l-2.925 17.552c26.567 4.746 54 11.463 81.611 20l4.717 1.463-41.642 117.313-2.955.298c-13.343 1.583-23.403 12.389-23.403 25.224 0 13.672 11.612 25.075 25.85 25.433l2.926.09L1253.209 721.7l-1.403 2.21a24.627 24.627 0 0 0-4.09 13.432c0 5.224 1.702 10.299 4.896 14.627l1.433 1.97-96.567 303.821-2.926.418c-12.836 1.88-22.537 12.687-22.537 25.105 0 14.09 11.91 25.522 26.567 25.522 13.731 0 25.314-10.388 26.328-23.672l.21-2.925 2.716-1.134 240.836-96.717L1383 1216.925l-2.866.747a25.672 25.672 0 0 0-19.731 24.537c0 14.06 11.94 25.522 26.567 25.522 14.21 0 26.09-11.164 26.448-24.865l.09-2.956 308.716-140.09 2.269 1.732a26.567 26.567 0 0 0 16.447 5.672c14.627 0 26.567-11.433 26.567-25.493 0-14.06-11.94-25.522-26.567-25.522-14.358 0-26 10.836-26.447 24.716l-.09 2.926-2.687 1.194-306.238 139.045-4.985-3.583.298-3.432 44.776-228 2.896-.747a25.672 25.672 0 0 0 19.731-24.537c0-14.03-11.91-25.492-26.537-25.492a28.955 28.955 0 0 0-4.657.447l-2.836.508-139.642-185.135 1.91-2.806a24.627 24.627 0 0 0 4.389-13.97 17.016 17.016 0 0 1-.21-1.79l-.178-3.374 3.134-1.283 237.672-95.433 2.09 1.492A26.866 26.866 0 0 0 1559 642c14.627 0 26.567-11.463 26.567-25.522a25.582 25.582 0 0 0-15.343-23.045l-2.448-1.075-24.836-204.716 9.672 9.552c159.343 157.731 247.104 368.358 247.104 592.985 0 98.508-16.865 194.866-50.149 286.358l-1.612 4.478-110.268-40.418-2.956 8.299-8.895-3.165 2.985-8.358-18.925-6.955-13.433 5.761a683.642 683.642 0 0 1-98.687 158.418l13.343 11.522a702.686 702.686 0 0 0 96.836-152.895l1.851-3.94 253.85 93.044-2.03 4.597a971.85 971.85 0 0 1-200.895 296.687 960.15 960.15 0 0 1-306.388 208.955A948.836 948.836 0 0 1 979 1929.284zM979 10.06c-130.657 0-257.582 25.94-377.134 77.074a965.463 965.463 0 0 0-307.91 210A977.254 977.254 0 0 0 86.372 608.627a983.88 983.88 0 0 0-76.239 381.582c0 121.403 22.21 240.746 65.97 354.776l2.687 5.522a990.627 990.627 0 0 0 206.15 305.762 976.955 976.955 0 0 0 311.94 212.716 965.761 965.761 0 0 0 382.09 78.09c132.507 0 261.044-26.269 382.148-78.09a977.433 977.433 0 0 0 311.94-212.716 989.85 989.85 0 0 0 210.33-315.612l.895-1.91a983.522 983.522 0 0 0 63.582-348.538 984.478 984.478 0 0 0-76.18-381.582 978.239 978.239 0 0 0-207.611-311.493 965.88 965.88 0 0 0-307.91-210A954.03 954.03 0 0 0 979 10.06zm0 1946.477c-133.731 0-263.582-26.537-385.82-78.865a986.925 986.925 0 0 1-314.956-214.747 999.91 999.91 0 0 1-208.03-308.507l-2.776-5.672A996.448 996.448 0 0 1 .7 990.21c0-133.552 25.881-263.164 76.956-385.254a986.776 986.776 0 0 1 209.552-314.477 974.716 974.716 0 0 1 310.925-212.03A963.284 963.284 0 0 1 979 .597c131.94 0 260.09 26.209 380.896 77.85a974.925 974.925 0 0 1 310.895 212.03 987.343 987.343 0 0 1 209.612 314.478 993.433 993.433 0 0 1 76.896 385.254c0 120.776-21.642 239.284-64.329 352.239l-.985 2.09a998.657 998.657 0 0 1-212.179 318.387 986.627 986.627 0 0 1-314.955 214.747A974.866 974.866 0 0 1 979 1956.537z"/><path d="M1610.552 720.418a695.433 695.433 0 0 1 53.791 269.761h26.956c0-97.313-18.806-191.642-55.94-280.418l-24.807 10.627v.03z"/><path d="M1669.06 985.493h17.492A717.88 717.88 0 0 0 1632.821 716l-16.12 6.866a699.761 699.761 0 0 1 52.359 262.597v.03zm26.955 9.432h-36.418v-4.716a690.746 690.746 0 0 0-53.433-268l-1.79-4.299 33.522-14.328 1.82 4.358a727.94 727.94 0 0 1 56.299 282.269v4.716zM345.895 1438.03l10.568 12.776c1.074 1.343 10.298 13.134-.717 22.418a13.552 13.552 0 0 1-8.865 3.701c-7.224 0-13.045-6.865-13.105-6.895l-10.597-12.836 22.687-19.164h.03zm2.657-44.358l-107.074 90.627 20.447 24.746 38.12-32.239 10.597 12.836c.657.776 16.268 19.373 37.97 19.373 9.672 0 18.955-3.702 27.582-10.985 27.254-23.075 14.15-53.761 3.403-66.746l-31.045-37.583v-.03z"/><path d="M329.806 1457.791l7.612 9.224c1.224 1.403 5.373 5.194 9.433 5.194 1.194 0 3.104-.269 5.85-2.567 6.926-5.91 2.389-13.045.09-15.851l-7.522-9.075-15.463 13.075zm17.045 23.88c-9.433 0-16.418-8.268-16.717-8.596l-13.582-16.448 29.94-25.314 13.612 16.508c6.717 8.239 8.866 20.388-1.313 29.015a18.328 18.328 0 0 1-11.94 4.836zm-46.21-11.641l13.643 16.537c.179.21 14.597 17.702 34.328 17.702 8.537 0 16.776-3.344 24.507-9.851 24.478-20.746 12.538-48.418 2.836-60.15l-28-33.88-99.85 84.478 14.417 17.433 38.12-32.24v-.03zm-39.313 45.671l-26.477-32.03 114.328-96.686 34.09 41.284c11.76 14.209 26.09 47.85-4.03 73.313-9.493 8.06-19.791 12.12-30.627 12.12-24.299 0-41.493-20.956-41.642-21.135l-7.522-9.104-38.12 32.238zm253.881 44.12l-78.567 116.955 64.06 44.03 16.925-25.254-37.642-25.88 61.582-91.732-26.358-18.12z"/><path d="M443.18 1675.522l56.268 38.687 11.671-17.403-37.671-25.88 61.582-91.732-18.597-12.776-73.254 109.104zm58.805 51.881l-71.85-49.373 83.79-124.776 34.18 23.403-61.583 91.76 37.642 25.882-22.179 33.134v-.03zm225.702 46.03c-.06.09-3.433 10.209-13.553 10.209a22.06 22.06 0 0 1-6.776-1.194c-14.776-4.866-11.85-17.075-11.104-19.403l29.462-90.985-30.328-10.06-29.433 91.015c-.149.418-13.433 43.373 32.03 58.418 6.388 2.12 12.537 3.194 18.328 3.194 24.956 0 38.18-20.388 41.672-31.194l29.433-90.955-30.299-10.03-29.432 90.985z"/><path d="M698.403 1668l-27.94 86.448c-.508 1.552-11.642 39.045 29.015 52.507 5.88 1.94 11.552 2.955 16.835 2.955 22.24 0 34.03-18.268 37.165-27.94l27.97-86.477-21.314-7.075-28.03 86.627a20.12 20.12 0 0 1-26.208 11.88c-15.821-5.194-16.329-18.358-14.15-25.313l28-86.567-21.343-7.045zm17.91 151.343c-6.268 0-12.955-1.164-19.82-3.433-50-16.537-35.194-63.91-35.045-64.358l30.895-95.522 39.314 13.015-30.896 95.433c-.895 2.925-2 10.149 8.06 13.462a17.224 17.224 0 0 0 5.313.985c6.269 0 8.747-6.149 9.075-7.044l30.866-95.433 39.283 13.045-30.895 95.403c-3.88 11.91-18.448 34.447-46.15 34.447zm197.583-73.701l32.328 1.015-3.403 110.627 31.88 1.015 3.403-110.657 32.538 1.045.955-30.508-96.776-3.045-.925 30.508z"/><path d="M947.687 1852.716l22.447.717 3.373-110.657 32.538 1.015.686-21.015-87.343-2.776-.597 21.075 32.299.985-3.403 110.656zm31.582 10.448l-41.314-1.313 3.403-110.627-32.328-1.015 1.194-39.94 106.269 3.343-1.254 39.94-32.538-1.045-3.432 110.687v-.03zm233.283-64.09a23.344 23.344 0 0 1-5.85.866c-10.538 0-13.583-9.94-13.881-11.044l-12.836-48.747c0-.06-.895-3.79.12-7.88 1.313-5.493 5.283-9.075 12.089-10.896a22.448 22.448 0 0 1 5.88-.806c10.538 0 13.613 9.88 13.881 11.015l12.776 48.717c.597 2.417 2.836 14.776-12.179 18.805v-.03zm30.239-75.79c-3.045-11.642-15.88-33.583-42.657-33.583a61.791 61.791 0 0 0-15.641 2.18c-24.06 6.447-32.418 21.552-35.194 33.074-2.956 12.299-.21 22.985-.09 23.433l12.776 48.776c3.045 11.642 15.88 33.612 42.687 33.612 4.895 0 10.149-.716 15.612-2.209 46.268-12.418 35.403-56.06 35.283-56.507l-12.776-48.776z"/><path d="M1198.075 1725.284a18.209 18.209 0 0 0-4.657.656c-6.567 1.791-8.09 4.896-8.717 7.433-.716 2.896-.09 5.672-.09 5.672l12.777 48.656c.358 1.433 3.343 9.523 13.97 6.806 9.791-2.626 9.702-9.313 8.776-13.074l-12.746-48.657c-.209-.776-2.209-7.492-9.313-7.492zm8.656 79.373c-10.656 0-16.627-7.791-18.507-14.478l-12.776-48.836c-.06-.268-1.194-4.955.06-10.209 1.76-7.194 6.955-12.03 15.462-14.328a27.82 27.82 0 0 1 7.105-.985c11.522 0 17.015 9.134 18.477 14.537l12.747 48.746c2.179 8.866-.598 20.597-15.523 24.538a27.433 27.433 0 0 1-7.075 1.015h.03zm-6.597-110.24c-4.507 0-9.373.687-14.418 2.03-21.85 5.852-29.343 19.344-31.79 29.613-2.717 11.194-.18 20.985-.15 21.104l12.776 48.806c2.717 10.388 14.18 30.09 38.09 30.09 4.537 0 9.373-.687 14.418-2.06 41.313-11.075 32.358-49.164 31.94-50.806l-12.776-48.687c-2.717-10.447-14.18-30.09-38.09-30.09zm4.478 141.076c-29.642 0-43.85-24.27-47.194-37.135l-12.776-48.776a56.418 56.418 0 0 1 .06-25.731c3.074-12.776 12.238-29.463 38.567-36.508 5.82-1.582 11.522-2.388 16.865-2.388 29.672 0 43.88 24.299 47.224 37.135l12.806 48.776c4.21 16.835 1.552 51.492-38.657 62.268-5.82 1.582-11.492 2.388-16.865 2.388l-.03-.03zm214.627-246.21l35.612 58.777-65.493-40.269-25.492 15.791 73.044 120.537 27.165-16.806-35.612-58.806 65.492 40.299 25.493-15.82-73.015-120.568-27.194 16.866z"/><path d="M1370.343 1625.134l68.12 112.478 19.164-11.85-43.314-71.523 79.642 48.985 19.015-11.761-68.09-112.478-19.164 11.85 43.284 71.493-79.642-48.985-19.015 11.791zm64.985 125.553l-77.91-128.657 31.94-19.791 51.343 31.552-27.91-46.06 35.224-21.85 77.91 128.656-31.94 19.821-51.343-31.612 27.91 46.09-35.224 21.85zm149.612-305.344c-19.164 21.94-20.298 47.194-2.806 62.866 5.344 4.776 12.478 7.194 21.194 7.194 11.97 0 25.582-4.448 37.612-8.358 9.553-3.105 18.567-6.06 24.508-6.06 1.433 0 3.373.18 4.358 1.045 6.567 5.91-2.299 16.507-2.627 16.925l-24.985 28.538 22.448 20.119 24.955-28.567c10.537-12 15.88-25.493 15.134-37.97a35.702 35.702 0 0 0-12.298-24.896c-5.314-4.776-12.448-7.164-21.134-7.164-11.97 0-25.672 4.478-37.702 8.418-9.612 3.164-18.687 6.12-24.627 6.12-1.433 0-3.373-.18-4.358-1.075-6.508-5.851 2.537-16.448 2.925-16.926l24.836-28.388-22.597-20.209-24.836 28.388z"/><path d="M1648.82 1547.104l15.434 13.792 21.79-24.956c9.702-11.074 14.657-23.343 13.97-34.567a31.164 31.164 0 0 0-10.715-21.672c-4.448-3.97-10.508-5.97-18-5.97-11.195 0-24.478 4.359-36.18 8.18-14.925 4.925-28.507 8.746-33.671 4.119-7.164-6.478-3.463-16.388 2.388-23.463l21.91-24.985-15.552-13.91-21.672 24.776c-17.343 19.85-18.656 42.448-3.253 56.239 4.477 3.97 10.537 5.97 18.09 5.97 11.163 0 24.357-4.269 36.03-8.06 14.924-4.896 28.447-8.657 33.551-4.09 7.314 6.538 3.433 16.717-2.09 23.433l-22.03 25.164zm16.24 27.165l-29.493-26.359 28.06-32.09c1.492-1.79 5.373-7.7 3.224-10.089 0 .09-.508 0-1.403 0-5.224 0-14.299 2.926-23.075 5.791-12.388 4.06-26.328 8.597-39.015 8.597-9.94 0-18.149-2.806-24.388-8.358-19.552-17.552-18.597-45.462 2.388-69.522l28.03-31.97 29.612 26.477-27.91 31.94c-1.583 1.881-5.583 7.792-3.493 10.15.09-.06.567 0 1.373 0 5.254 0 14.329-2.985 23.164-5.88 12.418-4.09 26.448-8.687 39.165-8.687 9.91 0 18.09 2.835 24.298 8.388 8.418 7.522 13.224 17.283 13.85 28.149.837 13.701-4.954 28.388-16.268 41.343l-28.12 32.15v-.03z"/></g></svg>