<svg viewBox="0 0 2000 1901" xmlns="http://www.w3.org/2000/svg" xmlns:xlink="http://www.w3.org/1999/xlink">
  <defs>
    <path d="M1186.02111 1355.17534v276.66546c0 93.4213-75.73292 169.15422-169.15422 169.15422H784.12814c-93.421301 0-169.154229-75.73292-169.154229-169.15422v-276.66546c0-93.4213-75.732928-169.15423-169.154229-169.15423H169.154229C75.732928 1186.02111 0 1110.28819 0 1016.86689V784.12814c0-93.421301 75.732928-169.154229 169.154229-169.154229h276.665453c93.421301 0 169.154229-75.732928 169.154229-169.154229V169.154229C614.973911 75.732928 690.706839 0 784.12814 0h232.73875c93.4213 0 169.15422 75.732928 169.15422 169.154229v276.665453c0 93.421301 75.73293 169.154229 169.15423 169.154229h276.66546c93.4213 0 169.15422 75.732928 169.15422 169.154229v232.73875c0 93.4213-75.73292 169.15422-169.15422 169.15422h-276.66546c-93.4213 0-169.15423 75.73293-169.15423 169.15423z" id="a"/>
  </defs>
  <g fill="none" fill-rule="evenodd">
    <g transform="translate(0 99.502488)">
      <mask id="b" fill="#fff">
        <use xlink:href="#a"/>
      </mask>
      <use fill="#000" xlink:href="#a"/>
      <circle fill="#EE001B" mask="url(#b)" cx="1557.21393" cy="194.029851" r="1009.95025"/>
    </g>
    <path d="M1389.33171 490.301296c-4.10625-23.513239-6.24713-47.702029-6.24713-72.390848C1383.08458 187.104881 1570.18946 0 1800.99502 0c69.52437 0 135.0835 16.977224 192.75785 47.01214C1997.85912 70.525375 2000 94.714164 2000 119.402984c0 230.805567-187.10488 417.910448-417.91045 417.910448-69.52436 0-135.08349-16.977223-192.75784-47.012137z" fill="#EE001B"/>
  </g>
</svg>
