<svg xmlns="http://www.w3.org/2000/svg" viewBox="0 0 256.16 256.17"><defs><style>.cls-1{fill:#fdfefe;}.cls-2{fill:#09cbcd;}.cls-3{fill:#08cbcd;}</style></defs><title>ruff</title><g id="Layer_2" data-name="Layer 2"><g id="Layer_1-2" data-name="Layer 1"><path class="cls-1" d="M128.08,256.08q-62.25,0-124.5.08c-3,0-3.59-.6-3.58-3.58q.15-124.5,0-249C0,.6.6,0,3.58,0q124.5.15,249,0c3,0,3.59.6,3.58,3.58q-.15,124.5,0,249c0,3-.6,3.59-3.58,3.58Q190.33,256,128.08,256.08Zm2-113.17c-.17-4.45,5.34-8.75,8.31-6.58C144,140.44,151,143.07,153.17,151c1.35,4.83,6.58,6.54,11.06,5a8.82,8.82,0,0,0,5.9-9.85c-.64-4.61-4.85-8.83-9.44-7.63-7.15,1.87-12.64-1.24-18.45-4-1.4-.66-4.24-1-3.63-2.64,1.09-2.94-.56-7.28,2.19-8.7,5.54-2.87,10.74-7.32,18.09-5.09A8.75,8.75,0,0,0,170,111.44c1.1-4.83-1.54-9.87-5.91-11.31a9,9,0,0,0-11.73,6.42c-1.95,7.11-8.56,8.86-13.29,12.79-.57.47-1.14.21-1.8-.1-7-3.24-7.8-4.82-6.92-12.49.48-4.21,1.48-7.9,4.57-11.23,3.46-3.73,2.78-8.89-.68-12.13A9.07,9.07,0,0,0,122,83.2c-3.57,3.15-4.5,8.42-1,12.06,3.9,4.05,4.31,8.79,4.76,13.73.18,1.94,1.36,4.58-.19,5.7-2.38,1.73-5.11,3-7.3,5.08-.18.17-1-.07-1.33-.35-4.78-4.1-11.55-5.92-13.39-13.34-1.23-5-6.52-7.2-11.18-5.89a9.48,9.48,0,0,0-6.5,11c1,4.83,5.41,8.48,10.36,7.09,7.27-2,12.55,1.92,18.32,4.55,3.68,1.68,1.21,5.75,2.57,8.54.81,1.66-1.67,2.15-2.92,2.7-5.85,2.54-11.23,6.14-18.42,4.3-4.82-1.23-9.19,2.8-10.07,7.6a9,9,0,0,0,5.8,9.94c4.4,1.76,9.93.27,11.28-4.42,2.23-7.7,8.83-10.34,14.09-14.71,3.23-2.68,5.1.46,7.56,1.07,2.72.67,1.86,2.85,1.71,4.49-.64,6.68-.15,13.47-5.53,19.09-3.25,3.39-1.86,8.6,1.72,11.55a9.11,9.11,0,0,0,11.92-.14c3.34-2.86,4.58-7.9,1.41-11.17C130.23,156,131,149.16,130.1,142.92Zm4-83.94c-1.88,9.8-.82,12.27,6.93,16.75q12.52,7.23,25,14.44c8.64,5,10.33,4.88,19-1.81ZM70.94,167.81l50.91,29.4c1.65-10.55.89-12.23-7.49-17.1-8.06-4.68-16.44-8.9-24.11-14.15C83.21,161.16,77.37,162.06,70.94,167.81Zm.19-79.48c6.43,5.86,12.31,6.49,19.31,1.74,7.83-5.31,16.33-9.62,24.54-14.38,7.88-4.57,8.85-6.82,7-16.72ZM185,167.53c-6.34-5.74-12.08-6.2-18.87-1.64-8,5.36-16.62,9.78-25,14.62-7.75,4.49-8.9,7.18-6.83,16.63Zm-119.64-69v58.36c9.43-3.29,10.8-5.14,10.81-14.26,0-9.48-.52-19,.16-28.43C76.89,105.78,73.64,100.89,65.33,98.51ZM190.72,157a6.11,6.11,0,0,0,.36-1.26q0-14.46,0-28.92c0-8.31,0-16.62,0-24.93,0-1.18.89-3.35-2-2.77A11.08,11.08,0,0,0,180,110.05c0,10.64,0,21.27,0,31.91C180,151.83,180.88,153.06,190.72,157Z"/><path class="cls-2" d="M130.1,142.92c.87,6.24.13,13.11,5.57,18.71,3.18,3.27,1.93,8.31-1.41,11.17a9.11,9.11,0,0,1-11.92.14c-3.58-2.95-5-8.16-1.72-11.55,5.38-5.62,4.89-12.41,5.53-19.09.16-1.64,1-3.82-1.71-4.49-2.47-.61-4.34-3.75-7.56-1.07-5.26,4.37-11.87,7-14.09,14.71-1.36,4.69-6.89,6.18-11.28,4.42a9,9,0,0,1-5.8-9.94c.88-4.8,5.25-8.83,10.07-7.6,7.19,1.83,12.57-1.76,18.42-4.3,1.25-.55,3.73-1,2.92-2.7-1.36-2.79,1.11-6.86-2.57-8.54-5.77-2.63-11.06-6.6-18.32-4.55-5,1.4-9.36-2.25-10.36-7.09a9.48,9.48,0,0,1,6.5-11c4.66-1.31,10,.94,11.18,5.89,1.84,7.42,8.61,9.25,13.39,13.34.33.28,1.15.52,1.33.35,2.18-2.09,4.92-3.35,7.3-5.08,1.55-1.13.37-3.76.19-5.7-.45-4.94-.86-9.68-4.76-13.73-3.51-3.64-2.59-8.91,1-12.06a9.07,9.07,0,0,1,12.28.19c3.47,3.24,4.14,8.4.68,12.13-3.09,3.33-4.08,7-4.57,11.23-.88,7.67-.06,9.25,6.92,12.49.66.31,1.23.57,1.8.1,4.73-3.93,11.34-5.68,13.29-12.79a9,9,0,0,1,11.73-6.42c4.37,1.44,7,6.48,5.91,11.31a8.75,8.75,0,0,1-11.12,6.66c-7.35-2.22-12.55,2.22-18.09,5.09-2.75,1.42-1.1,5.77-2.19,8.7-.61,1.65,2.24,2,3.63,2.64,5.81,2.75,11.3,5.85,18.45,4,4.59-1.2,8.8,3,9.44,7.63a8.82,8.82,0,0,1-5.9,9.85c-4.47,1.58-9.71-.13-11.06-5-2.22-8-9.14-10.6-14.76-14.71C135.45,134.16,129.93,138.47,130.1,142.92Z"/><path class="cls-2" d="M134.14,59l51,29.38c-8.67,6.69-10.36,6.81-19,1.81q-12.51-7.24-25-14.44C133.33,71.25,132.27,68.78,134.14,59Z"/><path class="cls-2" d="M70.94,167.81c6.43-5.75,12.27-6.65,19.31-1.84,7.68,5.24,16.05,9.46,24.11,14.15,8.38,4.86,9.14,6.55,7.49,17.1Z"/><path class="cls-2" d="M71.12,88.34,121.92,59c1.89,9.89.92,12.15-7,16.72-8.2,4.76-16.71,9.07-24.54,14.38C83.43,94.83,77.56,94.2,71.12,88.34Z"/><path class="cls-2" d="M185,167.53,134.3,197.14c-2.07-9.45-.92-12.14,6.83-16.63,8.35-4.83,17-9.25,25-14.62C172.89,161.33,178.62,161.78,185,167.53Z"/><path class="cls-3" d="M65.33,98.51c8.31,2.38,11.56,7.27,11,15.66-.68,9.43-.15,19-.16,28.43,0,9.12-1.38,11-10.81,14.26Z"/><path class="cls-3" d="M190.72,157c-9.84-4-10.69-5.19-10.69-15.06,0-10.64,0-21.27,0-31.91a11.08,11.08,0,0,1,9.07-10.91c2.86-.57,2,1.59,2,2.77.08,8.31,0,16.62,0,24.93q0,14.46,0,28.92A6.11,6.11,0,0,1,190.72,157Z"/></g></g></svg>