<svg viewBox="0 0 2000 1223" xmlns="http://www.w3.org/2000/svg">
  <path d="M1573.43448 700.610576c37.98126-4.178433 67.72169-11.432514 91.43667-21.466982 29.86213-12.6355 51.67071-29.815416 81.48414-62.803152 42.40238-46.91706 66.20329-107.532901 66.20329-172.104266 0-141.823825-114.97093-256.794751-256.79476-256.794751H864.104967c-141.823825 0-256.794751 114.970926-256.794751 256.794751s114.970926 256.794752 256.794751 256.794752h251.171513c51.76052 0 93.72071 41.960192 93.72071 93.720712 0 51.76052-41.96019 93.720712-93.72071 93.720712H864.104967c-218.98868 0-400.968277-158.454726-437.539451-366.96484-37.98126 4.178433-67.721684 11.432514-91.436665 21.466983-29.862132 12.635499-51.670709 29.815415-81.484141 62.803151-42.402384 46.91706-66.203285 107.532901-66.203285 172.104266 0 141.823825 114.970926 256.794748 256.794751 256.794748h691.658854c141.82383 0 256.79475-114.970923 256.79475-256.794748 0-141.823825-114.97092-256.794752-256.79475-256.794752H884.723524c-51.76052 0-93.720712-41.960192-93.720712-93.720712 0-51.76052 41.960192-93.720712 93.720712-93.720712h251.171506c218.98868 0 400.96828 158.454726 437.53945 366.96484zm-7.43484 188.858153c-49.49828 191.334241-223.29849 332.649361-430.10461 332.649361H444.236176C198.891311 1222.11809 0 1023.22678 0 777.881912c0-111.467457 41.335774-216.740894 114.581807-297.785596 46.628274-51.592892 89.053196-85.013532 147.504914-109.746081 47.911491-20.272685 103.741712-32.590205 171.913638-37.700876C483.498649 141.315116 657.298851 0 864.104967 0h691.658853C1801.10869 0 2000 198.891311 2000 444.236176c0 111.467458-41.33577 216.740894-114.58181 297.785596-46.62827 51.592892-89.05319 85.013532-147.50491 109.746081-47.91149 20.272685-103.74171 32.590205-171.91364 37.700876z" fill="#398FFF" fill-rule="nonzero"/>
</svg>
