<?xml version="1.0" encoding="UTF-8"?>
<svg width="40px" height="40px" viewBox="0 0 40 40" version="1.1" xmlns="http://www.w3.org/2000/svg" xmlns:xlink="http://www.w3.org/1999/xlink">
    <!-- Generator: Sketch 61.2 (89653) - https://sketch.com -->
    <title>sw_eth_set</title>
    <desc>Created with Sketch.</desc>
    <g id="sw_eth_set" stroke="none" stroke-width="1" fill="none" fill-rule="evenodd">
        <circle id="Oval" fill="#05132F" cx="20" cy="20" r="20"></circle>
        <path d="M20,40 C31.045695,40 40,31.045695 40,20 C40,8.954305 31.045695,1.59872116e-13 20,1.59872116e-13 C19.960858,1.59872116e-13 20.0256298,40 20,40 Z" id="Oval-Copy-2" fill="#23345B"></path>
        <g id="Group-2" transform="translate(8.456982, 7.411330)" fill="#FFFFFF">
            <path d="M14.5682214,8.01492206e-12 C18.0240658,8.01492206e-12 19.2678995,2.88176387 19.2678995,2.88176387 C20.6575159,3.18073691 22.3603714,4.71572087 22.9232136,7.23096772 C23.2984417,8.90779895 23.0314752,10.5156238 22.1223139,12.0544423 C22.794991,12.9984501 23.1313295,13.9110142 23.1313295,14.7921345 C23.1313295,15.8682742 22.6383787,16.8562866 21.652477,17.7561717 L21.6507687,14.8216357 L16.3966243,14.8206698 L16.3975121,13.0556268 C17.0597423,12.8439398 17.5392506,12.2234712 17.5392506,11.4910074 C17.5392506,10.5839913 16.8039688,9.84870952 15.8969527,9.84870952 C14.9899366,9.84870952 14.2546548,10.5839913 14.2546548,11.4910074 C14.2546548,12.2235973 14.7343283,12.8441535 15.3967355,13.0557361 L15.3969527,15.8216357 L20.6505809,15.8206698 L20.6516865,18.5292769 C20.6475946,18.5319946 20.6434978,18.5347114 20.6393958,18.5374272 C21.0391082,19.6192124 20.9577891,20.5885789 20.3954385,21.4455268 C19.833088,22.3024747 18.8775917,22.8357687 17.5289496,23.0454087 C16.4976528,24.5202637 15.3317814,25.2576912 14.0313354,25.2576912 C12.7850746,25.2576912 12.1359106,24.4841688 12.0838434,22.9371238 L12.0804383,22.7309486 L12.0795463,19.679 L14.3397603,19.6794723 C14.5582348,20.3299525 15.1728704,20.7985498 15.8969527,20.7985498 C16.8039688,20.7985498 17.5392506,20.063268 17.5392506,19.1562519 C17.5392506,18.2492358 16.8039688,17.513954 15.8969527,17.513954 C15.1559169,17.513954 14.5295129,18.0047514 14.3250696,18.6790174 L12.0795463,18.679 L12.0795463,7.088 L16.5030605,7.08888703 C16.7146431,7.75129422 17.3351993,8.23096772 18.0677892,8.23096772 C18.9748053,8.23096772 19.7100871,7.4956859 19.7100871,6.5886698 C19.7100871,5.68165371 18.9748053,4.94637189 18.0677892,4.94637189 C17.3353254,4.94637189 16.7148568,5.42588022 16.5031698,6.08811043 L12.0795463,6.088 L12.0804383,2.88176387 C12.0804383,1.03447934 12.8471367,0.0753123693 14.3805336,0.00426296431 L14.5682214,8.01492206e-12 Z M15.8969527,18.513954 C16.251684,18.513954 16.5392506,18.8015206 16.5392506,19.1562519 C16.5392506,19.5109833 16.251684,19.7985498 15.8969527,19.7985498 C15.5422214,19.7985498 15.2546548,19.5109833 15.2546548,19.1562519 C15.2546548,18.8015206 15.5422214,18.513954 15.8969527,18.513954 Z M15.8969527,10.8487095 C16.251684,10.8487095 16.5392506,11.1362761 16.5392506,11.4910074 C16.5392506,11.8457388 16.251684,12.1333053 15.8969527,12.1333053 C15.5422214,12.1333053 15.2546548,11.8457388 15.2546548,11.4910074 C15.2546548,11.1362761 15.5422214,10.8487095 15.8969527,10.8487095 Z M18.0677892,5.94637189 C18.4225205,5.94637189 18.7100871,6.23393846 18.7100871,6.5886698 C18.7100871,6.94340115 18.4225205,7.23096772 18.0677892,7.23096772 C17.7130578,7.23096772 17.4254913,6.94340115 17.4254913,6.5886698 C17.4254913,6.23393846 17.7130578,5.94637189 18.0677892,5.94637189 Z" id="Combined-Shape"></path>
            <path d="M11.0508912,22.7309486 C11.0507392,24.4154437 10.4004402,25.2576912 9.09999414,25.2576912 C7.79954809,25.2576912 6.63367667,24.5202637 5.60237987,23.0454087 C4.25373782,22.8357687 3.29824153,22.3024747 2.73589098,21.4455268 C2.17354043,20.5885789 2.09222133,19.6192124 2.49193369,18.5374272 C0.830644565,17.4374949 1.37845291e-12,16.1890639 1.37845291e-12,14.7921345 C1.37845291e-12,14.0676368 0.227394643,13.3218803 0.68218393,12.5548651 L3.39535324,12.5546596 C3.60693587,13.2170668 4.22749204,13.6967403 4.96008196,13.6967403 C5.86709805,13.6967403 6.60237987,12.9614584 6.60237987,12.0544423 C6.60237987,11.1474263 5.86709805,10.4121444 4.96008196,10.4121444 C4.22749204,10.4121444 3.60693587,10.8918179 3.39535324,11.5542251 L0.737447089,11.5545152 C0.0497704358,10.1682667 -0.126673288,8.7270842 0.208115918,7.23096772 C0.770958119,4.71572087 2.47381363,3.18073691 3.86343,2.88176387 C3.86343,2.88176387 5.10726375,-3.97903932e-13 8.56310808,-3.97903932e-13 C10.2216302,-3.97903932e-13 11.0508912,0.960587955 11.0508912,2.88176387 L11.0508912,8.83502738 L8.73962425,8.8346698 L8.7400159,6.0886698 L6.52470135,6.08811043 C6.31301434,5.42588022 5.69254574,4.94637189 4.96008196,4.94637189 C4.05306587,4.94637189 3.31778405,5.68165371 3.31778405,6.5886698 C3.31778405,7.4956859 4.05306587,8.23096772 4.96008196,8.23096772 C5.69267188,8.23096772 6.31322805,7.75129422 6.52481068,7.08888703 L7.73962425,7.0886698 L7.7400159,9.83502738 L11.0508912,9.83502738 L11.0506632,14.2921345 L6.64932507,14.2921345 L6.64910784,17.6149964 C5.98670065,17.8265791 5.50702715,18.4471352 5.50702715,19.1797252 C5.50702715,20.0867413 6.24230897,20.8220231 7.14932507,20.8220231 C8.05634116,20.8220231 8.79162298,20.0867413 8.79162298,19.1797252 C8.79162298,18.4472614 8.31211465,17.8267928 7.64988444,17.6151058 L7.64862425,15.2916698 L11.0506632,15.2921345 L11.0508912,22.7309486 Z M7.14932507,18.5374272 C7.50405641,18.5374272 7.79162298,18.8249938 7.79162298,19.1797252 C7.79162298,19.5344565 7.50405641,19.8220231 7.14932507,19.8220231 C6.79459372,19.8220231 6.50702715,19.5344565 6.50702715,19.1797252 C6.50702715,18.8249938 6.79459372,18.5374272 7.14932507,18.5374272 Z M4.96008196,11.4121444 C5.3148133,11.4121444 5.60237987,11.699711 5.60237987,12.0544423 C5.60237987,12.4091737 5.3148133,12.6967403 4.96008196,12.6967403 C4.60535062,12.6967403 4.31778405,12.4091737 4.31778405,12.0544423 C4.31778405,11.699711 4.60535062,11.4121444 4.96008196,11.4121444 Z M4.96008196,5.94637189 C5.3148133,5.94637189 5.60237987,6.23393846 5.60237987,6.5886698 C5.60237987,6.94340115 5.3148133,7.23096772 4.96008196,7.23096772 C4.60535062,7.23096772 4.31778405,6.94340115 4.31778405,6.5886698 C4.31778405,6.23393846 4.60535062,5.94637189 4.96008196,5.94637189 Z" id="Combined-Shape"></path>
        </g>
    </g>
</svg>