<svg viewBox="0 0 1580 1988" xmlns="http://www.w3.org/2000/svg">
  <defs>
    <linearGradient x1="-618.496837%" y1="-319.741467%" x2="315.804623%" y2="206.609228%" id="a">
      <stop stop-color="#653C0E" offset="18.41%"/>
      <stop stop-color="#9E6315" offset="31.98%"/>
      <stop stop-color="#DB9326" offset="38.69%"/>
      <stop stop-color="#DB9326" offset="43.37%"/>
      <stop stop-color="#A87517" offset="50.23%"/>
      <stop stop-color="#A87517" offset="62.4%"/>
      <stop stop-color="#F6CA63" offset="70.98%"/>
      <stop stop-color="#F6CA63" offset="76.13%"/>
      <stop stop-color="#A67C20" offset="84.56%"/>
      <stop stop-color="#735418" offset="100%"/>
    </linearGradient>
    <linearGradient x1="-509.686265%" y1="-548.691903%" x2="232.591654%" y2="245.438866%" id="b">
      <stop stop-color="#653C0E" offset="18.41%"/>
      <stop stop-color="#9E6315" offset="31.98%"/>
      <stop stop-color="#DB9326" offset="38.69%"/>
      <stop stop-color="#DB9326" offset="43.37%"/>
      <stop stop-color="#A87517" offset="50.23%"/>
      <stop stop-color="#A87517" offset="62.4%"/>
      <stop stop-color="#F6CA63" offset="70.98%"/>
      <stop stop-color="#F6CA63" offset="76.13%"/>
      <stop stop-color="#A67C20" offset="84.56%"/>
      <stop stop-color="#735418" offset="100%"/>
    </linearGradient>
    <linearGradient x1="-98.988783%" y1="-572.840202%" x2="82.460904%" y2="219.686263%" id="c">
      <stop stop-color="#653C0E" offset="18.41%"/>
      <stop stop-color="#9E6315" offset="31.98%"/>
      <stop stop-color="#DB9326" offset="38.69%"/>
      <stop stop-color="#DB9326" offset="43.37%"/>
      <stop stop-color="#A87517" offset="50.23%"/>
      <stop stop-color="#A87517" offset="62.4%"/>
      <stop stop-color="#F6CA63" offset="70.98%"/>
      <stop stop-color="#F6CA63" offset="76.13%"/>
      <stop stop-color="#A67C20" offset="84.56%"/>
      <stop stop-color="#735418" offset="100%"/>
    </linearGradient>
  </defs>
  <g fill-rule="nonzero" fill="none">
    <path d="M59.986687 21.754765l741.12585 757.461346c-5.805163 3.955411-9.67527 7.910822-15.480433 13.843941L44.506252 35.598706C40.636143 31.643294 34.83098 33.621 34.83098 33.621s-5.805163 1.977705-5.805163 7.910823v338.187703c0 23.73247 9.675272 47.464941 25.155707 63.286585l487.63372 498.381878c17.415489 17.799355 38.701086 25.710178 61.921741 25.710178h148.999193c1.935052 7.910822 5.805163 13.84394 9.67527 21.754763H601.80193c-29.025815 0-56.116578-11.866234-77.402178-31.643293L36.766034 458.827759c-21.285598-21.754763-30.96087-49.442644-30.96087-79.108233V41.531823c0-11.866235 7.740217-23.73247 19.350544-27.687882 13.54538-3.955412 25.155708-1.977706 34.83098 7.910824z" fill="url(#a)" transform="translate(0 -12)"/>
    <path d="M946.241619 21.754765L13.545381 975.008988c9.675272 3.955411 17.41549 9.88853 25.155708 15.821648h367.660344c27.09076 0 50.311415-9.88853 69.66196-29.665589l493.438881-504.314992c19.350545-19.77706 29.025815-43.50953 29.025815-71.197412V43.509529c0-11.866235-7.740215-23.73247-19.350545-27.687882-11.610325-3.955412-25.155707-1.977706-32.895925 5.933117zM971.39733 33.621c1.935051 0 5.805163 1.977705 5.805163 9.888529v342.143115c0 21.754763-7.740219 41.531823-23.220656 55.375763L460.542956 945.3434c-15.480434 15.821648-34.830978 23.73247-54.181523 23.73247H48.376361L961.722056 35.598706c3.870107-3.955412 7.740218-1.977706 9.675274-1.977706z" transform="translate(580.516333 -12)" fill="url(#b)"/>
    <path d="M1037.67639 1066.21773l489.1081 496.07183c19.18071 19.4538 28.77107 42.79835 28.77107 70.03367v338.49607c0 11.67228-7.67229 23.34456-17.26264 27.23532-11.50843 3.89076-23.01685 1.94538-32.60721-5.83614l-715.440469-725.62664 155.363748-157.57575c3.836141-3.89076 3.836141-9.7269 0-13.61766-3.836145-3.89076-9.590356-3.89076-13.426496 0l-155.363752 157.57576L49.869845 1990.2731c-9.590355 7.78152-21.09878 11.67228-32.607206 5.83614C5.754213 1990.2731 0 1980.5462 0 1968.87393v-332.65994c0-29.18069 11.508426-56.41601 30.689135-77.81519l483.353884-490.23569c21.098781-21.39917 47.951774-31.12607 76.72284-31.12607h377.859982c26.852992 0 49.869849 9.7269 69.050549 29.18069z" fill="url(#c)" transform="translate(0 -12)"/>
  </g>
</svg>
