<?xml version="1.0" encoding="UTF-8"?>
<svg width="2000px" height="2000px" viewBox="0 0 2000 2000" version="1.1" xmlns="http://www.w3.org/2000/svg" xmlns:xlink="http://www.w3.org/1999/xlink">
    <!-- Generator: Sketch 48.2 (47327) - http://www.bohemiancoding.com/sketch -->
    <title>Shape</title>
    <desc>Created with Sketch.</desc>
    <defs></defs>
    <g id="Page-1" stroke="none" stroke-width="1" fill="none" fill-rule="evenodd">
        <g id="xmy" fill="#8FA445" fill-rule="nonzero">
            <path d="M1000,2000 C447.71525,2000 0,1552.28475 0,1000 C0,447.71525 447.71525,0 1000,0 C1552.28475,0 2000,447.71525 2000,1000 C2000,1552.28475 1552.28475,2000 1000,2000 Z M1315.57375,1312.5 L1601.09288,1312.5 C1648.81425,1312.5 1687.5,1272.40356 1687.5,1222.94206 C1687.5,1173.48056 1648.81425,1133.38413 1600.61956,1133.38544 L1435.79237,1134.46969 C1478.36975,998.106063 1499.65844,908.459563 1499.65844,865.530313 C1499.65844,751.893937 1420.765,687.5 1326.84425,687.5 C1225.40987,687.5 1154.03006,740.530313 1112.70487,785.984875 C1082.65031,717.803 1015.02744,687.5 962.431812,687.5 C909.836188,687.5 849.726812,702.6515 804.644875,759.469687 C794.626625,716.540375 767.076562,695.07575 721.994625,695.07575 L400.7855,695.07575 C352.02675,695.07575 312.5,734.929188 312.5,784.090875 C312.5,833.252625 352.02675,873.106063 402.663937,873.106063 L594.262313,873.106063 L507.855187,1232.95456 C510.35975,1285.98488 535.405313,1312.5 582.991875,1312.5 C635.5875,1312.5 669.398938,1282.19694 684.42625,1221.59087 C711.976375,1110.47981 733.265063,1027.1465 748.292438,971.590875 C770.833375,888.257562 819.672187,850.378813 872.267812,850.378813 C924.863437,850.378813 947.404437,888.257562 947.404437,918.560625 C947.404437,938.762625 940.366125,971.035938 926.289562,1015.38056 C890.275062,1148.39225 872.267812,1220.91694 872.267812,1232.95456 C872.267812,1263.25756 883.538312,1312.5 951.16125,1312.5 C996.24325,1312.5 1027.55012,1289.77275 1045.082,1244.31813 C1090.164,1070.07575 1118.96637,962.7525 1131.48912,922.3485 C1150.27331,861.742438 1212.07388,850.378813 1240.43725,850.378813 C1289.276,850.378813 1315.57381,884.469687 1315.57381,918.560625 C1315.57381,936.237375 1311.11244,956.220063 1302.18969,978.50875 C1258.51681,1122.69969 1236.68037,1208.77762 1236.68037,1236.74244 C1236.68037,1293.56056 1278.0055,1312.5 1315.57381,1312.5 L1315.57375,1312.5 Z" id="Shape"></path>
        </g>
    </g>
</svg>