<?xml version="1.0" encoding="utf-8"?>
<!-- Generator: Adobe Illustrator 24.3.0, SVG Export Plug-In . SVG Version: 6.00 Build 0)  -->
<svg version="1.1" id="Layer_1" xmlns="http://www.w3.org/2000/svg" xmlns:xlink="http://www.w3.org/1999/xlink" x="0px" y="0px"
	 viewBox="0 0 1000 1000" style="enable-background:new 0 0 1000 1000;" xml:space="preserve">
<style type="text/css">
	.st0{fill:#F38320;}
</style>
<g>
	<path class="st0" d="M500,218.4c-155.5,0-281.6,126.1-281.6,281.6c0,71.2,26.5,136.1,70,185.7l208.7-416.8L709,688.7
		c45.1-49.9,72.6-116.1,72.6-188.7C781.6,344.5,655.5,218.4,500,218.4z"/>
	<path class="st0" d="M369.6,749.6c39,20.4,83.4,32,130.4,32c45.8,0,88.9-11,127.1-30.3l-130-257.2L369.6,749.6z"/>
	<path class="st0" d="M500,24C237.1,24,24,237.1,24,500c0,262.9,213.1,476,476,476c262.9,0,476-213.1,476-476
		C976,237.1,762.9,24,500,24z M500,883.3c-211.4,0-383.3-171.9-383.3-383.3S288.6,116.7,500,116.7S883.3,288.6,883.3,500
		S711.4,883.3,500,883.3z"/>
</g>
</svg>
